<?xml version="1.0" encoding="utf-8"?>
<!-- Designed by Vexels.com - 2016 All Rights Reserved - https://vexels.com/terms-and-conditions/  -->

<svg version="1.0" id="Capa_1" xmlns="http://www.w3.org/2000/svg" xmlns:xlink="http://www.w3.org/1999/xlink" x="0px" y="0px"
	 width="1199.531px" height="1199.529px" viewBox="0 0 1199.531 1199.529" enable-background="new 0 0 1199.531 1199.529"
	 xml:space="preserve">
<g>
	<path fill="#09B1D1" d="M939.375,245.603H836.751c-10.068,0-18.257,8.207-18.257,18.297c0,10.063,8.188,18.247,18.257,18.247
		h102.624c11.136,0,20.198,9.064,20.198,20.202v741.65c0,11.168-9.063,20.252-20.198,20.252H260.161
		c-11.168,0-20.247-9.084-20.247-20.252v-741.65c0-11.138,9.079-20.202,20.247-20.202h103.975c10.061,0,18.247-8.185,18.247-18.247
		c0-10.09-8.187-18.297-18.247-18.297H260.161c-31.285,0-56.745,25.461-56.745,56.746v741.65c0,31.286,25.46,56.742,56.745,56.742
		h679.214c31.288,0,56.74-25.456,56.74-56.742v-741.65C996.115,271.063,970.663,245.603,939.375,245.603z"/>
	<path fill="#F06C4E" d="M796.956,191.62H761.46c-11.139,0-20.195-9.059-20.195-20.203v-15.893
		c0-31.287-25.458-56.736-56.744-56.736H515.005c-31.284,0-56.731,25.449-56.731,56.736v15.893c0,11.145-9.068,20.203-20.196,20.203
		h-35.496c-31.286,0-56.742,25.454-56.742,56.738v126.174c0,31.285,25.456,56.739,56.742,56.739h394.375
		c31.254,0,56.682-25.454,56.682-56.739V248.358C853.638,217.074,828.21,191.62,796.956,191.62z M817.142,374.532
		c0,11.14-9.048,20.192-20.186,20.192H402.581c-11.139,0-20.198-9.053-20.198-20.192V248.358c0-11.166,9.06-20.249,20.198-20.249
		h35.496c31.284,0,56.729-25.433,56.729-56.692v-15.893c0-11.139,9.059-20.193,20.198-20.193h169.516
		c11.139,0,20.198,9.055,20.198,20.193v15.893c0,31.26,25.456,56.692,56.741,56.692h35.496c11.138,0,20.186,9.083,20.186,20.249
		V374.532z"/>
	<g>
		<path fill="#FFD224" d="M401.83,579.894h395.876c10.058,0,18.245-8.188,18.245-18.247c0-10.062-8.188-18.246-18.245-18.246H401.83
			c-10.059,0-18.246,8.185-18.246,18.246C383.584,571.705,391.771,579.894,401.83,579.894z"/>
		<path fill="#FFD224" d="M797.706,702.322H401.83c-10.059,0-18.246,8.184-18.246,18.246c0,10.084,8.188,18.287,18.246,18.287
			h395.876c10.058,0,18.245-8.203,18.245-18.287C815.951,710.506,807.764,702.322,797.706,702.322z"/>
		<path fill="#FFD224" d="M797.706,861.233H401.83c-10.059,0-18.246,8.209-18.246,18.299c0,10.063,8.188,18.245,18.246,18.245
			h395.876c10.058,0,18.245-8.183,18.245-18.245C815.951,869.442,807.764,861.233,797.706,861.233z"/>
	</g>
</g>
</svg>
