<?xml version="1.0" encoding="utf-8"?>
<!-- Designed by Vexels.com - 2020 All Rights Reserved - https://vexels.com/terms-and-conditions/  -->
<svg version="1.1" id="Layer_1" xmlns="http://www.w3.org/2000/svg" xmlns:xlink="http://www.w3.org/1999/xlink" x="0px" y="0px"
	 viewBox="0 0 1200 1200" enable-background="new 0 0 1200 1200" xml:space="preserve">
<g>
	<circle fill="none" cx="312.568" cy="347.244" r="64.608"/>
	<path fill="none" d="M1079.941,347.54c5.539-7.704,12.106-20.585,5.128-43.425c-9.579-31.342-55.489-62.231-122.818-82.634
		c-79.966-24.229-181.698-31.903-280.665-19.646c-0.036,0.004-0.076,0.009-0.112,0.013l258.66,266.078l-54.503-56.687
		C950.817,407.391,1050.715,388.16,1079.941,347.54z"/>
	<path fill="#FF7F29" d="M607.922,214.979c-1.054,0.248-2.083,0.551-3.135,0.804L888.051,502.03l95.654,99.307
		c41.701,43.128,40.927,112.592-1.754,154.832l-261.129,258.274c-20.947,20.73-48.559,32.147-77.754,32.147
		c-28.337,0-55.368-10.849-76.122-30.55L148.555,621.558c-21.854-20.754-34.372-49.883-34.372-79.943L97.372,309.18
		c-0.036-28.712,10.377-55.289,29.268-75.729l37.698-40.758c20.851-22.538,50.421-35.467,81.153-35.467l257.331,1.881
		c14.607,0.107,29.013,3.163,42.374,8.718c4.283-1.354,8.537-2.767,12.858-4.036c0,0,52.235-13.469,70.312-16.572l-23.419-24.07
		c-22.323-22.944-52.907-35.991-84.92-36.226L212.378,84.67c-32.643,0-64.052,13.757-86.184,37.734l-45.076,48.837
		C61.11,192.919,50,221.337,50,250.838v299.76c0,31.971,13.28,62.945,36.452,84.993l470.239,447.212
		c22.822,21.709,51.848,32.534,80.839,32.528c29.813,0,59.589-11.435,82.58-34.227l332.437-329.649
		c45.293-44.918,46.116-118.815,1.85-164.682L940.133,467.925l-258.66-266.078C648.326,205.212,607.922,214.979,607.922,214.979z"/>
	<path fill="#FF7F29" d="M182.528,209.51l-37.698,40.764c-14.658,15.844-22.725,36.446-22.725,58.016l16.811,232.435
		c0.036,24.195,9.736,46.775,26.656,62.842l418.391,394.481c16.17,15.342,37.142,23.771,59.105,23.771
		c22.629,0,44.06-8.871,60.339-24.987l261.129-258.268c33.078-32.739,33.683-86.589,1.355-120.024l-95.557-99.204L577.417,223.046
		c-55.776,16.082-107.541,39.545-149.941,71.542c7.388,16.057,11.623,33.853,11.623,52.656c0,69.772-56.759,126.531-126.531,126.531
		s-126.531-56.759-126.531-126.531s56.759-126.531,126.531-126.531c28.567,0,54.863,9.628,76.064,25.654
		c33.448-25.521,71.391-46.122,111.906-62.506l-255.131-1.866C221.653,181.996,198.698,192.028,182.528,209.51z M847.929,602.965
		c6.62,6.421,6.762,16.977,0.327,23.577L595.362,885.624c-3.278,3.36-7.635,5.048-11.99,5.048c-4.204,0-8.418-1.568-11.663-4.722
		c-6.62-6.421-6.762-16.977-0.327-23.577L824.277,603.29C830.724,596.696,841.33,596.549,847.929,602.965z M497.57,785.004
		l252.895-259.082c6.446-6.589,17.053-6.746,23.654-0.326c6.62,6.421,6.761,16.977,0.327,23.577L521.55,808.255
		c-3.278,3.359-7.635,5.047-11.989,5.047c-4.204,0-8.418-1.569-11.665-4.721C491.277,802.16,491.136,791.604,497.57,785.004z"/>
	<path fill="#08175B" d="M245.491,157.227c-30.732,0-60.302,12.929-81.153,35.467l-37.698,40.758
		c-18.891,20.439-29.305,47.017-29.268,75.729l16.811,232.435c0,30.06,12.518,59.19,34.372,79.943l418.391,394.481
		c20.754,19.702,47.785,30.55,76.122,30.55c29.196,0,56.807-11.417,77.754-32.147l261.129-258.274
		c42.681-42.239,43.455-111.703,1.754-154.832l-95.654-99.307L604.786,215.783c-9.222,2.218-18.338,4.659-27.369,7.263
		l292.916,296.291l95.557,99.204c32.328,33.435,31.723,87.285-1.355,120.024L703.407,996.833
		c-16.279,16.116-37.71,24.987-60.339,24.987c-21.963,0-42.935-8.43-59.105-23.771L165.572,603.568
		c-16.92-16.067-26.62-38.647-26.656-62.842l-16.811-232.435c0-21.57,8.067-42.173,22.725-58.016l37.698-40.764
		c16.17-17.482,39.125-27.515,62.878-27.515l255.131,1.866c14.578-5.895,29.481-11.238,44.658-16.036
		c-13.361-5.555-27.767-8.611-42.374-8.718L245.491,157.227z"/>
	<path fill="#08175B" d="M509.562,813.302c4.354,0,8.711-1.688,11.989-5.047l252.895-259.082c6.434-6.6,6.294-17.157-0.327-23.577
		c-6.601-6.421-17.207-6.263-23.654,0.326L497.57,785.004c-6.434,6.6-6.294,17.156,0.327,23.577
		C501.144,811.734,505.357,813.302,509.562,813.302z"/>
	<path fill="#08175B" d="M571.708,885.95c3.246,3.154,7.459,4.722,11.663,4.722c4.355,0,8.712-1.688,11.99-5.048l252.894-259.082
		c6.436-6.6,6.294-17.157-0.327-23.577c-6.599-6.415-17.206-6.269-23.652,0.326L571.382,862.373
		C564.946,868.973,565.088,879.529,571.708,885.95z"/>
	<path fill="#ED2F2F" d="M1144.283,286.022c-16.086-52.647-74.356-96.616-164.084-123.804
		c-98.706-29.906-228.719-37.72-351.833-15.002c-18.076,3.103-70.312,16.572-70.312,16.572c-4.321,1.269-8.575,2.683-12.858,4.036
		c-15.177,4.798-30.08,10.141-44.658,16.036c-40.514,16.384-78.457,36.985-111.906,62.506
		c-21.201-16.026-47.497-25.654-76.064-25.654c-69.772,0-126.531,56.759-126.531,126.531s56.759,126.531,126.531,126.531
		s126.531-56.759,126.531-126.531c0-18.804-4.235-36.6-11.623-52.656c42.4-31.996,94.165-55.459,149.941-71.542
		c9.031-2.604,18.148-5.045,27.369-7.263c1.052-0.252,2.082-0.556,3.135-0.804c0,0,40.404-9.768,73.552-13.132
		c0.036-0.004,0.076-0.009,0.112-0.013c98.968-12.257,200.699-4.583,280.665,19.646c67.329,20.403,113.239,51.292,122.818,82.634
		c6.978,22.84,0.411,35.721-5.128,43.425c-29.226,40.62-129.124,59.851-194.31,63.699l54.503,56.687
		c62.7-8.734,151.311-30.411,190.035-84.169C1150.378,355.716,1155.252,321.918,1144.283,286.022z M312.568,411.852
		c-35.63,0-64.608-28.984-64.608-64.608s28.978-64.608,64.608-64.608s64.608,28.984,64.608,64.608S348.198,411.852,312.568,411.852z
		"/>
</g>
</svg>
