<?xml version="1.0" encoding="utf-8"?>
<!--Designed by Vexels.com - 2017 All Rights Reserved - https://vexels.com/terms-and-conditions/-->
<svg version="1.1" id="Layer_1" xmlns="http://www.w3.org/2000/svg" xmlns:xlink="http://www.w3.org/1999/xlink" x="0px" y="0px"
	 viewBox="0 0 1200 1200" enable-background="new 0 0 1200 1200" xml:space="preserve">
<g>
	<g>
		<path fill="#FFC854" d="M286.147,694.489c-6.71,0-16.905-3.057-33.492-11.689c-0.338,2.285-1.262,4.415-2.726,6.224
			c-6.488,8-17.716,7.016-47.337-9.5c0.637,2.594,0.225,5.432-1.348,7.814c-2.8,4.255-8.364,5.69-12.866,3.295
			c-16.587-8.754-34.074-17.707-50.021-25.591c3.579,2.69,7.17,5.374,10.707,7.994c2.169,1.603,3.585,4.023,3.926,6.7
			c0.338,2.678-0.431,5.374-2.13,7.466c-6.942,8.567-21.247,6.179-52.19-1.294c-3.25,4.383-9.429,5.317-13.813,2.073
			c-9.571-7.054-12.1-9.095-12.709-13.742c-0.348-2.671,0.415-5.4,2.098-7.505c4.808-5.909,9.919-4.673,28.941-0.077
			c1.86,0.451,4.11,0.998,6.559,1.57c-37.486-28.706-37.923-32.143-38.416-36.018c-0.338-2.678,0.483-5.613,2.179-7.704
			c3.73-4.589,6.771-8.322,42.593,7.782l-40.936-33.186c-4.238-3.437-4.892-9.655-1.458-13.896c6.15-7.601,13.607-2.864,24.88,4.319
			c7.103,4.518,16.899,11.045,28.118,18.518c21.707,14.456,59.263,39.481,85.418,54.233c-19.557-15.235-48.437-34.905-68.68-48.692
			c-56.998-38.812-70.466-48.869-71.885-58.514c-0.467-3.189,0.367-6.295,2.353-8.744c3.389-4.184,9.5-4.879,13.748-1.577
			c61.674,47.974,132.986,98.217,171.733,119.412c-21.791-17.359-55.575-41.734-82.821-61.391
			C89.784,540.15,73.13,526.357,71.746,515.949c-0.418-3.144,0.422-6.198,2.365-8.596c2.259-2.784,4.847-4.155,7.962-4.2
			c-3.16-4.348-5.107-8.428-5.77-12.294c-0.895-5.239,0.338-10.112,3.569-14.096c6.102-7.531,17.047-8.371,35.243-1.149
			c0.322-3.225,1.567-6.269,3.666-8.857c6.678-8.242,16.825-6.536,42.735,10.128c0.238-3.257,1.432-6.317,3.508-8.879
			c3.038-3.746,8.332-4.76,12.538-2.381l61.86,34.921c-8.692-5.648-17.578-11.215-26.245-16.439c-4.46-2.69-6.07-8.38-3.678-13.008
			c2.391-4.628,7.949-6.62,12.741-4.518l34.248,14.961c-1.545-3.144-1.368-7.012,0.795-10.076c3.151-4.457,9.307-5.519,13.78-2.369
			c53.767,37.991,54.504,43.304,55.093,47.568c0.373,2.71-0.483,5.88-2.204,8.007c-2.797,3.456-7.566,4.618-11.64,2.835
			l-4.544-1.986c10.997,9.696,18.595,18.556,19.76,25.192c0.727,4.148-0.257,8.142-2.774,11.244
			c-3.032,3.746-8.335,4.76-12.538,2.381l-77.916-43.983c11.489,7.469,22.862,14.572,31.828,20.165
			c47.385,29.582,59.585,38.136,61.201,47.79c0.57,3.398-0.286,6.707-2.407,9.326c-1.889,2.33-4.013,3.881-6.678,4.531
			c5.603,5.973,8.995,11.553,9.973,16.928c0.959,5.265-0.335,10.414-3.646,14.495c-6.292,7.788-13.703,2.176-21.556-3.772
			c-4.898-3.707-11.866-9.133-20.323-15.718c-51.887-40.408-93.418-71.039-124.397-91.764c-1.928-1.258-3.797-2.497-5.606-3.717
			c-28.407-18.669-47.147-28.259-56.052-28.665c8.332,16.081,73.926,56.386,113.96,80.989
			c72.368,44.469,113.477,70.608,116.921,90.747c0.821,4.808-0.36,9.474-3.331,13.137c-4.576,5.645-8.364,7.769-28.636-4.235
			c3.035,3.765,4.499,6.771,4.853,9.436c0.431,3.231-0.428,6.366-2.417,8.818C295.447,691.985,292.219,694.489,286.147,694.489z
			 M155.117,496.312c3.489,2.484,7.305,5.078,11.335,7.73C162.516,501.306,158.712,498.706,155.117,496.312z"/>
	</g>
	<path fill="#FFFFFF" d="M398.036,692.949c-13.11-55.604-23.919-190.041-17.047-215.061c21.282-3.288,43.464-1.296,65.582-0.639
		c50.179,1.493,100.406,5.099,150.522,3.935c44.533-1.035,89.658,3.373,133.627-8.284c2.645-0.701,5.645-0.875,8.344-0.444
		c50.34,8.029,100.344-0.774,150.491-2.661c11.109-0.418,22.292,1.621,33.459,2.166c31.549,1.539,63.105,3.928,94.663,4.015
		c29.898,0.084,59.544,0.198,88.924,6.926c13.469,3.084,22.052,9.439,22.855,23.793c3.433,61.297,11.272,122.586,0.899,183.928
		c-0.733,4.332-3.388,8.339-5.642,13.661c-19.004-0.011-37.525,0.546-56.001-0.132c-68.808-2.525-137.596-5.588-206.401-8.188
		c-50.254-1.899-100.522-3.458-150.789-4.99c-8.35-0.254-16.728,0.635-25.092,0.606c-32.521-0.113-65.046-0.705-97.564-0.492
		c-26.016,0.17-52.023,1.611-78.04,1.836C473.676,693.246,436.523,692.97,398.036,692.949z M675.863,547.194
		c-5.468,5.691-11.894,9.347-11.763,12.751c0.674,17.435,1.049,35.353,5.633,51.97c2.348,8.512,12.27,16.472,20.722,21.164
		c4.815,2.673,13.534-1.953,20.551-2.871c3.427-0.448,7.181-0.656,10.443,0.256c28.357,7.926,43.742-0.842,50.148-29.045
		c4.443-19.56,1.474-38.456-4.558-57.3c-18.994,7.323-19.013,7.532-17.177,22.202c1.263,10.081,2.854,20.231,2.766,30.336
		c-0.067,7.713-3.553,14.469-13.01,14.688c-23.092-14.517-9.851-43.29-23.27-62.204c-15.381,5.732-17.642,16.279-16.401,29.595
		c0.854,9.164,4.955,20.206-8.496,26.899C676.977,589.409,682.558,568.276,675.863,547.194z M598.479,543.14
		c-27.676,8.252-11.277,35.584-21.871,52.6c-14.364-14.38-8.738-33.715-14.654-48.7c-11.453,1.659-14.265,9.722-13.766,16.533
		c1.146,15.622,4.15,31.147,7.064,46.585c2.161,11.452,10.883,14.387,21.124,13.376c10.973-1.084,21.148-2.696,32.432,2.304
		c10.307,4.567,19.589-2.806,25.929-11.798c16.052-22.769,13.414-61.302-6.195-85.22c-11.673,5.954-15.612,13.561-9.622,26.826
		c3.675,8.138,4.779,17.834,5.202,26.916c0.322,6.893-0.307,15.227-11.998,16.653C598.275,583.482,609.962,560.984,598.479,543.14z
		 M442.912,541.112c-4.823,6.131-9.469,9.341-9.921,13.061c-2.39,19.659,0.424,38.978,8.4,57.069
		c5.629,12.768,14.613,16.407,29.571,15.425c6.955-0.456,14.228-0.732,20.95,0.752c23.727,5.242,35.98-2.559,37.944-26.542
		c1.285-15.695,1.128-31.548,0.786-47.312c-0.103-4.742-2.995-9.422-4.753-14.549c-15.586,5.325-20.401,13.964-17.829,28.537
		c1.873,10.607,5.995,22.799-5.128,33.108c-15.014-17.296-11.219-38.186-16.786-58.362c-13.214,3.504-20.065,9.847-19.804,23.26
		c0.202,10.355,2.94,21.351-5.607,33.509C446.429,581.774,455.031,560.507,442.912,541.112z"/>
	<path fill="#D9E9F6" d="M78.572,711.414c16.945,0.009,30.917-1.549,44.419,0.305c49.26,6.764,98.533,2.903,147.818,1.843
		c8.374-0.18,16.817-1.258,25.111-0.545c79.122,6.793,158.122,0.785,237.206-1.043c65.115-1.505,130.318,0.153,195.472,1.086
		c54.89,0.786,109.769,2.48,164.648,3.946c8.273,0.221,16.52,1.392,25.598,5.638c-4.312,1.714-8.56,4.72-12.947,4.94
		c-43.569,2.184-87.149,5.022-130.75,5.515c-74.445,0.844-148.915-0.419-223.364,0.281c-47.389,0.446-94.751,3.652-142.141,4.109
		c-41.665,0.403-83.349-1.342-125.027-2.036c-11.126-0.185-22.396-1.124-33.362,0.218c-50.295,6.157-100.398,3.116-150.475-2.105
		C86.566,732.084,86.617,731.602,78.572,711.414z"/>
	<path fill="#D9E9F6" d="M356.439,693.222c-1.997-8.454-5.347-17.011-5.801-25.719c-0.964-18.527-0.344-37.134-0.518-55.706
		c-0.295-31.573-0.737-63.144-1.046-94.717c-0.107-11.038-0.006-22.079,4.322-33.913c1.598,4.448,4.243,8.805,4.633,13.356
		c5,58.266,9.726,116.556,14.387,174.851C373.213,681.338,375.418,692.59,356.439,693.222z"/>
	<g>
		<path fill="#FFFFFF" d="M175.602,600.536c-21.09,5.947-25.943,36.851-54.219,31.87c-5.88-29.95,30.441-32.583,35.319-57.156
			c-12.631-15.674-11.556-34.074-2.71-53.202c10.7-23.135,36.091-35.325,60.058-28.084c25.818,7.799,51.418,44.214,50.167,71.358
			c-1.52,32.96-32.212,55.114-64.527,46.011C191.844,609.122,184.632,604.66,175.602,600.536z M240.298,568.793
			c-0.392-24.307-20.049-46.667-39.45-49.883c-10.136-1.679-24.61,5.62-30.238,15.288c-5.455,9.374-2.532,18.248,3.235,25.725
			c6.673,8.651,13.94,17.262,22.48,23.933c7.908,6.177,18.659,11.301,28.046,4.082C231.803,582.224,236.727,573.246,240.298,568.793
			z"/>
	</g>
	<g>
		<path fill="#370F1F" d="M1146.406,467.779c1.125,36.511,2.497,67.942,2.962,99.388c0.605,40.97,0.602,81.951,0.632,122.927
			c0.014,18.132-0.496,36.058-22.296,43.452c-4.073,1.381-7.106,5.894-10.555,9.031c-11.466,10.428-21.898,15.574-39.587,9.308
			c-17.735-6.282-38.479-4.58-57.945-5.322c-19.502-0.743-39.058-0.382-58.585-0.146c-32.514,0.392-65.344-1.588-97.457,2.279
			c-43.696,5.262-87.356,5.581-131.109,6.215c-34.383,0.498-69.102,3.305-103.09-0.339c-54.92-5.89-109.454,3.577-164.317-0.328
			c-33.153-2.359-66.828,3.119-100.292,4.463c-18.583,0.745-37.28,1.223-55.814,0.052c-27.932-1.766-55.383-0.766-83.419,1.615
			c-37.748,3.206-76.186-1.214-114.297-2.997c-18.36-0.859-36.652-3.176-52.822-4.637c-2.609-15.384-4.874-28.727-7.131-42.072
			c-0.464-2.742-1.346-5.499-1.28-8.231c1.408-58.654,2.924-117.305,4.421-175.957c0.356-13.971,0.67-27.943,1.079-41.913
			c0.979-33.459,10.157-43.891,42.83-45.724c15.7-0.881,31.63-0.01,47.309,1.55c36.091,3.589,71.913,6.785,108.477,4.307
			c29.531-2.001,59.478,2.069,89.237,3.512c58.638,2.842,117.251,6.418,175.918,8.349c37.199,1.224,74.478-0.02,111.722-0.041
			c6.489-0.004,12.981,0.55,19.469,0.884c9.302,0.478,18.951,2.853,27.85,1.191c69.183-12.922,139.591,1.693,208.796-9.733
			c6.365-1.051,13.026-0.629,19.535-0.435c57.719,1.722,115.501,2.431,173.117,5.894
			C1102.52,455.688,1124.903,463.255,1146.406,467.779z M398.036,692.949c38.487,0.022,75.64,0.297,112.789-0.024
			c26.017-0.225,52.024-1.666,78.04-1.836c32.519-0.213,65.043,0.379,97.564,0.492c8.364,0.029,16.742-0.861,25.092-0.606
			c50.267,1.532,100.535,3.091,150.789,4.99c68.806,2.6,137.594,5.664,206.401,8.188c18.476,0.678,36.997,0.121,56.001,0.132
			c2.254-5.321,4.91-9.329,5.642-13.661c10.373-61.342,2.534-122.631-0.899-183.928c-0.803-14.354-9.387-20.709-22.855-23.793
			c-29.38-6.728-59.026-6.843-88.924-6.926c-31.559-0.088-63.114-2.476-94.663-4.015c-11.167-0.545-22.35-2.584-33.459-2.166
			c-50.147,1.886-100.151,10.69-150.491,2.661c-2.699-0.43-5.699-0.257-8.344,0.444c-43.969,11.657-89.094,7.249-133.627,8.284
			c-50.117,1.165-100.343-2.442-150.522-3.935c-22.118-0.658-44.3-2.649-65.582,0.639
			C374.117,502.907,384.927,637.345,398.036,692.949z M321.972,473.878c-24.509-1.743-46.615-3.778-68.769-4.776
			c-29.662-1.336-59.36-1.9-89.045-2.737c-22.308-0.629-44.639-2.006-66.92-1.449c-15.092,0.377-19.29,5.289-22.459,19.758
			c-1.192,5.442-2.628,10.989-2.677,16.5c-0.45,51.116-0.685,102.235-0.781,153.352c-0.011,5.526,0.614,11.225,2.049,16.546
			c2.91,10.792,8.714,17.913,21.679,16.919c10.154-0.778,20.443,0.204,30.672,0.405c52.989,1.035,105.976,2.338,158.97,2.914
			c12.83,0.14,25.687-2.12,41.265-3.522C326.283,615.951,330.082,545.044,321.972,473.878z M78.572,711.414
			c8.046,20.188,7.995,20.67,22.207,22.152c50.077,5.221,100.18,8.262,150.475,2.105c10.967-1.343,22.236-0.403,33.362-0.218
			c41.678,0.694,83.362,2.439,125.027,2.036c47.389-0.457,94.752-3.664,142.141-4.109c74.449-0.7,148.919,0.563,223.364-0.281
			c43.601-0.494,87.181-3.331,130.75-5.515c4.388-0.22,8.635-3.226,12.947-4.94c-9.078-4.246-17.326-5.416-25.598-5.638
			c-54.879-1.466-109.758-3.16-164.648-3.946c-65.154-0.933-130.357-2.591-195.472-1.086c-79.084,1.828-158.085,7.836-237.206,1.043
			c-8.293-0.712-16.736,0.365-25.111,0.545c-49.285,1.06-98.558,4.921-147.818-1.843C109.488,709.865,95.516,711.423,78.572,711.414
			z M356.439,693.222c18.978-0.631,16.774-11.884,15.978-21.849c-4.661-58.294-9.387-116.584-14.387-174.851
			c-0.39-4.551-3.036-8.909-4.633-13.356c-4.328,11.835-4.429,22.875-4.322,33.913c0.309,31.573,0.751,63.144,1.046,94.717
			c0.174,18.572-0.446,37.179,0.518,55.706C351.092,676.21,354.442,684.767,356.439,693.222z"/>
	</g>
	<path fill="#370F1F" d="M675.863,547.194c6.694,21.082,1.114,42.215,15.587,58.441c13.451-6.694,9.35-17.735,8.496-26.899
		c-1.24-13.316,1.021-23.863,16.401-29.595c13.418,18.914,0.178,47.687,23.27,62.204c9.457-0.219,12.943-6.975,13.01-14.688
		c0.088-10.105-1.503-20.255-2.766-30.336c-1.837-14.67-1.818-14.879,17.177-22.202c6.033,18.844,9.001,37.74,4.558,57.3
		c-6.406,28.203-21.79,36.971-50.148,29.045c-3.263-0.911-7.017-0.704-10.443-0.256c-7.017,0.918-15.736,5.544-20.551,2.871
		c-8.452-4.692-18.374-12.653-20.722-21.164c-4.584-16.617-4.959-34.535-5.633-51.97
		C663.969,556.542,670.395,552.886,675.863,547.194z"/>
	<path fill="#370F1F" d="M598.479,543.14c11.483,17.844-0.204,40.342,13.646,56.075c11.691-1.426,12.32-9.76,11.998-16.653
		c-0.423-9.082-1.527-18.777-5.202-26.916c-5.99-13.264-2.051-20.871,9.622-26.826c19.609,23.918,22.247,62.451,6.195,85.22
		c-6.339,8.991-15.622,16.365-25.929,11.798c-11.284-5-21.459-3.388-32.432-2.304c-10.241,1.011-18.963-1.924-21.124-13.376
		c-2.914-15.439-5.918-30.963-7.064-46.585c-0.499-6.81,2.313-14.874,13.766-16.533c5.915,14.985,0.289,34.32,14.654,48.7
		C587.202,578.724,570.803,551.393,598.479,543.14z"/>
	<path fill="#370F1F" d="M442.912,541.112c12.119,19.394,3.518,40.662,17.822,57.957c8.546-12.158,5.809-23.154,5.607-33.509
		c-0.26-13.413,6.59-19.756,19.804-23.26c5.567,20.175,1.772,41.066,16.786,58.362c11.123-10.309,7.001-22.501,5.128-33.108
		c-2.572-14.574,2.243-23.212,17.829-28.537c1.758,5.127,4.65,9.808,4.753,14.549c0.342,15.764,0.499,31.617-0.786,47.312
		c-1.963,23.982-14.217,31.783-37.944,26.542c-6.722-1.484-13.994-1.208-20.95-0.752c-14.958,0.981-23.942-2.657-29.571-15.425
		c-7.976-18.091-10.79-37.411-8.4-57.069C433.443,550.453,438.089,547.243,442.912,541.112z"/>
	<path fill="#370F1F" d="M1061.798,534.645c18.03,10.572,32.981,23.866,37.435,45.693c0.878,4.307,1.996,10.521-0.215,13.181
		c-12.979,15.618-26.803,30.547-40.703,45.369c-1.302,1.388-5.116,0.419-10.912,0.694c-1.282-8.941-3.379-17.664-3.614-26.437
		c-0.471-17.633,0.047-35.293,0.207-52.941C1044.108,547.828,1044.145,547.828,1061.798,534.645z"/>
</g>
</svg>
