<?xml version="1.0" encoding="utf-8"?>
<!-- Designed by Vexels.com - 2018 All Rights Reserved - https://vexels.com/terms-and-conditions/  -->
<svg version="1.1" id="Layer_1" xmlns="http://www.w3.org/2000/svg" xmlns:xlink="http://www.w3.org/1999/xlink" x="0px" y="0px"
	 viewBox="0 0 1200 1200" enable-background="new 0 0 1200 1200" xml:space="preserve">
<g>
	<path d="M1077.677,827.865c-34.469,0-63.339,24.256-70.555,56.582h-356.33c-6.082-27.251-27.558-48.725-54.811-54.804V683.707
		l266.105,1.188c0.245,0,0.491,0,0.726,0c37.073,0,71.725-12.346,97.664-34.811c5.466-4.739,10.228-9.549,14.561-14.705
		c10.814-12.885,18.351-27.349,23.047-44.21c15.212-54.624,1.281-133.341-54.495-171.637
		c-37.427-25.678-87.279-31.913-129.989-17.55c-6.201-97.27-87.31-174.498-186.117-174.498c-69.249,0-131.911,38.372-164.042,98.012
		c-21.862-19.022-56-30.877-72.163-33.13c-96.587-13.434-171.824,16.301-223.565,88.427c-47.846,66.675-65,175.629-2.563,246.234
		c5.85,6.607,12.308,12.921,19.215,18.777c27.584,23.372,64.605,36.348,104.231,36.53l275.894,1.232v146.077
		c-27.249,6.08-48.721,27.553-54.801,54.804H192.869c-7.214-32.326-36.076-56.582-70.545-56.582
		C82.441,827.865,50,860.312,50,900.193c0,39.881,32.441,72.322,72.323,72.322c34.469,0,63.332-24.252,70.545-56.577h316.821
		c7.214,32.324,36.076,56.577,70.545,56.577c34.47,0,63.34-24.252,70.556-56.577h356.33c7.216,32.324,36.086,56.577,70.555,56.577
		c39.883,0,72.323-32.441,72.323-72.322C1150,860.312,1117.559,827.865,1077.677,827.865z M122.323,939.765
		c-21.821,0-39.572-17.753-39.572-39.572c0-21.825,17.752-39.578,39.572-39.578c21.82,0,39.571,17.753,39.571,39.578
		C161.895,922.013,144.143,939.765,122.323,939.765z M564.49,936.456c-9.165-3.996-16.52-11.353-20.518-20.517h20.518V936.456z
		 M564.49,884.447h-20.518c3.995-9.169,11.353-16.526,20.518-20.522V884.447z M288.745,649.582
		c-31.939-0.144-61.487-10.36-83.2-28.764c-5.711-4.846-11.048-10.061-15.862-15.489c-51.187-57.891-35.815-149.054,4.632-205.439
		c37.49-52.249,87.77-77.954,152.983-77.954c12.586,0,25.748,0.961,39.465,2.872c22.78,3.17,61.647,23.72,63.804,36.609
		c1.238,7.388,7.334,12.997,14.795,13.622c7.334,0.607,14.401-3.907,16.846-11.001c21.339-62.086,79.731-103.803,145.275-103.803
		c84.78,0,153.751,68.971,153.751,153.751c0,4.67-0.299,9.271-0.715,13.84c-0.459,5.055,1.451,10.039,5.177,13.488
		c3.726,3.458,8.903,4.964,13.845,4.142c8.369-1.408,12.799-4.841,15.02-8.727c35.004-15.761,78.568-12.1,110.497,9.805
		c41.675,28.614,53.812,91.543,41.471,135.854c-3.406,12.261-8.828,22.701-16.578,31.929c-3.203,3.816-6.779,7.424-10.921,11.016
		c-20.112,17.422-47.535,27.029-76.795,26.811L288.745,649.582z M595.981,936.459v-20.52h20.528
		C612.511,925.106,605.151,932.464,595.981,936.459z M595.981,884.447v-20.526c9.172,3.995,16.534,11.355,20.528,20.526H595.981z
		 M1077.677,939.765c-21.829,0-39.582-17.753-39.582-39.572c0-21.825,17.753-39.578,39.582-39.578
		c21.82,0,39.572,17.753,39.572,39.578C1117.249,922.013,1099.496,939.765,1077.677,939.765z"/>
	<g>
		<path fill="#84AFA9" d="M580.239,853.011c-26.014,0-47.179,21.165-47.179,47.179c0,26.015,21.165,47.18,47.179,47.18
			c26.015,0,47.18-21.165,47.18-47.18C627.419,874.176,606.254,853.011,580.239,853.011z"/>
	</g>
</g>
</svg>
