<?xml version="1.0" encoding="utf-8"?>
<!--Designed by Vexels.com - 2017 All Rights Reserved - https://vexels.com/terms-and-conditions/-->
<svg version="1.1" id="Layer_1" xmlns="http://www.w3.org/2000/svg" xmlns:xlink="http://www.w3.org/1999/xlink" x="0px" y="0px"
	 viewBox="0 0 1200 1200" enable-background="new 0 0 1200 1200" xml:space="preserve">
<g>
	<g>
		<path fill="#62BDDA" d="M1028.677,340.583c-1.286,0-2.354-0.341-3.778-0.795c-3.185-1.023-5.856-3.303-7.361-6.29
			c-3.595-7.15-3.595-7.15,21.564-47.234c0.008-0.008,0.016-0.024,0.024-0.032c-15.956,8.473-17.993,8.814-22.972,7.231
			c-3.214-1.006-5.949-3.327-7.462-6.338c-1.039-2.037-1.039-2.037-4.411-22.14c-0.321-1.899-0.678-4.025-1.043-6.2
			c-2.63,1.388-5.312,2.808-7.722,4.09c-27.419,14.535-27.419,14.535-33.112,12.725c-3.194-1.023-5.876-3.303-7.381-6.298
			c-3.1-6.144-0.629-13.643,5.519-16.743c0.832-0.414,1.684-0.73,2.548-0.95c3.348-1.534,13.707-7.028,20.744-10.761
			c26.855-14.251,26.855-14.219,32.52-12.425c3.198,1.031,5.88,3.319,7.381,6.322c1.104,2.191,1.124,2.232,5.133,26.116
			c0.134,0.787,0.264,1.583,0.398,2.362c3.766-2.013,7.742-4.163,11.05-5.949c28.409-15.371,29.509-15.98,35.588-14.04
			c3.218,1.014,5.949,3.336,7.458,6.355c3.575,7.093,3.648,7.239-21.551,47.396c20.703-10.843,21.385-10.624,26.336-9.041
			c3.189,1.023,5.859,3.303,7.365,6.29c3.1,6.144,0.625,13.643-5.523,16.743c-0.828,0.414-1.684,0.73-2.548,0.95
			c-3.75,1.696-16.183,8.246-25.427,13.123C1038.432,337.483,1032.556,340.583,1028.677,340.583z M1073.273,305.498
			c0.925,1.826,2.175,3.23,3.579,4.285C1075.395,308.68,1074.157,307.235,1073.273,305.498z M973.287,253.468
			c1.627,1.136,3.007,2.67,3.973,4.561C976.245,256.041,974.849,254.54,973.287,253.468z"/>
		<path fill="#62BDDA" d="M269.787,310.327c-1.441,0-2.565-0.357-3.969-0.795c-3.214-1.014-6.006-3.376-7.519-6.387
			c-3.092-6.152-0.613-13.643,5.539-16.735c1.396-0.706,2.865-1.12,4.33-1.266c6.809-2.784,30.767-15.72,48.54-25.321
			c54.647-29.509,55.163-29.346,61.692-27.277c3.21,1.006,5.998,3.36,7.511,6.371c3.1,6.144,0.629,13.643-5.519,16.743
			c-1.372,0.69-2.812,1.104-4.257,1.258c-6.667,2.743-30.158,15.428-47.583,24.842C284.752,305.417,275.131,310.327,269.787,310.327
			z"/>
		<path fill="#62BDDA" d="M233.716,302.171c-1.424,0-2.556-0.349-3.973-0.795c-3.218-1.006-6.01-3.368-7.527-6.371
			c-3.1-6.152-0.629-13.643,5.519-16.743c1.363-0.69,2.792-1.104,4.224-1.266c6.119-2.548,26.413-13.553,41.484-21.726
			c48.138-26.108,48.658-25.962,55.073-23.941c3.218,1.006,6.006,3.368,7.519,6.379c3.096,6.152,0.617,13.643-5.535,16.735
			c-1.343,0.674-2.751,1.088-4.163,1.25c-6.046,2.532-26.104,13.407-41.005,21.49C247.424,297.74,238.748,302.171,233.716,302.171z"
			/>
		<path fill="#62BDDA" d="M203.566,354.501c-1.209,0-2.427-0.227-3.835-0.674c-3.218-1.014-5.904-3.303-7.414-6.322
			c-4.683-9.301-4.821-9.568,41.443-55.171c-38.079,20.452-38.444,20.338-44.413,18.455c-3.206-1.014-5.937-3.327-7.45-6.33
			c-3.096-6.152-0.621-13.643,5.527-16.743c1.092-0.552,2.228-0.925,3.372-1.128c5.328-2.321,23.982-12.352,39.15-20.508
			c59.849-32.187,60.539-31.944,67.275-29.85c3.21,1.014,6.01,3.392,7.523,6.395c4.963,9.861,4.963,9.861-49.234,63.278
			c-7.377,7.272-15.996,15.761-23.471,23.252c2.159,5.876-0.398,12.571-6.131,15.436c-0.641,0.317-1.299,0.576-1.964,0.779
			c-1.493,0.73-4.042,2.126-6.549,3.482C210.242,352.716,206.939,354.501,203.566,354.501z M201.473,289.673
			c1.063,0.982,1.972,2.159,2.666,3.522C203.42,291.783,202.503,290.614,201.473,289.673z"/>
		<path fill="#62BDDA" d="M154.434,358.234c-1.278,0-2.382-0.357-3.924-0.852c-3.185-1.031-5.843-3.311-7.345-6.306
			c-4.675-9.284-5.158-10.242,40.92-51.762c-17.599,9.008-18.958,8.578-23.507,7.126c-3.198-1.014-5.92-3.327-7.43-6.322
			c-3.096-6.152-0.621-13.643,5.527-16.743c1.148-0.576,2.345-0.958,3.551-1.161c5.9-2.5,27.5-14,43.512-22.521
			c50.208-26.733,50.208-26.717,56.717-24.664c3.202,1.023,5.92,3.336,7.43,6.338c4.987,9.893,4.987,9.893-51.332,60.478
			c-9.893,8.887-21.511,19.324-31.428,28.397l3.924,10.583c-1.489,0.649-8.485,4.326-13.594,7.004
			C162.034,355.938,157.676,358.234,154.434,358.234z"/>
		<path fill="#62BDDA" d="M120.628,317.429c-1.4,0-2.512-0.349-3.92-0.795c-3.202-1.014-5.941-3.344-7.45-6.346
			c-3.096-6.144-0.621-13.643,5.531-16.735c1.23-0.617,2.512-1.014,3.802-1.201c6.391-2.67,29.988-15.266,47.477-24.607
			c54.465-29.087,54.737-29.038,61.233-26.96c3.202,1.014,5.941,3.344,7.45,6.346c3.096,6.144,0.617,13.643-5.531,16.735
			c-1.234,0.617-2.52,1.014-3.814,1.201c-6.403,2.67-30.061,15.306-47.595,24.672C135.005,312.592,125.826,317.429,120.628,317.429z
			"/>
		<path fill="#62BDDA" d="M79.067,386.404c-1.319,0-2.41-0.349-3.851-0.812c-3.202-1.023-5.892-3.327-7.397-6.33
			c-3.007-5.981-3.007-5.981,11.646-39.045c0.353-0.795,0.722-1.631,1.1-2.483c-0.641-0.114-1.303-0.276-2.005-0.495
			c-3.238-1.014-5.973-3.327-7.491-6.363c-3.031-6.03-3.031-6.03,12.941-39.629c1.075-2.264,2.248-4.731,3.457-7.288
			c-1.574,0.162-3.003-0.097-4.784-0.665c-3.21-1.006-5.908-3.287-7.426-6.29c-3.104-6.144-0.641-13.643,5.502-16.751
			c0.755-0.381,1.526-0.674,2.309-0.893c2.07-0.998,6.992-3.652,10.38-5.486c15.205-8.213,17.161-9.276,22.712-7.507
			c3.218,1.014,5.916,3.311,7.426,6.33c3.275,6.476,3.275,6.476-17.059,49.254c-0.053,0.114-0.11,0.227-0.162,0.341
			c0.317,0.081,0.645,0.17,0.982,0.276c3.238,1.006,5.965,3.319,7.483,6.355c2.983,5.916,3.072,6.087-11.224,38.355
			c36.638-19.47,36.647-19.478,42.729-17.546c1.741,0.552,3.336,1.485,4.671,2.703c1.911,1.461,9.926,7.044,15.842,11.167
			c6.48,4.512,11.05,7.694,14.316,10.023c7.32-3.66,20.488-10.705,30.779-16.207c46.974-25.126,47.213-25.045,53.592-23.032
			c3.202,1.023,5.945,3.352,7.454,6.355c0.333,0.657,0.414,0.82,8.209,19.372c1.522,3.62,3.064,7.296,4.419,10.518
			c22.067-10.023,78.702-40.319,121.785-63.36c128.119-68.529,129.543-68.099,137.42-65.583c3.202,1.014,6.071,3.433,7.58,6.436
			c5.429,10.786,5.584,11.078-67.977,65.737c130.513-69.73,132.404-69.13,140.309-66.63c3.202,1.014,6.103,3.465,7.613,6.468
			c5.222,10.38,5.409,10.761-61.562,66.655c6.346-3.392,12.648-6.76,18.731-10.015c136.287-72.879,138.446-72.181,146.465-69.665
			c3.202,1.014,6.135,3.482,7.645,6.484c5.49,10.908,5.929,11.792-61.469,62.321c2.09-1.12,4.163-2.24,6.213-3.336
			c125.68-67.612,127.596-66.987,135.573-64.488c3.21,1.014,6.148,3.482,7.657,6.493c5.324,10.55,5.324,10.55-65.587,69.958
			c-1.652,1.38-3.34,2.792-5.056,4.228c14.702-7.832,29.712-15.907,43.253-23.195c109.506-58.912,110.719-58.596,118.384-56.145
			c3.206,1.006,6.071,3.417,7.584,6.42c5.397,10.737,5.454,10.867-63.473,70.258c79.534-42.786,80.451-42.47,87.467-40.246
			c3.21,1.006,6.034,3.392,7.552,6.395c3.806,7.58,3.806,7.58-25.703,48.556c-0.54,0.755-1.096,1.526-1.66,2.313
			c25.909-13.707,26.587-13.472,31.943-11.768c1.98,0.633,3.77,1.761,5.206,3.23c1.887,1.631,9.897,7.864,15.805,12.466
			c5.957,4.634,10.222,7.962,13.314,10.404c2.881-1.51,6.265-3.319,8.939-4.748c20.229-10.835,21.45-11.451,27.058-9.698
			c3.202,1.014,5.892,3.303,7.406,6.298c3.1,6.144,0.633,13.643-5.515,16.743c-0.803,0.406-1.631,0.714-2.467,0.941
			c-2.662,1.242-9.828,5.08-14.722,7.694c-19.579,10.486-20.752,11.11-26.319,9.341c-2.049-0.641-3.887-1.81-5.34-3.352
			c-2.151-1.867-11.439-9.098-17.668-13.951c-5.072-3.952-8.793-6.85-11.553-9.033c-6.963,3.49-18.658,9.706-27.167,14.227
			c-34.825,18.512-34.829,18.496-40.725,16.621c-3.198-1.014-5.888-3.311-7.393-6.306c-3.904-7.742-3.989-7.905,28.438-52.955
			c-12.088,6.403-25.187,13.456-36.626,19.608c-81.506,43.857-82.419,43.557-89.549,41.325c-3.206-1.006-6.038-3.401-7.552-6.403
			c-5.462-10.851-5.543-11.021,64.914-71.735c-9.702,5.202-19.482,10.461-28.766,15.46
			c-119.691,64.39-125.619,66.119-133.849,63.514c-3.21-1.014-6.156-3.49-7.669-6.493c-5.438-10.802-5.616-11.159,67.604-72.514
			c-14.284,7.621-28.786,15.42-41.926,22.489c-117.65,63.295-119.265,62.783-126.918,60.365c-3.21-1.014-6.099-3.449-7.613-6.452
			c-5.632-11.192-6.002-11.914,66.241-66.038c-10.526,5.608-20.914,11.159-30.617,16.353
			c-108.357,57.946-109.132,57.67-116.57,55.341c-3.202-1.014-6.006-3.392-7.515-6.395c-5.344-10.615-5.421-10.786,66.301-70.623
			c-16.438,8.7-33.352,17.741-48.54,25.857c-112.829,60.284-113.783,59.983-121.286,57.589c-3.202-1.014-6.018-3.392-7.527-6.395
			c-5.352-10.64-6.111-12.141,63.015-63.79c-3.372,1.802-6.708,3.587-9.99,5.348c-134.392,71.881-136.227,71.272-144.099,68.773
			c-3.202-1.014-6.099-3.457-7.613-6.46c-0.385-0.763-0.832-1.794-9.236-21.791c-1.014-2.418-2.021-4.813-2.954-7.028
			c-8.866,4.512-21.856,11.459-31.558,16.653c-41.812,22.367-41.784,22.359-48.033,20.379c-1.81-0.576-3.465-1.558-4.837-2.849
			c-2.212-1.721-11.8-8.4-18.232-12.88c-5.105-3.555-8.875-6.176-11.683-8.173c-6.61,3.311-17.81,9.268-25.946,13.594
			C89.394,383.077,83.141,386.404,79.067,386.404z M1021.799,334.155c1.169,2.297,2.841,3.936,4.695,5.032
			C1024.55,338.026,1022.902,336.322,1021.799,334.155z M92.232,260.196c1.871,0.917,3.768,2.313,4.768,4.115v-0.008
			C96,262.396,94.026,261.057,92.232,260.196z"/>
	</g>
	<g>
		<path fill="#B1D6E8" d="M893.038,717.899c-1.453,0-2.569-0.349-3.924-0.779c-3.21-1.014-6.014-3.384-7.527-6.387
			c-4.906-9.763-4.987-9.917,48.982-57.524c-6.874,3.644-13.638,7.231-19.989,10.607c-97.409,51.705-97.961,51.519-105.265,49.181
			c-3.194-1.014-5.969-3.368-7.475-6.363c-4.675-9.252-4.995-9.893,40.38-54.643c-2.865,1.534-5.669,3.027-8.375,4.48
			c-64.634,34.573-64.755,34.492-71.552,32.357c-3.202-1.023-5.953-3.352-7.462-6.355c-2.366-4.699-2.366-4.699,5.421-34.565
			c1.55-5.941,3.518-13.496,5.093-19.737c-0.556-0.682-1.043-1.42-1.445-2.216c-3.125-6.127-0.69-13.634,5.446-16.767
			c0.491-0.243,0.994-0.463,1.501-0.641c0.195-0.122,0.398-0.243,0.605-0.365c2.938-1.769,6.963-4.188,12.405-2.589
			c3.331,0.966,6.14,3.303,7.694,6.411c2.52,5.016,2.52,5.016-7.174,42.194c-0.028,0.122-0.061,0.243-0.093,0.365
			c11.317-5.908,25.354-13.423,37.807-20.078c76.353-40.838,77.25-40.587,84.148-38.387c3.202,1.014,6.006,3.392,7.515,6.395
			c4.719,9.349,4.732,9.374-42.863,56.25c10.692-5.64,21.689-11.476,32-16.954c98.85-52.468,99.596-52.184,106.791-49.92
			c3.198,1.023,5.977,3.384,7.487,6.379c4.776,9.495,5.291,10.518-43.569,53.767c29.314-15.623,30.207-15.331,35.624-13.61
			c3.21,1.006,5.941,3.327,7.454,6.33c3.096,6.152,0.621,13.643-5.531,16.743c-1.14,0.576-2.325,0.958-3.522,1.161
			c-5.77,2.475-26.514,13.618-43.37,22.667C909.59,712.527,898.723,717.899,893.038,717.899z M990.447,656.025
			c0.621,1.209,1.384,2.24,2.244,3.1C991.811,658.241,991.048,657.202,990.447,656.025z"/>
	</g>
	<g>
		<path fill="#E75345" d="M345.101,693.479c-1.234,0-2.451-0.243-3.871-0.69c-3.226-1.014-5.929-3.319-7.442-6.338
			c-1.242-2.451-1.242-2.451-4.792-28.924c-0.203-1.534-0.426-3.173-0.649-4.837c-15.063,7.945-16.118,8.375-21.279,6.744
			l3.77-11.881l11.102-5.657l-11.115,5.649l-4.33-11.638c1.647-0.714,6.46-3.279,11.431-5.908
			c17.583-9.292,18.634-9.869,24.071-8.116c3.194,1.023,5.855,3.303,7.357,6.306c1.173,2.337,1.173,2.337,4.354,26.027
			c0.321,2.386,0.67,5.007,1.023,7.604c6.691-3.498,9.26-4.171,13.634-2.808c3.218,1.006,5.916,3.279,7.438,6.29
			c3.112,6.135,0.657,13.643-5.482,16.751c-0.682,0.349-1.38,0.625-2.082,0.836c-1.587,0.771-4.338,2.289-7.142,3.814
			C352.275,691.499,348.635,693.479,345.101,693.479z"/>
		<path fill="#E75345" d="M306.75,710.23c-1.242,0-2.435-0.268-3.879-0.73c-3.202-1.023-5.876-3.311-7.381-6.314
			c-1.436-2.841-1.465-2.897-3.672-32.934c-0.073-0.966-0.146-1.956-0.219-2.962c-0.256,0.138-0.507,0.276-0.751,0.406
			c-21.068,11.265-21.912,11.719-27.525,9.926c-3.202-1.006-5.892-3.295-7.406-6.29c-0.556-1.12-0.653-1.315-8.091-22.31
			c-0.84-2.37-1.676-4.731-2.463-6.955c-0.515,0.268-1.014,0.536-1.485,0.787c-16.089,8.513-17.047,9.017-22.408,7.312
			c-3.194-1.023-5.855-3.303-7.357-6.306c-3.076-6.16-0.58-13.643,5.576-16.727c0.588-0.292,1.193-0.536,1.802-0.73
			c1.988-0.941,6.294-3.246,10.729-5.592c17.449-9.228,18.492-9.779,23.909-8.035c3.198,1.023,5.864,3.303,7.365,6.306
			c0.523,1.039,0.605,1.209,7.836,21.612c0.925,2.621,1.854,5.243,2.727,7.702c1.761-0.941,3.502-1.867,5.032-2.686
			c20.715-11.078,21.539-11.524,27.147-9.731c3.206,1.014,5.896,3.311,7.402,6.322c1.315,2.605,1.315,2.605,3.043,26.125
			c0.215,2.946,0.467,6.346,0.718,9.723c8.582-4.504,10.664-5.08,15.241-3.603l-3.778,11.881l-10.388,5.194l10.388-5.194
			l4.399,11.605c-1.384,0.609-4.999,2.565-8.773,4.569C313.965,708.209,310.163,710.23,306.75,710.23z"/>
	</g>
	<g>
		<path fill="#E75345" d="M495.599,699.201c-1.254,0-2.443-0.276-3.904-0.73c-3.202-1.014-5.892-3.295-7.406-6.29
			c-0.661-1.315-0.698-1.396-6.497-19.973c-0.58-1.858-1.161-3.733-1.721-5.527c-1.932,1.023-3.847,2.053-5.523,2.946
			c-21.129,11.33-21.949,11.768-27.589,10.015c-3.198-1.006-5.888-3.279-7.41-6.265c-2.017-4.034-2.017-4.034,1.838-35.028
			c0.154-1.242,0.317-2.556,0.483-3.887c-0.041,0.016-0.077,0.041-0.118,0.057c-23.394,12.441-23.398,12.441-28.969,10.664
			c-3.194-1.014-5.872-3.287-7.381-6.282c-3.104-6.144-0.637-13.643,5.511-16.743c0.759-0.39,1.542-0.682,2.333-0.901
			c2.796-1.307,10.814-5.567,16.804-8.749c24.331-12.945,24.798-13.188,30.471-11.37c3.202,1.023,5.884,3.319,7.389,6.322
			c1.964,3.871,1.964,3.871-1.781,33.972c-0.187,1.51-0.385,3.108-0.588,4.74c18.877-10.112,20.293-10.672,25.759-8.935
			c3.21,1.014,5.908,3.319,7.414,6.33c0.641,1.274,0.694,1.38,6.882,21.215c0.43,1.38,0.86,2.759,1.278,4.098
			c0.077-0.041,0.154-0.081,0.227-0.122c14.292-7.661,16.13-8.668,21.547-6.955c3.206,1.006,5.884,3.279,7.401,6.273
			c3.112,6.135,0.657,13.643-5.486,16.751c-0.67,0.341-1.355,0.617-2.053,0.828c-1.919,0.909-5.705,2.97-9.617,5.072
			C503.114,697.05,499.101,699.201,495.599,699.201z M419.201,622.75c1.826,1.152,3.376,2.8,4.431,4.869
			C422.517,625.429,420.95,623.838,419.201,622.75z"/>
	</g>
	<g>
		<path fill="#E75345" d="M425.499,710.027c-1.254,0-2.471-0.26-3.916-0.722c-3.222-1.031-5.916-3.344-7.414-6.379
			c-1.757-3.449-1.757-3.449,0.292-29.152c0.126-1.558,0.26-3.246,0.398-4.991c-26.697,14.113-26.745,14.089-32.406,12.279
			c-3.198-1.031-5.876-3.319-7.377-6.322c-0.674-1.339-0.674-1.339-6.724-21.523c-1.067-3.563-2.276-7.613-3.417-11.394
			c-0.179,0.097-0.357,0.195-0.536,0.284c-18.248,9.674-19.336,10.258-24.818,8.513c-3.198-1.023-5.872-3.311-7.373-6.314
			c-3.076-6.16-0.58-13.643,5.576-16.727c0.686-0.341,1.392-0.617,2.102-0.82c2.321-1.104,8.566-4.415,12.835-6.679
			c17.104-9.065,18.126-9.593,23.523-7.913c3.189,1.014,5.855,3.279,7.369,6.257c0.755,1.501,0.848,1.688,8.623,27.634
			c0.572,1.907,1.136,3.79,1.672,5.584c3.405-1.785,7.004-3.685,9.999-5.275c23.036-12.19,23.049-12.206,28.527-10.453
			c3.189,1.014,5.855,3.279,7.365,6.265c1.895,3.79,1.895,3.79-0.483,33.575c-0.016,0.179-0.028,0.357-0.045,0.536
			c5.685-2.808,7.901-3.116,11.849-1.867c3.214,1.014,5.896,3.303,7.406,6.322c3.076,6.16,0.58,13.643-5.576,16.727
			c-0.609,0.3-1.225,0.552-1.854,0.747c-1.631,0.795-4.667,2.451-7.832,4.155C432.929,707.941,429.05,710.027,425.499,710.027z"/>
	</g>
	<g>
		<path fill="#E75345" d="M567.439,706.091c-1.274,0-2.406-0.341-3.948-0.844c-3.198-1.039-5.86-3.336-7.345-6.355
			c-1.643-3.238-1.643-3.238-1.185-31.789c0.024-1.542,0.053-3.181,0.077-4.853c-1.42,0.755-2.792,1.485-4.05,2.151
			c-24.721,13.156-24.716,13.156-30.349,11.37c-3.198-1.014-5.88-3.295-7.389-6.29c-1.173-2.345-1.173-2.345-4.062-24.907
			c-0.154-1.193-0.316-2.459-0.483-3.741c-8.221,4.334-10.445,4.975-15.034,3.547c-3.198-1.006-5.872-3.271-7.389-6.257
			c-3.12-6.135-0.678-13.643,5.458-16.759c0.597-0.3,1.201-0.552,1.818-0.755c1.583-0.763,4.594-2.394,7.722-4.074
			c13.594-7.272,15.684-8.392,21.113-6.679c3.202,1.006,5.88,3.279,7.398,6.265c1.189,2.362,1.189,2.362,4.127,25.289
			c0.146,1.144,0.3,2.354,0.459,3.587c1.688-0.893,3.356-1.777,4.898-2.605c25.776-13.716,26.258-13.967,31.98-12.157
			c3.19,1.006,5.876,3.287,7.393,6.265c1.684,3.376,1.684,3.376,1.242,31.002c-0.028,1.769-0.057,3.66-0.085,5.576
			c16.142-8.497,16.759-8.57,21.848-6.939c3.194,1.031,5.851,3.311,7.353,6.306c3.076,6.16,0.58,13.643-5.576,16.727
			c-0.625,0.308-1.266,0.568-1.911,0.763c-2.272,1.079-8.732,4.488-13.135,6.801C574.715,703.94,570.633,706.091,567.439,706.091z"
			/>
	</g>
	<g>
		<path fill="#E75345" d="M695.777,699.16c-1.185,0-2.406-0.203-3.77-0.633c-3.218-1.023-5.896-3.303-7.406-6.322
			c-0.381-0.69-4.829-8.546-9.568-16.913c-2.609-4.61-4.671-8.246-6.298-11.127c-4.849,2.638-8.063,3.717-12.547,2.378
			c-3.275-0.982-6.046-3.303-7.588-6.355c-0.536-1.063-0.645-1.282-8.631-23.446c-0.73-2.029-1.453-4.034-2.138-5.933
			c-0.199,0.105-0.39,0.211-0.58,0.308c-17.441,9.268-18.5,9.804-23.933,8.067c-3.202-1.023-5.872-3.311-7.377-6.314
			c-3.076-6.16-0.58-13.643,5.576-16.727c0.682-0.341,1.38-0.609,2.086-0.82c2.207-1.047,7.994-4.123,11.954-6.225
			c16.248-8.635,17.554-9.317,22.963-7.604c3.202,1.023,5.868,3.311,7.373,6.314c0.491,0.974,0.544,1.088,7.531,20.484
			c1.051,2.914,2.114,5.86,3.104,8.611c3.871-1.875,6.854-2.508,10.672-1.355c3.279,0.982,6.062,3.311,7.604,6.363
			c0.572,1.055,6.444,11.419,11.922,21.093c1.388,2.451,2.747,4.853,4.001,7.077c3.944-1.883,6.586-2.41,10.396-1.201
			c3.214,1.023,5.896,3.303,7.406,6.322c3.076,6.16,0.58,13.643-5.576,16.727c-0.511,0.252-1.035,0.471-1.562,0.649
			c-0.994,0.503-2.54,1.347-4.074,2.175C702.205,697.513,699.145,699.16,695.777,699.16z"/>
	</g>
	<g>
		<path fill="#E75345" d="M709.619,671.42c-1.27,0-2.431-0.292-3.9-0.763c-3.202-1.006-5.888-3.287-7.402-6.29
			c-1.871-3.733-1.871-3.733,0.183-30.75c0.012-0.17,0.024-0.341,0.037-0.503c-2.143,0.503-3.973,0.373-6.314-0.349
			c-3.218-0.998-5.916-3.279-7.438-6.282c-3.116-6.135-0.665-13.643,5.474-16.759c0.674-0.341,1.367-0.617,2.07-0.828
			c1.428-0.698,3.79-2.005,6.119-3.279c9.378-5.097,12.214-6.639,17.575-4.943c3.226,1.014,5.92,3.303,7.434,6.33
			c1.794,3.563,1.794,3.563-0.097,28.494c-0.057,0.73-0.114,1.493-0.174,2.281c16.175-8.643,17.502-9.106,22.74-7.426
			c3.202,1.006,5.888,3.287,7.402,6.29c3.104,6.144,0.637,13.643-5.507,16.743c-0.775,0.39-1.57,0.69-2.374,0.909
			c-2.512,1.185-9.179,4.756-13.74,7.199C717.524,669.091,713.157,671.42,709.619,671.42z M731.085,647.909
			c1.209,2.378,2.95,4.05,4.878,5.145C733.938,651.886,732.221,650.141,731.085,647.909z M700.318,608.966
			c2.114,0.795,4.017,2.034,5.454,4.034h0.012C704.275,611,702.339,609.713,700.318,608.966z"/>
	</g>
	<g>
		<path fill="#E75345" d="M628.664,700.751c-1.226,0-2.402-0.26-3.835-0.714c-3.194-1.006-5.864-3.271-7.377-6.257
			c-0.56-1.112-0.625-1.25-8.059-22.18c-0.852-2.402-1.704-4.805-2.508-7.061c-3.782,1.769-6.578,2.281-10.283,1.12
			c-2.974-0.925-5.507-2.946-7.077-5.616c-1.031-1.631-6.586-9.934-11.954-17.968c-1.988-2.97-3.628-5.421-4.979-7.442
			c-13.748,7.288-15.525,8.221-20.857,6.541c-3.19-1.006-5.856-3.271-7.373-6.249c-3.116-6.144-0.67-13.643,5.47-16.759
			c0.645-0.333,1.307-0.601,1.976-0.803c1.854-0.877,5.547-2.865,9.151-4.78c12.47-6.622,14.401-7.621,19.648-5.973
			c2.938,0.925,5.425,2.905,6.988,5.543c0.925,1.461,5.734,8.643,10.701,16.069c2.548,3.806,4.581,6.85,6.204,9.284
			c5.263-2.816,8.404-3.887,12.941-2.508c3.254,1.006,5.985,3.319,7.507,6.363c0.515,1.023,0.572,1.136,7.941,21.896
			c0.893,2.516,1.785,5.032,2.625,7.393c13.269-7.053,14.852-7.742,20.062-6.095c3.202,1.023,5.872,3.311,7.377,6.314
			c3.076,6.16,0.58,13.643-5.576,16.727c-0.629,0.317-1.274,0.568-1.927,0.771c-1.895,0.901-5.718,2.962-9.528,4.983
			C635.709,698.787,632.012,700.751,628.664,700.751z"/>
	</g>
	<g>
		<path fill="#E75345" d="M252.602,707.99c-1.209,0-2.427-0.235-3.851-0.69c-3.214-1.014-5.888-3.303-7.397-6.314
			c-0.353-0.698-0.893-1.923-10.473-24.436c-0.974-2.289-1.927-4.537-2.824-6.639c-16.585,8.611-17.011,8.773-22.16,7.085
			l3.855-11.849l11.143-5.584l-11.151,5.576l-4.48-11.597c1.643-0.714,7.158-3.603,12.34-6.29
			c14.767-7.677,15.343-7.994,20.456-6.346c3.194,1.014,5.847,3.271,7.357,6.265c0.317,0.633,0.385,0.763,8.408,19.616
			c1.647,3.871,3.34,7.856,4.853,11.411c8.233-4.366,10.664-5.17,15.396-3.652c3.214,1.014,5.896,3.311,7.406,6.322
			c3.076,6.16,0.58,13.643-5.576,16.727c-0.665,0.333-1.343,0.601-2.029,0.803c-1.652,0.795-4.602,2.402-7.43,3.92
			C259.127,706.253,255.88,707.99,252.602,707.99z"/>
	</g>
	<path fill="#FFFFFF" d="M82.233,401.897c70.009-17.16,942.776-40.395,1006.844-27.339c1.766,6.846,4.629,14.635,5.687,22.662
		c3.168,24.021,6.45,48.075,8.192,72.224c3.331,46.184,5.351,92.461,8.424,138.665c3.986,59.921,9.002,119.779,12.496,179.726
		c1.588,27.247,0.68,54.644,0.719,81.974c0.022,15.516-5.564,27.587-17.993,38.314c-50.764,43.812-35.794,41.864-102.775,39.935
		c-40.989-1.181-82.159-0.519-123.094,1.91c-59.707,3.543-119.203,10.921-178.926,13.833c-49.398,2.408-98.997,1.005-148.504,0.735
		c-30.526-0.165-61.049-1.29-91.569-2.132c-45.289-1.248-90.578-2.526-135.86-3.98c-46.304-1.488-92.597-4.228-138.903-4.456
		c-30.058-0.149-53.853-8.962-67.934-36.652c-3.751-7.376-7.032-15.706-7.696-23.83c-8.99-110.183-17.962-220.374-25.846-330.639
		c-2.925-40.903-3.19-82.003-4.285-123.023C80.878,427.45,81.84,415.04,82.233,401.897z M196.5,599.259
		c-2.088,10.281-5.015,18.199-5.074,26.138c-0.217,29.327,1.112,58.669,0.7,87.988c-0.327,23.24,4.65,29.713,28.617,31.366
		c7.335,0.506,14.762,0.47,22.101-0.012c36.688-2.408,73.339-5.453,110.045-7.507c51.44-2.878,102.899-6.544,154.385-7.232
		c79.89-1.067,159.81-0.032,239.717,0.343c68.367,0.32,136.732,1.28,205.098,1.296c24.813,0.006,49.94-0.032,75.469-11.305
		c-2.251-33.159-4.447-65.458-6.637-97.758c-1.816-26.78-17.842-41.454-45.11-40.981c-76.704,1.334-153.086,10.42-230.114,6.043
		c-52.335-2.972-104.994-0.328-157.507,0.03c-8.388,0.057-16.851,0.777-25.136,2.093c-34.513,5.482-69.063,6.559-103.875,3.081
		c-11.436-1.144-23.105,0.042-34.668,0.156c-40.981,0.407-81.975,0.306-122.938,1.373
		C267.084,595.271,232.628,597.526,196.5,599.259z M589.036,536.65c5.053,3.82,9.651,8.115,14.964,11.164
		c18.98,10.893,49.536,4.497,62.833-12.771c17.995-23.368,18.4-62.753,0.887-86.058c-11.445-15.231-32.429-18.886-47.587-7.295
		c-13.675,10.455-23.55,23.985-27.698,41.124c-1.655,6.841-3.396,13.662-5.276,21.206c-42.549-28.405-42.549-28.405-73.747-3.742
		c-0.89-1.778-2.403-3.496-2.575-5.34c-1.85-19.8,6.254-34.416,22.892-45.125c8.37-5.388,19.454-10.69,10.778-23.791
		c-3.037-0.467-5.386-1.612-7.039-0.969c-49.428,19.256-63.683,91.66-25.451,128.759c14.012,13.596,31.07,15.613,49.069,4.402
		C570.732,552.207,579.211,544.326,589.036,536.65z M704.999,540.687c24.498-21.452,26.87-48.056,38.237-69.586
		c6.141-11.631,8.242-25.472,11.432-38.494c0.433-1.768-3.418-4.587-6.609-8.571c-3.849,4.356-8.248,7.47-10.068,11.695
		c-12.452,28.906-24.551,57.968-36.177,87.214C700.561,526.098,703.075,530.749,704.999,540.687z"/>
	<path fill="#FFFFFF" d="M625.13,530.669c-14.587-36.179-11.842-55.03,9.776-75.205c19.163,10.575,27.597,25.653,25.049,44.784
		C657.447,519.092,649.692,526.145,625.13,530.669z"/>
	<path fill="#FFFFFF" d="M530.917,542.833c-2.4-16.717-0.548-29.103,11.66-39.521c12.531,0.999,20.063,8.507,18.967,19.885
		C560.044,538.745,546.341,540.843,530.917,542.833z"/>
	<path fill="#370F1F" d="M81.281,974.347c1.275-21.181,4.126-38.899,3.048-56.375c-2.915-47.234-7.613-94.355-11.362-141.54
		c-1.252-15.755-1.888-31.563-2.6-47.356c-2.653-58.927-4.815-117.88-8.065-176.773c-0.981-17.794-4.385-35.517-7.554-53.115
		c-6.778-37.638-4.731-75.493-3.31-113.303c1.385-36.856,2.938-73.735,5.769-110.5c2.764-35.894,9.815-43.416,46.244-46.704
		c48.18-4.35,96.512-7.2,144.823-9.876c56.748-3.145,113.522-6.173,170.326-7.882c87.323-2.626,174.672-5.074,262.025-5.779
		c103.238-0.833,206.499-0.318,309.733,0.943c26.142,0.319,52.366,4.849,78.236,9.292c7.218,1.239,15.807,7.713,19.357,14.199
		c6.436,11.76,12.258,25.048,13.648,38.193c14.271,135.041,28.311,270.116,40.741,405.334c3.551,38.627,0.888,77.786,2.467,116.645
		c2.302,56.713-5.527,113.642,4.647,170.233c3.158,17.563-7.744,28.077-23.658,21.595c-30.214-12.309-59.983-5.804-90.358-4.399
		c-37.789,1.747-75.719,0.209-113.581,0.713c-35.735,0.475-71.455,2.329-107.188,2.572c-90.469,0.617-179.855,20.471-270.91,13.195
		c-50.283-4.017-101.002-2.374-151.501-4.004c-15.708-0.507-31.481-2.575-46.978-5.315c-46.969-8.308-93.891-8.584-141.437-4.828
		C164.21,982.646,124.063,983.144,81.281,974.347z M82.233,401.897c-0.393,13.143-1.355,25.552-1.026,37.927
		c1.094,41.02,1.36,82.12,4.285,123.023c7.884,110.266,16.855,220.456,25.846,330.639c0.663,8.124,3.944,16.454,7.696,23.83
		c14.081,27.69,37.876,36.503,67.934,36.652c46.307,0.229,92.599,2.969,138.903,4.456c45.282,1.454,90.571,2.732,135.86,3.98
		c30.52,0.842,61.043,1.966,91.569,2.132c49.507,0.27,99.106,1.674,148.504-0.735c59.723-2.912,119.219-10.29,178.926-13.833
		c40.935-2.429,82.105-3.091,123.094-1.91c66.981,1.929,52.011,3.877,102.775-39.935c12.429-10.727,18.015-22.798,17.993-38.314
		c-0.039-27.33,0.869-54.727-0.719-81.974c-3.494-59.948-8.51-119.805-12.496-179.726c-3.072-46.204-5.093-92.481-8.424-138.665
		c-1.742-24.149-5.024-48.203-8.192-72.224c-1.058-8.027-3.921-15.816-5.687-22.662C1025.01,361.502,152.242,384.737,82.233,401.897
		z M81.871,369.436c5.317,1.088,9.324,2.666,13.308,2.61c52.605-0.736,105.237-0.872,157.8-2.816
		c68.243-2.526,136.413-6.953,204.648-9.742c37.802-1.545,75.685-1,113.511-2.132c73.601-2.205,147.177-5.275,220.783-7.287
		c35.748-0.977,71.544-0.016,107.309-0.57c55.418-0.858,110.83-2.171,166.237-3.601c4.942-0.127,9.826-2.53,15.149-3.989
		c6.751-30.721-0.281-59.124-5.336-88.079c-11.036-3.766-20.735-8.851-30.945-10.276c-68.831-9.61-137.92-14.325-207.558-12.11
		c-79.843,2.541-159.744,3.404-239.624,4.69c-44.173,0.711-88.379,0.018-132.528,1.355c-60.967,1.843-121.948,4.11-182.821,7.853
		c-60.874,3.743-121.617,9.594-182.429,14.365c-12.204,0.957-19.639,6.894-21.505,19.019
		C73.204,309.039,74.698,339.012,81.871,369.436z"/>
	<path fill="#370F1F" d="M196.5,599.259c36.127-1.734,70.584-3.988,105.075-4.887c40.963-1.067,81.957-0.966,122.938-1.373
		c11.563-0.115,23.232-1.3,34.668-0.156c34.812,3.478,69.361,2.402,103.875-3.081c8.285-1.316,16.748-2.035,25.136-2.093
		c52.512-0.358,105.172-3.002,157.507-0.03c77.028,4.376,153.409-4.71,230.114-6.043c27.268-0.473,43.294,14.201,45.11,40.981
		c2.19,32.3,4.385,64.599,6.637,97.758c-25.53,11.273-50.656,11.311-75.469,11.305c-68.366-0.017-136.731-0.977-205.098-1.296
		c-79.906-0.375-159.827-1.41-239.717-0.343c-51.486,0.688-102.945,4.354-154.385,7.232c-36.707,2.054-73.357,5.099-110.045,7.507
		c-7.339,0.482-14.766,0.518-22.101,0.012c-23.967-1.653-28.945-8.125-28.617-31.366c0.412-29.319-0.917-58.661-0.7-87.988
		C191.485,617.458,194.412,609.54,196.5,599.259z M552.648,629.849c-9.696-3.224-19.459-6.264-29.069-9.725
		c-9.871-3.554-18.284-3.319-24.988,9.022c18.197,24.102,41.381,43.77,64.092,63.766c4.412,3.884,11.261,6.063,17.266,6.829
		c9.431,1.203,16.465-2.673,16.994-14.349c-14.713-18.407-29.74-37.207-44.767-56.008c19.884,4.135,32.138,18.929,45.547,32.275
		c16.897,16.815,34.002,33.528,62.44,37.514c-1.216-7.014-0.375-13.237-3.081-16.056c-26.046-27.131-55.327-50.175-87.535-68.474
		C562.965,620.566,557.807,625.207,552.648,629.849z M239.069,655.024c16.408,11.175,32.819,22.346,49.224,33.527
		c11.764,8.017,23.519,16.048,34.612,23.618c12.105-11.953,6.082-18.927-0.292-26.76c-9.437-11.599-20.476-22.675-20.031-40.219
		c10.303,5.798,18.433,13.311,26.242,21.142c10.379,10.41,20.356,21.222,30.793,31.571c9.261,9.184,19.44,10.182,30.941,3.154
		c-1.008-4.184-0.751-8.105-2.585-9.976c-23.323-23.792-46.504-47.76-70.792-70.543c-6.295-5.905-16.234-4.797-22.618,2.75
		c-3.116,3.685-4.554,8.788-7.626,15.025c-9.127-5.207-16.717-11.659-25.389-13.873c-8.254-2.107-19.078-2.511-26.175,1.245
		c-9.83,5.202-3.834,14.458,0.471,21.849c1.577,2.708,2.823,5.607,4.219,8.419c-7.77-0.348-15.54-0.696-24.988-1.119
		c1.11,8.014-0.061,14.965,2.825,17.83c15.89,15.784,32.772,30.569,50.234,46.539c6.482-17.942,6.559-18.001,1.495-24.608
		C259.492,681.368,249.262,668.211,239.069,655.024z M769.01,699.595c23.129,2.126,43.893,5.004,64.731,5.728
		c33.589,1.168,67.228,1.141,100.846,1.162c15.762,0.01,31.618-0.172,47.262-1.851c18.1-1.942,22.692-6.091,24.38-22.934
		c2.615-26.097,1.041-51.99-8.221-78.348c-77.674,3.994-153.798,7.908-232.124,11.936
		C764.026,645.231,765.064,671.94,769.01,699.595z M417.796,629.246c24.292,25.466,49.953,49.535,80.304,68.09
		c11.611,7.1,21.88,5.105,27.834-11.547c-19.341-22.592-37.513-46.888-62.027-65.219
		C446.001,607.179,435.777,609.121,417.796,629.246z M350.036,634.842c21.8,24.354,49.177,43.09,76.727,61.243
		c8.219,5.416,19.584,6.853,30.259-4.322c-20.679-33.853-49.62-55.887-85.592-69.478
		C361.632,618.583,355.598,623.854,350.036,634.842z M718.25,688.801c-20.769-29.04-41.95-52.92-68.433-71.062
		c-11.748-8.047-25.56-4.711-35.337,5.846c0.381,2.946,0.14,4.265,0.691,4.887c24.553,27.798,61.149,38.927,88.243,63.336
		C705.005,693.241,710.33,690.53,718.25,688.801z M744.556,673.454c3.369-21.257,0.971-40.624-8.503-58.257
		c-30.308-4.098-30.308-4.098-50.005,3.062C693.006,641.182,714.973,662.323,744.556,673.454z"/>
	<path fill="#370F1F" d="M589.036,536.65c-9.826,7.676-18.304,15.557-27.948,21.563c-18,11.211-35.058,9.194-49.069-4.402
		c-38.232-37.099-23.977-109.503,25.451-128.759c1.653-0.643,4.002,0.502,7.039,0.969c8.676,13.102-2.408,18.404-10.778,23.791
		c-16.638,10.709-24.742,25.325-22.892,45.125c0.172,1.844,1.685,3.563,2.577,5.339c31.195-24.661,31.195-24.661,73.744,3.744
		c1.88-7.543,3.621-14.365,5.276-21.206c4.148-17.139,14.023-30.669,27.698-41.124c15.158-11.591,36.142-7.936,47.587,7.295
		c17.514,23.305,17.108,62.689-0.887,86.058c-13.297,17.268-43.853,23.663-62.833,12.771
		C598.687,544.765,594.089,540.47,589.036,536.65z M625.13,530.669c24.562-4.523,32.316-11.577,34.825-30.421
		c2.547-19.132-5.886-34.209-25.049-44.784C613.288,475.638,610.544,494.49,625.13,530.669z M530.917,542.833
		c15.424-1.99,29.128-4.088,30.627-19.637c1.096-11.377-6.436-18.886-18.967-19.885
		C530.369,513.729,528.516,526.115,530.917,542.833z"/>
	<path fill="#370F1F" d="M704.999,540.687c-1.924-9.938-4.438-14.589-3.185-17.744c11.626-29.246,23.725-58.308,36.177-87.214
		c1.82-4.224,6.219-7.338,10.068-11.695c3.191,3.985,7.042,6.803,6.609,8.571c-3.19,13.023-5.291,26.863-11.432,38.494
		C731.87,492.631,729.497,519.235,704.999,540.687z"/>
	<path fill="#370F1F" d="M963.11,289.705c-3.08-3.3-8.455-6.56-9.596-10.926c-1.384-5.292-1.154-13.301,2.036-16.815
		c2.905-3.201,11.063-3.51,16.253-2.299c6.826,1.595,13.014,5.925,19.685,9.181c9.053-6.27,17.353-12.019,26.396-18.281
		c15.378,14.235-3.195,25.994-0.277,37.281c3.045,15.632,25.798,24.006,13.881,46.801c-12.492-6.915-23.943-13.254-36.825-20.384
		c-10.121,4.865-20.999,10.095-31.435,15.111C948.55,315.878,964.22,305.15,963.11,289.705z"/>
	<path fill="#370F1F" d="M189.72,293.719c15.173,18.543,20.282,37.357,4.302,59.536C171.057,334.01,186.783,313.012,189.72,293.719z
		"/>
	<path fill="#370F1F" d="M115.702,299.794c17.05,11.245,14.211,25.276,13.028,38.29c-0.27,2.973-5.634,8.155-7.715,7.73
		c-4.205-0.859-10.345-4.274-11.128-7.682C107.144,326.188,106.894,313.894,115.702,299.794z"/>
	<path fill="#370F1F" d="M223.118,287.79c18.296,36.847,17.022,44.071-5.589,49.606C212.201,322.144,215.703,308.355,223.118,287.79
		z"/>
	<path fill="#370F1F" d="M158.324,349.453c-19.659-20.346-19.757-23.571-3.628-56.962
		C164.755,311.082,163.752,327.865,158.324,349.453z"/>
	<path fill="#370F1F" d="M265.064,341.668c-13.869-21.124-9.349-34.248,1.162-49.47C278.718,308.807,275.53,322.574,265.064,341.668
		z"/>
	<path fill="#370F1F" d="M769.826,496.786c-2.251-4.409-7.424-6.838-12.221-5.661c-9.557,2.347-10.349,15.36-4.156,21.439
		c3.143,3.086,7.95,3.74,11.534,1.039c1.155-0.626,2.242-1.497,3.112-2.91C770.713,506.438,772.251,501.534,769.826,496.786z"/>
	<path fill="#370F1F" d="M713.199,453.486c-0.139-0.416-0.397-0.755-0.578-1.148c0.076-4.206-3.506-8.994-8.069-8.788
		c-5.167,0.234-9.458,1.967-12.114,6.611c-2.557,4.469-1.724,10.159,1.738,13.923C701.701,472.267,716.873,464.473,713.199,453.486z
		"/>
</g>
</svg>
