<?xml version="1.0" encoding="utf-8"?>
<!-- Designed by Vexels.com - 2020 All Rights Reserved - https://vexels.com/terms-and-conditions/  -->
<svg version="1.1" id="Capa_1" xmlns="http://www.w3.org/2000/svg" xmlns:xlink="http://www.w3.org/1999/xlink" x="0px" y="0px"
	 viewBox="0 0 1200 1200" enable-background="new 0 0 1200 1200" xml:space="preserve">
<g>
	<path fill="#6678AF" d="M264.036,778.12c-5.362,18.56,6.885,37.576,26.463,40.973c54.492,9.454,168.284,24.619,326.146,22.052
		C522.876,738.951,424.711,639.49,335.452,530.937L264.036,778.12z"/>
	<path fill="#7A88C1" d="M907.365,673.344c-106.649-96.146-214.423-189.743-327.966-279.239
		c-91.274,2.292-161.033,18.754-192.746,27.745c-10.828,3.07-19.795,10.327-24.935,19.967c-0.91,1.707-1.542,3.544-2.076,5.394
		l-24.19,83.726c89.259,108.553,187.425,208.014,281.194,310.207c85.522-1.391,183.938-7.97,292.959-23.517
		c20.075-2.863,33.003-22.219,27.535-41.156L907.365,673.344z"/>
	<path fill="#6678AF" d="M842.231,447.739c-0.54-1.867-1.177-3.723-2.098-5.444c-5.267-9.84-14.57-17.145-25.668-20.179
		c-85.876-23.473-166.528-29.731-235.065-28.01c113.543,89.496,221.316,183.093,327.966,279.239L842.231,447.739z"/>
	<path fill="#272F51" d="M290.499,819.093c-16.679-2.894-27.995-17.131-27.677-32.759h-0.026c0-11.143-0.309,89.153-0.462,139.384
		c-0.05,16.293,11.995,30.21,28.548,33.071c37.549,6.492,110.707,16.894,210.92,20.932c-39.388-50.388-82.822-98.207-123.07-148.522
		C341.144,827.206,311.442,822.726,290.499,819.093z"/>
	<path fill="#393F63" d="M378.731,831.2c40.248,50.314,83.683,98.133,123.07,148.522c91.689,3.694,206.097,2.008,336.778-12.881
		c-39.519-43.243-79.604-87.219-121.413-129.592C574.205,845.959,458.621,839.689,378.731,831.2z"/>
	<path fill="#272F51" d="M938.349,785.477c-0.089,15.673-11.866,29.744-28.745,32.151c-68.525,9.772-132.843,15.989-192.437,19.62
		c41.809,42.373,81.894,86.349,121.413,129.592c22.965-2.616,46.372-5.592,70.312-9.07c16.936-2.461,29.505-16.565,29.505-33.16
		V785.477H938.349z"/>
	<ellipse fill="#393F63" cx="599.912" cy="615.473" rx="181.448" ry="156.179"/>
	<path fill="#A2AFDD" d="M468.763,475.976c-31.137,28.04-50.299,66.015-50.299,107.867c0,86.256,81.237,156.18,181.448,156.18
		c36.857,0,71.126-9.485,99.752-25.737C618.853,638.198,545.152,556.313,468.763,475.976z"/>
	<path fill="#B5CAF4" d="M781.36,583.842c0-86.256-81.237-156.179-181.448-156.179c-51.589,0-98.111,18.562-131.149,48.313
		c76.389,80.337,150.089,162.222,230.901,238.31C748.87,686.351,781.36,638.374,781.36,583.842z"/>
	<ellipse fill="#393F63" cx="599.912" cy="583.843" rx="75.229" ry="64.753"/>
	<ellipse fill="#DAE7FC" cx="599.912" cy="583.843" rx="26.547" ry="22.85"/>
	<path fill="#6678AF" d="M74.53,519.089l12.503,29.503c9.502,22.423,33.114,33.793,55.114,26.538l75.699-24.961
		c-15.952-16.804-31.718-33.793-47.582-50.685C114.173,517.715,74.531,519.089,74.53,519.089z"/>
	<path fill="#7A88C1" d="M281.935,474.301l-8.203-22.676c-36.912,22.771-72.662,37.848-103.468,47.861
		c15.864,16.892,31.63,33.881,47.582,50.685l34.921-11.515C278.098,530.303,291.498,500.739,281.935,474.301z"/>
	<path fill="#272F51" d="M79.967,370.865c-29.186,26.884-38.059,71.245-22.16,108.765l16.723,39.46
		c0.001,0,95.081-3.234,199.202-67.465c-10.722-29.641,2.733-63.03,30.298-74.909c8.174-3.523,17.647-7.146,28.499-10.731
		c-37.171-27.056-74.107-54.607-110.387-82.936C154.552,311.266,109.142,343.99,79.967,370.865z"/>
	<path fill="#393F63" d="M1142.192,479.629c15.9-37.519,7.027-81.881-22.159-108.765c-50.811-46.804-151.189-111.325-332.17-138.879
		c116.898,88.335,233.542,172.374,347.694,263.301L1142.192,479.629z"/>
	<path fill="#272F51" d="M787.863,231.986c-54.997-8.373-117.347-13.374-188.126-13.374c-38.007,0-73.586,1.438-106.908,4.058
		c46.42,37.145,93.357,74.122,140.82,110.4c138.763,3.054,218.588,24.798,262.32,43.645c27.566,11.879,41.02,45.269,30.299,74.909
		c104.121,64.23,199.201,67.465,199.202,67.465l10.087-23.802C1021.405,404.36,904.761,320.321,787.863,231.986z"/>
	<path fill="#393F63" d="M222.143,283.049c36.28,28.329,73.216,55.879,110.387,82.936c51.739-17.093,135.559-33.29,267.558-33.29
		c11.569,0,22.723,0.138,33.561,0.377c-47.463-36.279-94.401-73.255-140.82-110.4C377.141,231.767,288.831,255.208,222.143,283.049z
		"/>
	<path fill="#7A88C1" d="M1057.853,575.131c22,7.254,45.612-4.116,55.114-26.538l12.503-29.503
		c-0.001,0-63.324-2.169-143.202-37.865c19.473,30.704,40.158,60.244,61.505,89.264L1057.853,575.131z"/>
	<path fill="#6678AF" d="M982.268,481.224c-18.006-8.047-36.847-17.784-56.001-29.599l-8.203,22.676
		c-9.563,26.437,3.838,56.002,29.169,64.354l96.54,31.833C1022.427,541.468,1001.741,511.928,982.268,481.224z"/>
</g>
</svg>
