<?xml version="1.0" encoding="utf-8"?>
<!-- Generator: Adobe Illustrator 23.0.6, SVG Export Plug-In . SVG Version: 6.00 Build 0)  -->
<svg version="1.1" id="Layer_1" xmlns="http://www.w3.org/2000/svg" xmlns:xlink="http://www.w3.org/1999/xlink" x="0px" y="0px"
	 viewBox="0 0 1200 1200" enable-background="new 0 0 1200 1200" xml:space="preserve">
<g>
	<path d="M522.165,154.064c-173.93,0-315.433,141.5-315.433,315.43s141.503,315.436,315.433,315.436
		c173.93,0,315.43-141.506,315.43-315.436S696.095,154.064,522.165,154.064z M522.165,755.201
		c-157.538,0-285.704-128.169-285.704-285.707c0-157.538,128.166-285.701,285.704-285.701c157.538,0,285.7,128.163,285.7,285.701
		C807.865,627.032,679.703,755.201,522.165,755.201z"/>
	<path d="M522.165,263.251c8.21,0,14.865-6.654,14.865-14.865v-15.254c0-8.21-6.654-14.865-14.865-14.865
		c-8.211,0-14.865,6.654-14.865,14.865v15.254C507.3,256.596,513.954,263.251,522.165,263.251z"/>
	<path d="M522.165,675.744c-8.211,0-14.865,6.654-14.865,14.865v15.254c0,8.21,6.654,14.865,14.865,14.865
		c8.21,0,14.865-6.654,14.865-14.865v-15.254C537.029,682.398,530.375,675.744,522.165,675.744z"/>
	<path d="M728.408,469.495c0,8.21,6.654,14.865,14.865,14.865h15.254c8.211,0,14.865-6.654,14.865-14.865
		s-6.654-14.865-14.865-14.865h-15.254C735.062,454.63,728.408,461.284,728.408,469.495z"/>
	<path d="M315.912,469.495c0-8.21-6.654-14.865-14.865-14.865h-15.248c-8.21,0-14.865,6.654-14.865,14.865
		s6.654,14.865,14.865,14.865h15.248C309.258,484.359,315.912,477.705,315.912,469.495z"/>
	<path d="M621.341,288.654c2.265,1.249,4.715,1.835,7.136,1.835c5.249,0,10.341-2.787,13.042-7.717l7.334-13.367
		c3.948-7.195,1.318-16.23-5.882-20.178c-7.171-3.96-16.235-1.324-20.178,5.882l-7.334,13.367
		C611.51,275.671,614.141,284.706,621.341,288.654z"/>
	<path d="M422.982,650.329c-7.206-3.943-16.232-1.312-20.181,5.888l-7.334,13.372c-3.948,7.2-1.312,16.235,5.885,20.184
		c2.267,1.243,4.718,1.829,7.136,1.829c5.249,0,10.341-2.787,13.047-7.717l7.334-13.373
		C432.813,663.312,430.182,654.277,422.982,650.329z"/>
	<path d="M736.549,570.128l-13.367-7.334c-7.177-3.954-16.23-1.324-20.178,5.882c-3.948,7.194-1.318,16.23,5.882,20.178
		l13.367,7.334c2.265,1.248,4.715,1.835,7.136,1.835c5.249,0,10.342-2.787,13.042-7.717
		C746.379,583.112,743.749,574.077,736.549,570.128z"/>
	<path d="M307.774,368.873l13.37,7.334c2.268,1.243,4.718,1.829,7.133,1.829c5.252,0,10.344-2.787,13.047-7.717
		c3.949-7.194,1.315-16.235-5.885-20.178l-13.37-7.334c-7.203-3.966-16.232-1.318-20.181,5.882
		C297.941,355.883,300.574,364.924,307.774,368.873z"/>
	<path d="M715.448,332.639l-12.972,8.013c-6.985,4.314-9.151,13.477-4.837,20.457c2.81,4.552,7.676,7.055,12.658,7.055
		c2.665,0,5.365-0.714,7.798-2.218l12.972-8.013c6.985-4.314,9.151-13.477,4.837-20.456
		C731.59,330.491,722.433,328.325,715.448,332.639z"/>
	<path d="M326.227,573.049l-12.972,8.013c-6.983,4.314-9.148,13.477-4.834,20.456c2.81,4.552,7.679,7.055,12.661,7.055
		c2.665,0,5.362-0.714,7.798-2.218l12.972-8.013c6.983-4.315,9.148-13.477,4.834-20.457
		C342.376,570.901,333.225,568.74,326.227,573.049z"/>
	<path d="M651.006,649.806c-4.314-6.985-13.477-9.151-20.456-4.837c-6.986,4.315-9.151,13.471-4.837,20.457l8.013,12.978
		c2.81,4.552,7.676,7.055,12.659,7.055c2.665,0,5.365-0.714,7.798-2.218c6.985-4.314,9.151-13.471,4.837-20.456L651.006,649.806z"/>
	<path d="M405.981,296.238c2.665,0,5.365-0.714,7.798-2.218c6.985-4.314,9.151-13.477,4.831-20.456l-8.013-12.972
		c-4.311-6.985-13.463-9.145-20.457-4.837c-6.982,4.314-9.148,13.477-4.834,20.456l8.013,12.972
		C396.13,293.735,400.999,296.238,405.981,296.238z"/>
	<path d="M624.435,421.306c-3.501-7.427-12.362-10.62-19.783-7.113l-67.623,31.864V316.921c0-8.21-6.654-14.865-14.865-14.865
		c-8.211,0-14.865,6.654-14.865,14.865v152.573c0,0.095,0.026,0.182,0.028,0.276c0.01,0.548,0.094,1.094,0.166,1.643
		c0.058,0.444,0.089,0.893,0.185,1.324c0.096,0.425,0.257,0.839,0.391,1.26c0.17,0.533,0.328,1.067,0.555,1.572
		c0.038,0.085,0.052,0.174,0.091,0.259c0.072,0.153,0.195,0.26,0.271,0.409c0.503,0.98,1.107,1.887,1.807,2.726
		c0.189,0.227,0.358,0.463,0.558,0.677c0.832,0.887,1.758,1.672,2.785,2.334c0.216,0.139,0.447,0.236,0.669,0.363
		c0.865,0.497,1.779,0.9,2.742,1.216c0.315,0.104,0.62,0.21,0.942,0.292c1.146,0.293,2.327,0.492,3.562,0.501
		c0.042,0,0.082,0.017,0.124,0.017c0.272,0,0.545-0.074,0.818-0.09c0.767-0.043,1.532-0.093,2.263-0.248
		c0.269-0.057,0.528-0.174,0.795-0.247c0.757-0.206,1.499-0.437,2.203-0.754c0.08-0.036,0.165-0.046,0.245-0.084l88.823-41.854
		C624.749,437.588,627.931,428.732,624.435,421.306z"/>
	<path d="M994.326,779.595V168.197c0-45.181-32.255-81.942-71.909-81.942H121.909C82.259,86.255,50,123.016,50,168.197v611.397
		c0,45.181,32.259,81.942,71.909,81.942h541.106l88.063,157.613c2.648,4.732,7.636,7.612,12.972,7.612
		c0.558,0,1.121-0.029,1.678-0.093c5.952-0.673,10.922-4.86,12.6-10.609l45.07-154.524h99.019
		C962.07,861.537,994.326,824.776,994.326,779.595z M812.249,831.807c-6.608,0-12.42,4.361-14.273,10.702l-38.253,131.159
		L684.714,839.42c-2.63-4.698-7.595-7.612-12.977-7.612H121.909c-23.258,0-42.179-23.424-42.179-52.212V168.197
		c0-28.789,18.921-52.212,42.179-52.212h800.509c23.255,0,42.179,23.424,42.179,52.212v611.397
		c0,28.789-18.924,52.212-42.179,52.212H812.249z"/>
	<path d="M1078.091,173.232c-8.21,0-14.865,6.654-14.865,14.865c0,8.21,6.654,14.865,14.865,14.865
		c23.255,0,42.179,23.424,42.179,52.213v611.397c0,28.789-18.924,52.213-42.179,52.213H967.923c-6.608,0-12.42,4.361-14.273,10.701
		l-48.194,165.226c-2.294,7.88,2.23,16.137,10.109,18.436c1.394,0.401,2.793,0.598,4.169,0.598c6.44,0,12.374-4.216,14.267-10.707
		l45.07-154.524h99.019c39.653,0,71.909-36.761,71.909-81.942V255.174C1150,209.993,1117.745,173.232,1078.091,173.232z"/>
</g>
</svg>
