<?xml version="1.0" encoding="utf-8"?>
<!-- Designed by Vexels.com - 2019 All Rights Reserved - https://vexels.com/terms-and-conditions/  -->
<svg version="1.1" id="Layer_1" xmlns="http://www.w3.org/2000/svg" xmlns:xlink="http://www.w3.org/1999/xlink" x="0px" y="0px"
	 viewBox="0 0 1200 1200" enable-background="new 0 0 1200 1200" xml:space="preserve">
<g>
	<rect x="50" y="50" fill="#FFEF57" width="1100" height="1100"/>
	<path fill="#262626" d="M788.921,909.379c22.156,36.177,50.984,62.77,101.968,62.77c42.83,0,70.19-21.406,70.19-50.984
		c0-35.445-28.111-47.999-75.254-68.619l-25.841-11.087c-74.591-31.778-124.143-71.588-124.143-155.746
		c0-77.523,59.068-136.539,151.381-136.539c65.72,0,112.968,22.873,147.015,82.761l-80.492,51.683
		c-17.722-31.778-36.841-44.297-66.524-44.297c-30.276,0-49.465,19.207-49.465,44.297c0,31.01,19.206,43.564,63.556,62.77
		l25.841,11.07c87.826,37.662,137.413,76.057,137.413,162.381c0,93.063-73.106,144.047-171.286,144.047
		c-95.997,0-158.015-45.746-188.362-105.705L788.921,909.379z M423.773,918.336c16.238,28.809,31.009,53.167,66.524,53.167
		c33.96,0,55.384-13.287,55.384-64.953V555.075h103.365v352.873c0,107.032-62.753,155.746-154.349,155.746
		c-82.762,0-130.69-42.83-155.065-94.417L423.773,918.336z"/>
</g>
</svg>
