<?xml version="1.0" encoding="utf-8"?>
<!-- Designed by Vexels.com - 2018 All Rights Reserved - https://vexels.com/terms-and-conditions/  -->
<svg version="1.1" id="Layer_1" xmlns="http://www.w3.org/2000/svg" xmlns:xlink="http://www.w3.org/1999/xlink" x="0px" y="0px"
	 viewBox="0 0 1200 1200" enable-background="new 0 0 1200 1200" xml:space="preserve">
<g>
	<g>
		<g>
			<g>
				<path fill="#232122" d="M537.484,487.038H75.557C61.464,487.038,50,475.57,50,461.477V161.255
					c0-14.093,11.464-25.557,25.557-25.557h461.926c14.093,0,25.56,11.464,25.56,25.557v300.223
					C563.044,475.57,551.576,487.038,537.484,487.038z M75.557,149.122c-6.689,0-12.133,5.444-12.133,12.133v300.223
					c0,6.692,5.444,12.136,12.133,12.136h461.926c6.692,0,12.136-5.444,12.136-12.136V161.255c0-6.689-5.444-12.133-12.136-12.133
					H75.557z"/>
			</g>
			<g>
				<path fill="#232122" d="M537.484,487.038H75.557C61.464,487.038,50,475.57,50,461.477v-34.232h513.044v34.232
					C563.044,475.57,551.576,487.038,537.484,487.038z M63.424,440.669v20.808c0,6.692,5.444,12.136,12.133,12.136h461.926
					c6.692,0,12.136-5.444,12.136-12.136v-20.808H63.424z"/>
			</g>
			<g>
				<path fill="#232122" d="M379.887,556.663H233.157v-83.049h146.729V556.663z M246.582,543.239h119.881v-56.201H246.582V543.239z"
					/>
			</g>
			<g>
				<path fill="#232122" d="M430.306,556.663H182.735c-3.707,0-6.712-3.005-6.712-6.712c0-3.707,3.005-6.712,6.712-6.712h247.571
					c3.707,0,6.712,3.005,6.712,6.712C437.018,553.658,434.013,556.663,430.306,556.663z"/>
			</g>
		</g>
		<g>
			<g>
				<path fill="#232122" d="M468.455,247.047H144.589c-3.707,0-6.712-3.005-6.712-6.712s3.005-6.712,6.712-6.712h323.866
					c3.707,0,6.712,3.005,6.712,6.712S472.162,247.047,468.455,247.047z"/>
			</g>
			<g>
				<path fill="#232122" d="M468.455,292.354H144.589c-3.707,0-6.712-3.005-6.712-6.712c0-3.707,3.005-6.712,6.712-6.712h323.866
					c3.707,0,6.712,3.005,6.712,6.712C475.167,289.348,472.162,292.354,468.455,292.354z"/>
			</g>
			<g>
				<path fill="#232122" d="M468.455,337.664H144.589c-3.707,0-6.712-3.005-6.712-6.712c0-3.707,3.005-6.712,6.712-6.712h323.866
					c3.707,0,6.712,3.005,6.712,6.712C475.167,334.659,472.162,337.664,468.455,337.664z"/>
			</g>
		</g>
	</g>
	<g>
		<g>
			<g>
				<path fill="#232122" d="M1124.44,994.677H662.513c-14.093,0-25.557-11.468-25.557-25.56V668.894
					c0-14.093,11.464-25.557,25.557-25.557h461.926c14.093,0,25.56,11.464,25.56,25.557v300.223
					C1150,983.21,1138.532,994.677,1124.44,994.677z M662.513,656.761c-6.689,0-12.133,5.444-12.133,12.133v300.223
					c0,6.692,5.444,12.136,12.133,12.136h461.926c6.692,0,12.136-5.444,12.136-12.136V668.894c0-6.689-5.444-12.133-12.136-12.133
					H662.513z"/>
			</g>
			<g>
				<path fill="#232122" d="M1124.44,994.677H662.513c-14.093,0-25.557-11.468-25.557-25.56v-34.232H1150v34.232
					C1150,983.21,1138.532,994.677,1124.44,994.677z M650.38,948.309v20.808c0,6.692,5.444,12.136,12.133,12.136h461.926
					c6.692,0,12.136-5.444,12.136-12.136v-20.808H650.38z"/>
			</g>
			<g>
				<path fill="#232122" d="M966.843,1064.303H820.11v-83.049h146.732V1064.303z M833.534,1050.878h119.884v-56.201H833.534
					V1050.878z"/>
			</g>
			<g>
				<path fill="#232122" d="M1017.262,1064.303H769.691c-3.707,0-6.712-3.005-6.712-6.712s3.005-6.712,6.712-6.712h247.571
					c3.707,0,6.712,3.005,6.712,6.712S1020.969,1064.303,1017.262,1064.303z"/>
			</g>
		</g>
		<g>
			<g>
				<path fill="#232122" d="M1055.411,754.687H731.542c-3.707,0-6.712-3.005-6.712-6.712c0-3.707,3.005-6.712,6.712-6.712h323.869
					c3.707,0,6.712,3.005,6.712,6.712C1062.123,751.681,1059.118,754.687,1055.411,754.687z"/>
			</g>
			<g>
				<path fill="#232122" d="M1055.411,799.993H731.542c-3.707,0-6.712-3.005-6.712-6.712c0-3.707,3.005-6.712,6.712-6.712h323.869
					c3.707,0,6.712,3.005,6.712,6.712C1062.123,796.988,1059.118,799.993,1055.411,799.993z"/>
			</g>
			<g>
				<path fill="#232122" d="M1055.411,845.303H731.542c-3.707,0-6.712-3.005-6.712-6.712s3.005-6.712,6.712-6.712h323.869
					c3.707,0,6.712,3.005,6.712,6.712S1059.118,845.303,1055.411,845.303z"/>
			</g>
		</g>
	</g>
	<g>
		<g>
			<path fill="#232122" d="M627.445,307.584h-16.78c-3.707,0-6.712-3.005-6.712-6.712c0-3.707,3.005-6.712,6.712-6.712h16.78
				c3.707,0,6.712,3.005,6.712,6.712C634.157,304.579,631.152,307.584,627.445,307.584z"/>
		</g>
		<g>
			<path fill="#232122" d="M841.089,307.584h-35.606c-3.707,0-6.712-3.005-6.712-6.712c0-3.707,3.005-6.712,6.712-6.712h35.606
				c3.707,0,6.712,3.005,6.712,6.712C847.801,304.579,844.795,307.584,841.089,307.584z M769.874,307.584h-35.606
				c-3.707,0-6.712-3.005-6.712-6.712c0-3.707,3.005-6.712,6.712-6.712h35.606c3.707,0,6.712,3.005,6.712,6.712
				C776.586,304.579,773.581,307.584,769.874,307.584z M698.66,307.584h-35.606c-3.707,0-6.712-3.005-6.712-6.712
				c0-3.707,3.005-6.712,6.712-6.712h35.606c3.707,0,6.712,3.005,6.712,6.712C705.372,304.579,702.366,307.584,698.66,307.584z"/>
		</g>
		<g>
			<path fill="#232122" d="M893.475,324.364c-3.707,0-6.712-3.005-6.712-6.712v-10.068h-10.068c-3.707,0-6.712-3.005-6.712-6.712
				c0-3.707,3.005-6.712,6.712-6.712h23.492v23.492C900.187,321.359,897.181,324.364,893.475,324.364z"/>
		</g>
		<g>
			<path fill="#232122" d="M893.475,561.668c-3.707,0-6.712-3.005-6.712-6.712v-29.66c0-3.707,3.005-6.712,6.712-6.712
				c3.707,0,6.712,3.005,6.712,6.712v29.66C900.187,558.662,897.181,561.668,893.475,561.668z M893.475,502.343
				c-3.707,0-6.712-3.005-6.712-6.712v-29.664c0-3.707,3.005-6.712,6.712-6.712c3.707,0,6.712,3.005,6.712,6.712v29.664
				C900.187,499.338,897.181,502.343,893.475,502.343z M893.475,443.016c-3.707,0-6.712-3.005-6.712-6.712v-29.66
				c0-3.707,3.005-6.712,6.712-6.712c3.707,0,6.712,3.005,6.712,6.712v29.66C900.187,440.01,897.181,443.016,893.475,443.016z
				 M893.475,383.692c-3.707,0-6.712-3.005-6.712-6.712v-29.664c0-3.707,3.005-6.712,6.712-6.712c3.707,0,6.712,3.005,6.712,6.712
				v29.664C900.187,380.686,897.181,383.692,893.475,383.692z"/>
		</g>
		<g>
			<path fill="#232122" d="M893.475,608.112c-3.707,0-6.712-3.005-6.712-6.712v-16.78c0-3.707,3.005-6.712,6.712-6.712
				c3.707,0,6.712,3.005,6.712,6.712v16.78C900.187,605.106,897.181,608.112,893.475,608.112z"/>
		</g>
	</g>
	<g>
		<g>
			<path fill="#232122" d="M292.721,642.311c-3.707,0-6.712-3.005-6.712-6.712v-16.78c0-3.707,3.005-6.712,6.712-6.712
				c3.707,0,6.712,3.005,6.712,6.712v16.78C299.433,639.306,296.428,642.311,292.721,642.311z"/>
		</g>
		<g>
			<path fill="#232122" d="M292.721,855.952c-3.707,0-6.712-3.005-6.712-6.712v-35.606c0-3.707,3.005-6.712,6.712-6.712
				c3.707,0,6.712,3.005,6.712,6.712v35.606C299.433,852.946,296.428,855.952,292.721,855.952z M292.721,784.737
				c-3.707,0-6.712-3.005-6.712-6.712v-35.606c0-3.707,3.005-6.712,6.712-6.712c3.707,0,6.712,3.005,6.712,6.712v35.606
				C299.433,781.732,296.428,784.737,292.721,784.737z M292.721,713.523c-3.707,0-6.712-3.005-6.712-6.712v-35.606
				c0-3.707,3.005-6.712,6.712-6.712c3.707,0,6.712,3.005,6.712,6.712v35.606C299.433,710.517,296.428,713.523,292.721,713.523z"/>
		</g>
		<g>
			<path fill="#232122" d="M309.501,908.341h-23.492v-23.492c0-3.707,3.005-6.712,6.712-6.712c3.707,0,6.712,3.005,6.712,6.712
				v10.068h10.068c3.707,0,6.712,3.005,6.712,6.712C316.213,905.336,313.208,908.341,309.501,908.341z"/>
		</g>
		<g>
			<path fill="#232122" d="M546.801,908.341h-29.66c-3.707,0-6.712-3.005-6.712-6.712c0-3.707,3.005-6.712,6.712-6.712h29.66
				c3.707,0,6.712,3.005,6.712,6.712C553.513,905.336,550.508,908.341,546.801,908.341z M487.477,908.341h-29.664
				c-3.707,0-6.712-3.005-6.712-6.712c0-3.707,3.005-6.712,6.712-6.712h29.664c3.707,0,6.712,3.005,6.712,6.712
				C494.189,905.336,491.184,908.341,487.477,908.341z M428.15,908.341h-29.66c-3.707,0-6.712-3.005-6.712-6.712
				c0-3.707,3.005-6.712,6.712-6.712h29.66c3.707,0,6.712,3.005,6.712,6.712C434.862,905.336,431.856,908.341,428.15,908.341z
				 M368.825,908.341h-29.664c-3.707,0-6.712-3.005-6.712-6.712c0-3.707,3.005-6.712,6.712-6.712h29.664
				c3.707,0,6.712,3.005,6.712,6.712C375.538,905.336,372.532,908.341,368.825,908.341z"/>
		</g>
		<g>
			<path fill="#232122" d="M593.249,908.341h-16.78c-3.707,0-6.712-3.005-6.712-6.712c0-3.707,3.005-6.712,6.712-6.712h16.78
				c3.707,0,6.712,3.005,6.712,6.712C599.961,905.336,596.955,908.341,593.249,908.341z"/>
		</g>
	</g>
</g>
</svg>
