<?xml version="1.0" encoding="utf-8"?>
<!--Designed by Vexels.com - 2017 All Rights Reserved - https://vexels.com/terms-and-conditions/-->
<svg version="1.1" id="Layer_1" xmlns="http://www.w3.org/2000/svg" xmlns:xlink="http://www.w3.org/1999/xlink" x="0px" y="0px"
	 viewBox="0 0 1200 1200" enable-background="new 0 0 1200 1200" xml:space="preserve">
<g>
	<g>
		<g>
			<polygon fill="#85F1BE" points="322.151,370.451 146.508,274.018 197.125,192.579 58.472,60.363 340.789,167.354 
				271.939,271.301 			"/>
		</g>
		<g>
			<path fill="#315934" d="M322.148,378.923c-1.393,0-2.794-0.342-4.074-1.045L142.43,281.445c-2.041-1.12-3.53-3.03-4.121-5.279
				c-0.587-2.251-0.226-4.646,1.001-6.621l46.981-75.59L52.626,66.494c-2.918-2.781-3.47-7.234-1.324-10.646
				c2.149-3.41,6.393-4.835,10.174-3.408l282.316,106.99c2.408,0.913,4.269,2.871,5.061,5.323c0.789,2.452,0.422,5.13-1.001,7.278
				l-66.127,99.837l47.985,94.753c1.677,3.315,1.001,7.335-1.669,9.918C326.42,378.108,324.296,378.923,322.148,378.923z
				 M158.424,270.895l143.791,78.946l-37.835-74.713c-1.376-2.718-1.186-5.967,0.496-8.507l62.991-95.103L94.617,83.121
				l108.355,103.326c2.904,2.769,3.467,7.196,1.349,10.603L158.424,270.895z"/>
		</g>
	</g>
	<g>
		<g>
			<polygon fill="#85F1BE" points="911.872,353.217 954.369,292.99 922.091,227.343 1085.155,156.95 1027.656,235.863 
				1056.5,294.526 			"/>
		</g>
		<g>
			<path fill="#315934" d="M911.876,361.69c-2.529,0-4.995-1.135-6.639-3.205c-2.339-2.946-2.455-7.08-0.287-10.152l39.597-56.117
				l-30.06-61.133c-1.023-2.082-1.147-4.493-0.345-6.669c0.8-2.176,2.46-3.929,4.589-4.849l163.064-70.394
				c3.511-1.517,7.593-0.495,9.979,2.489c2.383,2.983,2.477,7.193,0.229,10.279l-54.488,74.778l26.588,54.07
				c1.037,2.111,1.15,4.558,0.314,6.756c-0.838,2.198-2.554,3.95-4.733,4.833l-144.626,58.691
				C914.025,361.488,912.943,361.69,911.876,361.69z M933.623,231.594l28.35,57.658c1.368,2.783,1.106,6.09-0.681,8.623
				l-25.848,36.632l109.437-44.41l-24.828-50.496c-1.387-2.824-1.098-6.185,0.756-8.728l39.244-53.858L933.623,231.594z"/>
		</g>
	</g>
	<g>
		<g>
			<path fill="#FFFFFF" d="M1009.697,499.316c-1.987,2.58-1.948,6.185,0.088,8.724l0.03,0.036c2.043,2.512,5.535,3.312,8.471,1.941
				l127.647-59.768c1.971-0.921,3.405-2.698,3.89-4.82c0.485-2.119-0.035-4.344-1.406-6.03l-41.943-51.571
				c-0.01-0.017-0.024-0.034-0.024-0.034c-2.47-3.033-6.914-3.488-9.94-1.027c-0.678,0.552-1.229,1.199-1.646,1.911
				L1009.697,499.316z"/>
		</g>
		<g>
			<path fill="#FFFFFF" d="M1013.82,541.756c-0.644,2.98,0.687,6.033,3.323,7.582l103.04,60.628
				c2.007,1.183,4.472,1.298,6.582,0.303c2.11-0.991,3.594-2.959,3.967-5.259l11.785-72.797c0.323-1.998-0.226-4.029-1.491-5.584
				c-0.111-0.137-0.227-0.271-0.349-0.399c-1.514-1.599-3.684-2.401-5.872-2.167l-114.825,12.169
				C1016.948,536.553,1014.466,538.781,1013.82,541.756z"/>
		</g>
		<g>
			<path fill="#FFFFFF" d="M983.16,460.744c-0.002,2.892,1.754,5.488,4.43,6.561c2.679,1.074,5.741,0.411,7.736-1.674l47.598-49.832
				c1.543-1.617,2.233-3.868,1.854-6.069c-0.208-1.214-0.724-2.333-1.481-3.264c-0.616-0.757-1.39-1.39-2.284-1.843l-47.515-24.082
				c-2.189-1.11-4.794-1.003-6.887,0.279c-2.087,1.285-3.364,3.557-3.367,6.01L983.16,460.744z"/>
		</g>
		<g>
			<path fill="#FFFFFF" d="M227.975,518.516c0.747-2.307,0.251-4.797-1.241-6.631c-0.292-0.359-0.626-0.696-0.995-1l-119.405-98.146
				c-1.873-1.538-4.4-2.01-6.702-1.247c-2.3,0.761-4.049,2.649-4.63,5.003L68.373,523.687c-0.544,2.181-0.013,4.416,1.426,6.221
				c1.441,1.729,3.617,2.668,5.863,2.527l146.033-9.046C224.59,523.21,227.079,521.274,227.975,518.516z"/>
		</g>
		<g>
			<path fill="#FFFFFF" d="M254.537,408.157c-0.223-1.148-0.729-2.208-1.45-3.094c-0.647-0.796-1.468-1.451-2.419-1.908
				c-2.006-0.963-4.351-0.926-6.325,0.104l-42.016,21.935c-2.123,1.105-3.538,3.208-3.763,5.588c-0.226,2.384,0.78,4.709,2.639,6.2
				l54.86,43.512c2.318,1.837,5.535,2.036,8.059,0.499c2.527-1.54,3.826-4.488,3.259-7.389L254.537,408.157z"/>
		</g>
		<g>
			<path fill="#FFFFFF" d="M216.957,561.719c-0.242-0.507-0.541-0.975-0.892-1.394c-1.384-1.64-3.527-2.51-5.729-2.223
				l-88.429,11.569c-1.938,0.254-3.651,1.377-4.659,3.049c-1.007,1.673-1.19,3.712-0.506,5.541l19.688,52.519
				c0.744,2.004,2.445,3.5,4.525,3.981c2.081,0.491,4.268-0.09,5.829-1.545l68.747-64.086
				C217.567,567.234,218.142,564.239,216.957,561.719z"/>
		</g>
	</g>
	<g>
		<g>
			<g>
				<g>
					<g>
						<path fill="#FFFFFF" d="M625.429,857.032l-0.223-440.22c0,0-3.13-129.06-98.058-125.262
							c-94.921,3.802-94.862,118.237-94.862,118.237s-62.789-30.632-108.696,13.157c-62.779,59.875-38.216,121.256-38.216,121.256
							s-44.4,1.349-68.869,69.229c-24.456,67.873-13.668,205.422,62.902,243.78c0,0-39.756,96.008,0.082,155.993
							c39.84,59.987,120.516,37.766,120.516,37.766s-1.045,59.679,57.147,82.229c58.187,22.544,168.41-14.429,168.355-123.518
							L625.429,857.032z"/>
					</g>
					<g>
						<path fill="#315934" d="M494.073,1148.109c-14.149,0-27.793-2.288-39.983-7.011c-47.651-18.467-59.014-60.298-61.717-79.848
							c-23.976,4.156-85.331,8.749-119.942-43.361c-35.846-53.976-12.155-132.745-3.555-156.809
							c-33.099-19.88-56.802-59.676-67.125-113.087c-9.201-47.623-6.606-100.287,6.782-137.438
							c19.061-52.877,49.992-68.395,66.116-72.943c-4.708-20.764-8.834-71.275,43.095-120.801
							c37.942-36.197,85.419-26.372,106.88-19.149c3.268-31.069,19.701-111.275,102.186-114.579
							c25.46-1.029,47.201,6.705,64.538,22.961c40.11,37.614,42.259,107.601,42.331,110.562l0.303,593.07
							c0.025,47.291-20.291,87.269-57.205,112.568C552.169,1139.109,522.131,1148.109,494.073,1148.109z M400.005,1042.496
							c1.859,0,3.69,0.612,5.193,1.777c2.11,1.637,3.326,4.173,3.279,6.844c-0.028,2.176-0.03,54.12,51.735,74.18
							c30.896,11.974,74.889,4.967,106.982-17.031c22.751-15.594,49.868-45.355,49.841-98.582l-0.301-592.868
							c-0.014-0.448-2.091-65.744-37.021-98.448c-13.892-13.01-31.494-19.192-52.226-18.352
							c-35.75,1.431-61.157,20.029-75.518,55.275c-11.096,27.23-11.209,54.222-11.209,54.492c0.003,2.922-1.503,5.639-3.983,7.189
							c-2.479,1.549-5.585,1.71-8.205,0.43c-2.336-1.131-58.148-27.418-99.135,11.672c-57.577,54.915-37.085,109.704-36.183,112.01
							c1.001,2.565,0.701,5.473-0.816,7.771c-1.52,2.297-4.054,3.729-6.807,3.813c-1.511,0.077-39.173,2.645-61.157,63.635
							c-24.483,67.946-10.293,198.755,58.727,233.331c3.969,1.989,5.728,6.708,4.035,10.812c-0.381,0.92-37.529,92.6-0.69,148.07
							c36.028,54.252,110.46,34.488,111.207,34.285C398.496,1042.596,399.252,1042.496,400.005,1042.496z"/>
					</g>
				</g>
				<g>
					<path fill="#315934" d="M387.169,517.602c-4.269,0-7.94-3.219-8.412-7.56c-0.306-2.809-6.826-69.231,48.746-107.248
						c55.878-38.211,117.565-1.882,120.163-0.319c4.007,2.415,5.301,7.62,2.885,11.629c-2.408,4.009-7.615,5.302-11.62,2.89
						c-0.833-0.494-55.208-32.117-101.86-0.215c-47.289,32.352-41.531,90.847-41.467,91.433c0.505,4.653-2.857,8.833-7.51,9.337
						C387.784,517.585,387.475,517.602,387.169,517.602z"/>
				</g>
				<g>
					<path fill="#315934" d="M374.721,784.791c-43.563,0.004-71.26-31.912-80.698-44.85c-8.682,1.645-24.759,2.983-39.225-5.175
						c-12.637-7.128-21.066-19.617-25.054-37.115c-1.04-4.562,1.815-9.104,6.377-10.143c4.565-1.041,9.107,1.816,10.144,6.378
						c2.882,12.648,8.555,21.436,16.86,26.12c13.97,7.881,31.773,2.342,31.946,2.281c3.801-1.259,7.965,0.317,9.981,3.779
						c1.539,2.609,38.61,63.905,106.574,33.086c68.995-31.304,59.552-98.4,59.116-101.241c-0.386-2.519,0.378-5.09,2.088-6.979
						c1.71-1.891,4.173-2.922,6.724-2.79c121.224,6.344,136.763-79.908,137.359-83.581c0.753-4.609,5.097-7.739,9.703-7.016
						c4.609,0.736,7.758,5.05,7.036,9.663c-0.163,1.025-17.13,100.021-145.492,98.18c0.375,23.151-5.624,80.201-69.533,109.197
						C402.583,781.859,387.922,784.789,374.721,784.791z"/>
				</g>
				<g>
					<path fill="#315934" d="M467.268,845.473c-58.757,0-86.807-62.98-88.029-65.793c-1.864-4.293,0.105-9.282,4.399-11.147
						c4.294-1.862,9.278,0.106,11.14,4.389c0.348,0.783,27.327,60.863,79.834,55.202c35.827-3.881,61.278-15.224,75.65-33.717
						c15.128-19.466,12.406-39.993,12.378-40.199c-0.662-4.632,2.559-8.922,7.19-9.583c4.631-0.676,8.925,2.557,9.584,7.192
						c0.163,1.127,3.715,27.91-15.773,52.988c-17.298,22.259-46.639,35.773-87.204,40.165
						C473.302,845.31,470.244,845.473,467.268,845.473z"/>
				</g>
				<g>
					<path fill="#315934" d="M419.363,1057.622c-30.487,0.001-61.309-11.234-81.335-30.238
						c-16.543-15.7-24.618-35.184-23.355-56.351c0.281-4.671,4.322-8.251,8.964-7.951c4.672,0.279,8.233,4.292,7.954,8.964
						c-1.211,20.232,9.176,34.576,18.101,43.046c19.508,18.511,51.352,28.302,81.216,24.946
						c68.317-7.681,71.136-70.09,71.224-72.743c0.077-2.433,1.2-4.714,3.078-6.262c1.875-1.547,4.33-2.215,6.732-1.827
						c86.914,13.968,105.203-45.694,105.379-46.299c1.299-4.491,5.985-7.087,10.494-5.782c4.496,1.302,7.085,6,5.784,10.496
						c-0.212,0.725-21.538,70.383-115.681,59.516c-3.762,21.3-19.59,72.375-85.119,79.742
						C428.354,1057.377,423.859,1057.622,419.363,1057.622z"/>
				</g>
			</g>
			<g>
				<g>
					<g>
						<path fill="#FFFFFF" d="M624.063,857.03l-0.225-440.218c0,0,2.991-129.06,97.922-125.358
							c94.927,3.706,94.982,118.14,94.982,118.14s62.759-30.701,108.712,13.046c62.842,59.808,38.341,121.215,38.341,121.215
							s44.402,1.301,68.937,69.157c24.528,67.847,13.881,205.402-62.652,243.846c0,0,39.857,95.965,0.077,155.991
							c-39.772,60.027-120.471,37.889-120.471,37.889s1.104,59.681-57.068,82.288c-58.17,22.606-168.419-14.256-168.476-123.343
							L624.063,857.03z"/>
					</g>
					<g>
						<path fill="#315934" d="M755.572,1147.976c-28.016,0-58.002-8.966-82.581-25.775c-36.941-25.261-57.298-65.219-57.323-112.514
							l-0.303-592.87c0.072-3.162,2.146-73.15,42.215-110.803c17.315-16.274,39.004-24.021,64.511-23.024
							c82.49,3.22,99.006,83.407,102.304,114.473c21.449-7.243,68.91-17.125,106.902,19.042
							c51.978,49.47,47.905,99.985,43.219,120.753c16.129,4.533,47.072,20.016,66.185,72.876
							c13.426,37.136,16.079,89.795,6.926,137.428c-10.268,53.421-33.932,93.241-67.012,113.159
							c8.627,24.056,32.402,102.798-3.392,156.81c-34.059,51.398-95.875,47.255-119.879,43.376
							c-2.659,19.506-13.934,61.471-61.656,80.018C783.459,1145.673,769.768,1147.976,755.572,1147.976z M717.856,299.85
							c-19.213,0-35.557,6.206-48.633,18.473c-34.892,32.739-36.9,98.035-36.916,98.691l0.306,592.663
							c0.028,53.232,27.175,82.965,49.943,98.534c32.117,21.966,76.117,28.92,106.99,16.915
							c51.749-20.11,51.694-72.057,51.667-74.258c-0.033-2.661,1.186-5.198,3.293-6.825c2.104-1.627,4.86-2.183,7.422-1.478
							c3.045,0.827,75.322,19.695,111.166-34.398c36.787-55.507-0.461-147.145-0.841-148.064c-1.696-4.101,0.058-8.823,4.024-10.816
							c68.99-34.656,83.042-165.477,58.487-233.394c-22.318-61.722-60.832-63.558-61.218-63.57c-2.766-0.08-5.318-1.506-6.834-3.819
							c-1.52-2.313-1.812-5.221-0.786-7.79c0.885-2.274,21.325-57.083-36.312-111.937c-41.211-39.233-98.573-11.853-99.146-11.573
							c-2.62,1.285-5.726,1.127-8.208-0.422c-2.479-1.546-3.985-4.263-3.988-7.185c-0.011-4.332-1.269-106.337-86.843-109.678
							C720.228,299.873,719.036,299.85,717.856,299.85z"/>
					</g>
				</g>
				<g>
					<path fill="#315934" d="M861.961,517.361c-0.303,0-0.609-0.017-0.916-0.05c-4.653-0.501-8.02-4.678-7.518-9.331
						c0.245-2.387,5.535-59.247-41.561-91.388c-46.807-31.949-101.309-0.008-101.857,0.319c-4.005,2.401-9.215,1.107-11.62-2.899
						c-2.408-4.005-1.125-9.199,2.874-11.616c2.598-1.567,64.243-37.963,120.157,0.199c55.613,37.956,49.157,104.388,48.853,107.197
						C869.907,514.136,866.233,517.359,861.961,517.361z"/>
				</g>
				<g>
					<path fill="#315934" d="M874.604,784.537c-13.181,0.001-27.804-2.918-43.825-10.166
						c-63.937-28.929-69.999-85.975-69.652-109.126c-1.349,0.022-2.681,0.033-4.002,0.033c-124.65,0-141.422-97.049-141.582-98.064
						c-0.728-4.622,2.43-8.96,7.052-9.688c4.595-0.728,8.942,2.416,9.684,7.025l0,0c0.604,3.672,16.126,89.872,137.436,83.441
						c2.504-0.143,5.028,0.887,6.741,2.787c1.713,1.898,2.477,4.468,2.08,6.993c-0.43,2.82-9.802,69.927,59.226,101.16
						c67.994,30.759,105.01-30.584,106.549-33.211c2.024-3.442,6.178-5.022,9.97-3.773c0.157,0.048,18.005,5.642,32.04-2.368
						c8.247-4.705,13.878-13.48,16.736-26.08c1.031-4.563,5.571-7.426,10.136-6.389c4.565,1.036,7.425,5.574,6.39,10.137
						c-3.969,17.501-12.386,29.995-25.016,37.137c-14.463,8.175-30.545,6.852-39.222,5.215
						C945.919,752.553,918.214,784.533,874.604,784.537z"/>
				</g>
				<g>
					<path fill="#315934" d="M782.126,845.31c-2.951,0-5.979-0.159-9.088-0.492c-40.571-4.351-69.928-17.834-87.248-40.074
						c-19.516-25.06-15.988-51.846-15.828-52.974c0.656-4.635,4.973-7.859,9.579-7.201c4.633,0.655,7.858,4.944,7.201,9.576
						c-0.108,0.812-2.557,21.175,12.626,40.454c14.43,18.32,39.826,29.548,75.479,33.371c52.488,5.628,79.503-54.676,79.771-55.285
						c1.87-4.285,6.862-6.247,11.145-4.387c4.286,1.863,6.255,6.84,4.399,11.13C868.944,782.243,840.936,845.31,782.126,845.31z"/>
				</g>
				<g>
					<path fill="#315934" d="M830.188,1057.414c-4.454,0-8.897-0.24-13.302-0.731c-65.537-7.305-81.415-58.364-85.199-79.662
						c-94.124,10.973-115.518-58.668-115.73-59.395c-1.305-4.493,1.28-9.194,5.773-10.5c4.496-1.305,9.171,1.266,10.489,5.735
						c0.756,2.504,19.202,60.183,105.426,46.224c2.405-0.392,4.857,0.274,6.738,1.82c1.878,1.547,3.004,3.827,3.083,6.259
						c0.105,2.633,3.329,65.101,71.296,72.677c29.85,3.321,61.717-6.505,81.202-25.038c8.914-8.478,19.284-22.831,18.057-43.057
						c-0.284-4.671,3.271-8.688,7.943-8.972c4.678-0.251,8.685,3.272,8.969,7.943c1.285,21.161-6.768,40.651-23.292,56.365
						C891.604,1046.139,860.723,1057.412,830.188,1057.414z"/>
				</g>
			</g>
		</g>
		<g>
			<path fill="#DAFBEB" d="M323.59,422.944c-62.779,59.875-38.216,121.256-38.216,121.256s-44.4,1.349-68.869,69.229
				c-24.456,67.873-13.668,205.422,62.902,243.78c0,0-39.756,96.008,0.082,155.993c24.777,37.306,65.339,42.811,92.475,41.644
				c-22.611-37.19-34.829-81.02-35.184-124.949c-1.255-46.304,42.157-77.971,83.933-93.746
				c-30.557-15.192-71.661-25.446-84.69-54.894c-10.838-31.23-44.55-54.777-45.251-86.97c-4.819-50.686-0.875-108.5,54.048-134.967
				c0,0,5.346,6.573,7.537,4.791c8.355-3.155,11.364-12.883,15.337-12.474c19.456,6.018,12.737-6.719,20.684-5.901
				c-38.328-35.883-48.904-81.574-56.013-130.15C329.387,417.767,326.458,420.21,323.59,422.944z"/>
		</g>
		<g>
			<path fill="#DAFBEB" d="M926.468,486.705c4.674,32.603-15.309,70.697-38.856,104.41c0,0,4.937,10.546,7.128,8.764
				c36.576-4.265,48.641,15.046,53.315,47.649c-0.818,7.946,4.528,14.519,9.874,21.093c4.937,10.546-2.045,19.865-1.081,30.003
				c1.255,46.304-47.766,93.454-90.097,95.119c-6.164,1.373-19.456-6.018-29.594-5.055c12.474,15.337,24.948,30.675,20.712,52.322
				c1.373,6.164,12.883,11.364,14.256,17.529c5.492,24.657,14.957,49.722,4.556,72.743c-3.009,9.728-7.8,17.265-13.001,28.775
				c-10.81,26.993-44.23,39.613-75.197,28.395c-23.429-6.427-30.703-33.275-48.932-51.213c7.42,44.931,30.322,95.471,4.175,134.939
				c-14.093,20.176-32.174,37.049-52.134,51.296c33.8,17.592,73.318,20.32,101.026,9.552c58.172-22.607,57.068-82.288,57.068-82.288
				s80.699,22.138,120.471-37.889c39.78-60.026-0.077-155.991-0.077-155.991c76.534-38.444,87.181-175.999,62.652-243.846
				c-24.535-67.855-68.937-69.157-68.937-69.157s24.501-61.407-38.341-121.215c-19.43-18.497-41.856-23.664-61.284-23.488
				C891.611,426.139,919.03,453.308,926.468,486.705z"/>
		</g>
	</g>
</g>
</svg>
