<?xml version="1.0" encoding="utf-8"?>
<!--Designed by Vexels.com - 2018 All Rights Reserved - https://vexels.com/terms-and-conditions/-->
<svg version="1.1" id="Layer_1" xmlns="http://www.w3.org/2000/svg" xmlns:xlink="http://www.w3.org/1999/xlink" x="0px" y="0px"
	 viewBox="0 0 1200 1200" enable-background="new 0 0 1200 1200" xml:space="preserve">
<g>
	<g>
		<circle fill="#D95C52" cx="600" cy="600" r="550"/>
	</g>
	<g>
		<g>
			<path fill="#EBC153" d="M535.941,357.22c-59.851,6.033-109.874,19.917-148.166,33.947c-15.392,5.639-25.247,18.461-25.247,32.548
				v211.796v211.797c0,14.086,9.855,26.908,25.247,32.548c38.292,14.03,88.315,27.915,148.166,33.947
				c120.265,12.122,218.709-13.661,275.852-34.05c15.611-5.569,25.679-18.474,25.679-32.702v-211.54V423.972
				c0-14.228-10.068-27.132-25.679-32.702C754.651,370.881,656.206,345.099,535.941,357.22z"/>
		</g>
		<g>
			<path d="M597.695,931.305c-20.37,0-41.463-0.979-63.201-3.171c-52.008-5.242-103.04-16.935-151.675-34.751
				c-21.078-7.726-34.695-25.814-34.695-46.077V423.715c0-20.266,13.617-38.351,34.695-46.075
				c48.63-17.818,99.662-29.511,151.678-34.753l0,0c118.945-11.977,219.079,12.314,282.136,34.815
				c21.411,7.638,35.242,25.799,35.242,46.268v423.08c0,20.469-13.831,38.631-35.24,46.269
				C765.101,911.709,688.786,931.303,597.695,931.305z M537.384,371.552c-49.616,5.003-98.285,16.152-144.652,33.141
				c-9.597,3.516-15.798,10.984-15.798,19.022v423.592c0,8.038,6.201,15.506,15.798,19.025
				c46.37,16.988,95.041,28.135,144.652,33.138c113.625,11.453,209.303-11.778,269.568-33.284
				c9.788-3.494,16.113-11.004,16.113-19.135v-423.08c0-8.132-6.325-15.64-16.113-19.135
				C746.681,383.335,650.995,360.101,537.384,371.552L537.384,371.552z"/>
		</g>
		<g>
			<path fill="#89C8E9" d="M700.749,335.45h-38.306c0-28.921-27.956-52.367-62.442-52.367c-34.486,0-62.442,23.446-62.442,52.367
				h-38.306c-20.412,0-36.96,13.878-36.96,30.997v2.685c0,17.118,16.548,30.996,36.96,30.996h201.496
				c20.412,0,36.959-13.878,36.959-30.996v-2.685C737.708,349.328,721.16,335.45,700.749,335.45z"/>
		</g>
		<g>
			<path d="M700.747,414.534H499.252c-28.321,0-51.364-20.367-51.364-45.402v-2.684c0-25.035,23.042-45.403,51.364-45.403h25.702
				c7.6-29.918,38.363-52.368,75.046-52.368c36.686,0,67.449,22.45,75.048,52.368h25.699c28.324,0,51.367,20.367,51.367,45.403
				v2.684C752.114,394.167,729.071,414.534,700.747,414.534z M499.252,349.857c-12.224,0-22.553,7.596-22.553,16.591v2.684
				c0,8.995,10.329,16.591,22.553,16.591h201.495c12.227,0,22.556-7.596,22.556-16.591v-2.684c0-8.995-10.329-16.591-22.556-16.591
				h-38.303c-7.957,0-14.406-6.449-14.406-14.406c0-20.933-21.549-37.963-48.039-37.963c-26.487,0-48.036,17.03-48.036,37.963
				c0,7.957-6.449,14.406-14.406,14.406H499.252z"/>
		</g>
		<g>
			<rect x="421.041" y="469.382" fill="#FFFFFF" width="98.057" height="82.236"/>
		</g>
		<g>
			<rect x="421.041" y="611.68" fill="#FFFFFF" width="98.057" height="82.236"/>
		</g>
		<g>
			<rect x="421.041" y="753.979" fill="#FFFFFF" width="98.057" height="82.236"/>
		</g>
		<g>
			<path d="M519.096,560.261h-98.054c-4.775,0-8.643-3.869-8.643-8.643v-82.236c0-4.775,3.869-8.643,8.643-8.643h98.054
				c4.775,0,8.643,3.869,8.643,8.643v82.236C527.74,556.393,523.871,560.261,519.096,560.261z M429.685,542.975h80.768v-64.95
				h-80.768V542.975z"/>
		</g>
		<g>
			<path d="M778.96,519.142H581.377c-4.774,0-8.643-3.869-8.643-8.643c0-4.774,3.869-8.643,8.643-8.643H778.96
				c4.775,0,8.643,3.869,8.643,8.643C787.604,515.273,783.735,519.142,778.96,519.142z"/>
		</g>
		<g>
			<path d="M519.096,702.559h-98.054c-4.775,0-8.643-3.869-8.643-8.643v-82.237c0-4.774,3.869-8.643,8.643-8.643h98.054
				c4.775,0,8.643,3.869,8.643,8.643v82.237C527.74,698.691,523.871,702.559,519.096,702.559z M429.685,685.272h80.768v-64.95
				h-80.768V685.272z"/>
		</g>
		<g>
			<path d="M778.96,661.442H581.377c-4.774,0-8.643-3.869-8.643-8.643c0-4.774,3.869-8.643,8.643-8.643H778.96
				c4.775,0,8.643,3.869,8.643,8.643C787.604,657.573,783.735,661.442,778.96,661.442z"/>
		</g>
		<g>
			<path d="M519.096,844.857h-98.054c-4.775,0-8.643-3.869-8.643-8.643V753.98c0-4.775,3.869-8.643,8.643-8.643h98.054
				c4.775,0,8.643,3.869,8.643,8.643v82.234C527.74,840.988,523.871,844.857,519.096,844.857z M429.685,827.571h80.768v-64.948
				h-80.768V827.571z"/>
		</g>
		<g>
			<path d="M778.96,803.74H581.377c-4.774,0-8.643-3.869-8.643-8.643c0-4.775,3.869-8.643,8.643-8.643H778.96
				c4.775,0,8.643,3.869,8.643,8.643C787.604,799.871,783.735,803.74,778.96,803.74z"/>
		</g>
		<g>
			<path d="M470.07,534.267c-2.265,0-4.443-0.889-6.061-2.481l-26.371-25.93c-3.404-3.345-3.449-8.817-0.101-12.222
				c3.342-3.404,8.817-3.451,12.222-0.104l19.974,19.642l58.816-64.442c3.219-3.522,8.689-3.776,12.211-0.557
				c3.525,3.219,3.776,8.686,0.557,12.211l-64.864,71.067c-1.583,1.733-3.803,2.749-6.149,2.813
				C470.225,534.267,470.149,534.267,470.07,534.267z"/>
		</g>
		<g>
			<path d="M470.07,679.688c-2.265,0-4.443-0.89-6.061-2.481l-26.371-25.93c-3.404-3.345-3.449-8.817-0.101-12.222
				c3.342-3.404,8.817-3.452,12.222-0.104l19.974,19.641l58.816-64.441c3.219-3.523,8.689-3.778,12.211-0.557
				c3.525,3.219,3.776,8.685,0.557,12.211l-64.864,71.067c-1.583,1.732-3.803,2.748-6.149,2.813
				C470.225,679.688,470.149,679.688,470.07,679.688z"/>
		</g>
		<g>
			<path d="M470.07,817.405c-2.265,0-4.443-0.888-6.061-2.481l-26.371-25.93c-3.404-3.345-3.449-8.817-0.101-12.222
				c3.342-3.404,8.817-3.452,12.222-0.104l19.974,19.641l58.816-64.441c3.219-3.526,8.689-3.776,12.211-0.557
				c3.525,3.219,3.776,8.686,0.557,12.211l-64.864,71.067c-1.583,1.733-3.803,2.75-6.149,2.814
				C470.225,817.405,470.149,817.405,470.07,817.405z"/>
		</g>
	</g>
</g>
</svg>
