<?xml version="1.0" encoding="UTF-8"?>
<!-- Designed by Vexels.com - 2020 All Rights Reserved - https://vexels.com/terms-and-conditions/  -->
<svg version="1.1" id="Layer_1" xmlns="http://www.w3.org/2000/svg" xmlns:xlink="http://www.w3.org/1999/xlink" x="0px" y="0px" viewBox="0 0 1200 1200" enable-background="new 0 0 1200 1200" xml:space="preserve">
<g>
	<path fill="#D0E2F5" d="M921.985,204.645c15.183,6.911,30.11,14.82,44.735,23.869c107.673,66.622,176.501,189.868,182.237,316.363   c3.784,83.49-1.455,167.792-37.073,245.334c-49.29,107.306-164.855,169.882-271.537,206.33   c-73.217,25.015-150.754,37.331-228.118,36.234c-130.687-1.853-275.006-33.525-376.568-121.604   C153.427,839.856,93.563,743.11,66.438,637.692c-25.228-98.047-25.59-176.086,28.7-266.738   c10.804-18.04,23.465-35.47,40.522-47.768c55.292-39.865,131.731-13.551,199.747-18.071   c83.461-5.547,144.065-57.516,215.667-93.143C666.526,154.528,807.535,152.549,921.985,204.645z"/>
	<g>
		<path fill="#D14953" d="M918.108,954.008c3.489-3.103,7.604-5.498,11.398-8.266c13.426-9.8,22.714-22.569,27.947-38.393    c4.246-12.84,6.503-25.965,7.103-39.462c1.355-30.411-2.992-60.227-8.926-89.903c-1.443-7.214-2.987-14.426-3.986-21.707    c-5.146-37.515-19.651-70.704-44.008-99.893c-16.557-19.841-35.047-36.954-58.187-48.743c-1.781-0.908-3.561-1.946-5.065-3.244    c-3.781-3.263-7.776-4.49-11.988-4.482c4.937,6.266,9.443,15.154,11.161,18.568c3.026,6.018,5.799,12.131,8.291,18.348    c0.124,0.309,0.267,0.612,0.39,0.922c0.64,1.616,1.193,3.257,1.791,4.889c0.252,0.696,0.523,1.394,0.767,2.092    c0.839,2.37,1.618,4.761,2.365,7.165l0,0c0.604,1.945,1.247,3.883,1.786,5.853c2.455,8.974,11.375,43.231,12.286,46.826    c2.269,8.948,5.686,17.177,8.273,25.796c0.093,0.309,0.171,0.625,0.262,0.936c0.733,2.517,1.402,5.064,1.93,7.683    c0.096,0.477,0.188,0.955,0.275,1.436c0.233,1.279,0.448,2.652-0.089,3.836c-0.691,1.524-2.395,2.266-3.953,2.875    c-4.614,1.804-9.235,3.607-13.872,5.37c0.253,1.272,0.465,2.557,0.697,3.833l0,0c0.864,4.752,1.637,9.527,2.273,14.315    c2.122,15.969,2.998,32.051,3,44.6c-0.895,14.277-1.481,24.995-2.258,35.7c-1.318,18.155-5.856,35.714-10.631,53.157    c-3.664,13.383-9.007,16.897-24.272,12.403c-3.732-1.098-7.319-2.543-10.829-4.159c0.792,6.084-1.125,11.62-2.472,17.333    c-2.101,8.911-6.373,15.563-12.812,20.427c1.936,7.323,3.174,14.808,3.963,22.372c0,0,0.244,2.31,0.333,3.344    c0.699,8.011,0.682,16.085,0.834,20.102c-0.053,3.359-0.113,6.548-0.183,9.667c9.613-2.811,19.167-5.826,28.645-9.065    c20.521-7.011,41.367-15,62.008-24.076c0.861-1.88,1.861-3.745,3.175-5.556C909.027,962.095,913.624,957.996,918.108,954.008z     M881.825,950.425c5.985,5.529,13.23,8.214,20.415,7.546c0.263-0.022,0.492,0.168,0.515,0.428    c0.024,0.258-0.168,0.489-0.427,0.513c-0.748,0.068-1.495,0.103-2.242,0.103c-6.701,0-13.339-2.755-18.903-7.896    c-7.855-7.258-12.651-18.312-12.516-28.847c0.199-15.442,8.027-31.433,23.932-48.882c3.295-3.616,6.776-7.195,10.142-10.654    c9.324-9.583,18.966-19.49,25.625-31.233c9.264-16.336,13.187-37.283,11.35-60.581c-1.654-20.954-7.489-41.438-13.13-61.246    c-0.072-0.251,0.074-0.512,0.325-0.584c0.258-0.074,0.513,0.074,0.583,0.325c5.655,19.852,11.502,40.382,13.164,61.43    c1.855,23.486-2.113,44.622-11.468,61.12c-6.72,11.85-16.404,21.802-25.77,31.427c-3.361,3.455-6.838,7.027-10.122,10.63    c-15.74,17.272-23.489,33.058-23.686,48.258C869.482,932.56,874.161,943.345,881.825,950.425z"/>
		<path fill="#D14953" d="M577.508,949.359c1.278-0.75,2.66-1.906,3.434-3.183c0.198-0.327,0.386-0.658,0.487-0.997    c1.14-3.808,2.102-7.669,3.066-11.529c-2.585-1.724-5.139-3.501-7.623-5.407c-2.032-1.558-3.336-3.541-3.799-5.71    c-0.465-2.169-0.09-4.525,1.236-6.828c2.322-4.033,4.753-8.175,7.933-11.508c5.875-6.158,9.152-13.001,9.985-20.59    c0.178-1.62,0.236-3.278,0.2-4.964c-0.006-0.16,0.002-0.316-0.005-0.476c-0.059-1.745-0.228-3.526-0.543-5.353l0,0    c-0.553-3.212-0.956-6.419-1.289-9.622c-0.073-0.704-0.138-1.408-0.2-2.112c-1.121-12.614-0.553-25.162,1.669-37.687l0,0    c0.504-2.835,1.064-5.669,1.734-8.502c0.472-1.998,0.838-4.021,1.16-6.054c0.111-0.701,1.657-12.812,2.128-15.831    c0.323-2.078,0.379-4.039,0.199-5.91c-2.159,3.864-4.37,7.76-6.36,11.212c-0.02-0.045-0.066-0.2-0.121-0.396    c-8.328,13.83-17.263,27.287-27.189,40.03c-13.323,17.105-35.293,50.573-59.103,28.089c-5.408-5.107-8.908-11.799-11.761-18.728    c-3.533,2.203-7.049,4.433-10.516,6.736c-7.306,4.854-13.846,10.614-19.038,17.765c-17.109,23.564-7.33,50.647,9.727,62.43    c4.922,3.399,10.381,6.167,15.887,8.544c15.541,6.709,31.966,9.906,48.76,11.412c4.707,0.422,9.411,0.876,14.117,1.308    c9.74-2.168,16.805-3.746,20.063-4.485C573.704,950.569,575.838,950.339,577.508,949.359z"/>
		<path fill="#1B2D44" d="M668.238,578.103c0.804-1.496,4.191-1.529,5.146-0.136c3.765-1.644,7.558-3.229,11.361-4.776    c-10.431-5.514-18.138-15.764-20.303-27.398c-0.799-4.301-0.868-8.737-0.934-13.027c-0.032-1.996-0.065-4.059-0.17-6.077    c-0.134-2.556-0.43-5.096-0.801-7.624c-1.403-1.585-2.753-3.229-4.003-4.967c-9.583-13.326-14.645-27.957-12.465-43.407    c-0.495-8.421,1.957-17.373,2.998-25.503c0.768-5.999,1.42-12.017,2.064-18.036c-0.075-0.21-0.178-0.369-0.201-0.666    c-0.054-0.697,0.143-1.287,0.468-1.802c0.932-8.692,1.871-17.38,3.123-26.01c0.211-1.458,2.051-1.359,2.783-0.384    c-1.107-1.969-1.865-4.114-2.241-6.388l0,0l0,0c-0.748-4.534-0.022-9.584,2.362-14.781c1.838-4.008,4.211-7.559,7.201-10.594    c-2.946,1.228-5.662,2.936-8.016,5.196c-13.328,12.792-20.133,28.128-17.5,46.905c0.558,3.973,1.555,7.89,2.026,11.87    c1.582,13.346,2.834,26.691-2.496,39.623c-0.502,1.22-0.635,2.596-0.909,3.906c-2.532,12.15-1.99,23.948,3.974,35.148    c1.257,2.36,2.294,4.836,3.521,7.214c4.128,8,5.727,16.353,3.879,25.286c-0.677,3.271-1.049,6.606-1.413,8.962    c-0.083,1.633-0.171,2.304-0.143,2.969c0.678,16.132,6.039,23.469,17.573,28.16c0.463-0.227,0.943-0.424,1.407-0.647    C667.049,580.1,667.703,579.1,668.238,578.103z"/>
		<path fill="#1B2D44" d="M659.321,401.198c-0.611-0.736-1.176-1.498-1.665-2.299c0.424,1.426,0.78,2.851,1.094,4.275    C658.916,402.501,659.117,401.849,659.321,401.198z"/>
		<path fill="#1B2D44" d="M696.254,572.182c0.033,0.025,0.033,0.067,0.056,0.097c2.073-0.622,5.522-1.619,6.815-3.487    c1.371-1.982,0.544-4.626,0.227-6.942c-0.853-6.223-2.297-12.365-4.303-18.317c-0.352-1.046-0.691-2.309-1.105-3.575    c-0.16-0.04-0.311-0.109-0.442-0.229c-0.316-0.29-0.398-0.747-0.494-1.165c-0.985-4.296-5.029-5.485-8.976-6.026    c-0.599-0.078-1.193-0.149-1.686-0.201c-1.38-0.145-2.711-0.384-4.002-0.695c-3.304-0.765-6.335-2.022-9.14-3.643    C674.226,545.066,682.666,561.776,696.254,572.182z"/>
		<path fill="#1B2D44" d="M672.212,527.382c-3.117-1.938-5.957-4.304-8.517-7.015c0.268,2.083,0.478,4.173,0.589,6.274    c0.105,2.035,0.138,4.107,0.17,6.111c0.064,4.249,0.133,8.646,0.919,12.868c2.166,11.641,10.012,21.873,20.588,27.143    c3.17-1.084,5.788-1.071,7.83,0.277c0.494-0.148,0.986-0.297,1.479-0.445C681.535,561.865,673.058,544.774,672.212,527.382z"/>
		<path fill="#5780B5" d="M685.96,572.762c-10.575-5.27-18.422-15.502-20.588-27.143c-0.786-4.221-0.855-8.619-0.919-12.868    c-0.032-2.004-0.064-4.076-0.17-6.111c-0.111-2.101-0.32-4.191-0.589-6.274c-0.398-0.421-0.772-0.868-1.158-1.303    c0.371,2.529,0.667,5.068,0.801,7.624c0.104,2.018,0.138,4.081,0.17,6.077c0.066,4.29,0.135,8.726,0.934,13.027    c2.166,11.634,9.873,21.885,20.303,27.398l0.066-0.028C685.208,573.002,685.579,572.893,685.96,572.762z"/>
		<path fill="#5780B5" d="M695.269,572.594c0.311-0.094,1.041-0.315,1.041-0.315c-0.023-0.03-0.023-0.072-0.056-0.097    c-13.588-10.407-22.029-27.116-23.049-44.183c-0.338-0.195-0.662-0.412-0.993-0.618    C673.058,544.774,681.535,561.865,695.269,572.594z"/>
		<path fill="#1B2D44" d="M655.007,422.302c0.717-0.237,1.466-0.367,2.205-0.535c0.251-3.316,0.415-6.648,0.448-10.008    c0.029-3.055,0.427-5.898,1.091-8.585c-0.315-1.425-0.671-2.85-1.094-4.275c-0.122-0.201-0.237-0.405-0.351-0.609    c-0.732-0.975-2.572-1.074-2.783,0.384c-1.252,8.629-2.192,17.318-3.123,26.01C652.158,423.481,653.705,422.732,655.007,422.302z"/>
		<path fill="#1B2D44" d="M656.673,427.395c-0.849,0.159-1.7,0.311-2.549,0.543c-1.315,0.361-2.549,0.466-2.992-0.786    c-0.645,6.019-1.297,12.037-2.064,18.036c-1.041,8.13-3.493,17.082-2.998,25.503c0.545-3.863,1.523-7.774,3.018-11.732    C653.007,448.589,655.438,438.094,656.673,427.395z"/>
		<path fill="#EC8773" d="M672.212,527.382c0.331,0.206,0.655,0.422,0.993,0.618c2.805,1.621,5.836,2.879,9.14,3.643    c-1.262-0.304-2.487-0.676-3.678-1.105c7.234,1.501,14.551,0.713,21.717-0.755c3.168-0.649,6.041-1.464,9.012-2.602    c1.353-0.518,8.688-2.481,8.946-4.03c-0.418,2.506-2.027,4.639-3.722,6.532c-4.384,4.895-9.231,7.218-15.015,9.939    c-0.516,0.242-1.145,0.465-1.66,0.336c0.414,1.267,0.753,2.53,1.105,3.575c2.006,5.952,3.45,12.094,4.303,18.317    c0.317,2.316,1.144,4.959-0.227,6.942c-1.293,1.868-4.742,2.865-6.815,3.487c0,0-2.027,0.612-2.521,0.76    c1.176,0.776,2.177,1.957,2.97,3.663c6.334,13.626,18.089,17.653,31.232,19.222c1.479-3.6,3.133-7.12,5.095-10.508    c2.688-4.642,5.37-9.293,8.236-13.826c6.181-9.776,9.883-20.481,12.224-31.724c0.605-2.905-0.578-5.3-2.43-7.299    c-2.275-2.455-4.829-4.648-7.207-7.009c-3.935-3.907-5.994-8.854-7.479-14.056c-1.511-5.296-1.551-10.649,0.509-15.805    c1.986-4.974,4-9.971,6.493-14.699c3.259-6.178,4.252-12.657,3.775-19.471c-0.233-3.344-0.292-6.754-1.029-9.998    c-2.087-9.189-3.347-18.43-3.164-27.87c0.019-1.001-0.337-1.831-0.867-2.543c-0.635-0.853-1.532-1.526-2.508-2.009    c-2.951-1.461-6.309-2.419-9.217-3.879c-0.368-0.185-0.717-0.391-1.068-0.595c-0.829-0.47-1.627-0.974-2.322-1.596    c-0.762-0.681-1.524-1.293-2.288-1.847c-0.718-0.519-1.439-0.973-2.165-1.378c-0.037-0.021-0.075-0.05-0.112-0.071    c-1.533-0.844-3.085-1.438-4.68-1.789c-3.394-0.747-6.979-0.39-10.973,1.091c-2.269,0.841-5.471,0.35-7.857-0.555    c-5.356-2.03-10.33-1.832-15.619,0.232c-3.777,1.474-7.902,1.425-11.869,0.199c-5.247-1.621-9.323-4.314-12.149-7.723    c-0.204,0.651-0.405,1.303-0.571,1.976c-0.664,2.687-1.062,5.53-1.091,8.585c-0.033,3.361-0.197,6.693-0.448,10.008    c4.248-0.965,8.76-0.836,12.764,0.846c1.135,0.476,2.271,1.111,2.921,2.155c0.652,1.043,0.64,2.585-0.315,3.36    c-1.129,0.918-2.786,0.364-4.166-0.1c-3.909-1.317-7.823-1.366-11.743-0.633c-1.235,10.699-3.666,21.194-7.586,31.564    c-1.495,3.958-2.473,7.869-3.018,11.732c-2.18,15.45,2.882,30.081,12.465,43.407c1.249,1.738,2.6,3.382,4.003,4.967    c0.386,0.435,0.76,0.882,1.158,1.303C666.255,523.079,669.095,525.444,672.212,527.382z M713.556,446.507    c-0.643,3.595-3.337,6.121-6.017,5.641c-2.681-0.479-4.333-3.782-3.691-7.377c0.644-3.595,3.338-6.121,6.018-5.641    C712.547,439.609,714.198,442.912,713.556,446.507z M706.61,424.219c5.007-0.965,10.396-0.338,14.806,2.22    c1.065,0.617,2.111,1.392,2.623,2.51s0.304,2.645-0.741,3.292c-1.237,0.766-2.811,0.005-4.119-0.632    c-4.514-2.196-9.264-2.601-14.165-1.915c-1.577,0.221-3.087,0.228-2.981-1.848C702.152,425.519,704.687,424.59,706.61,424.219z     M670.281,461.141c6.614-8.31,9.041-19.402,9.041-19.402c0.585,2.929,1.258,15.5-1.019,23.413    C676.026,473.065,666.053,466.452,670.281,461.141z M692.281,482.751c0.65,1.843-3.361,13.659-14.743,14.201    c-11.382,0.542-17.031-10.969-15.938-15.393C662.159,479.296,691.631,480.908,692.281,482.751z M657.162,442.931    c0.643-3.595,3.337-6.121,6.018-5.641c2.68,0.479,4.332,3.783,3.69,7.377c-0.643,3.595-3.337,6.121-6.018,5.641    C658.171,449.829,656.519,446.526,657.162,442.931z"/>
		<path fill="#EC8773" d="M688.032,532.539c-0.567-0.078-1.132-0.142-1.686-0.201C686.839,532.39,687.433,532.461,688.032,532.539z"/>
		<path fill="#F5D0CA" d="M614.22,950.086c0.177,0.064,0.362,0.125,0.539,0.189c-10.445-4.94-20.666-10.222-30.264-16.625    c-0.964,3.861-1.926,7.721-3.066,11.529c0.113-0.376,0.208-0.757,0.317-1.134C592.821,942.729,603.853,946.326,614.22,950.086z"/>
		<path fill="#F5D0CA" d="M784.577,990.666l-2.631-15.457c-6.884-0.067-13.757-0.526-20.607-1.344    c-17.199,6.614-36.921,7.552-56.092,5.32c3.459,2.439,6.708,5.189,8.878,8.586c0.021,0.034,0.026,0.098,0.026,0.098    c5.927,3.623,11.421,7.955,16.27,12.925c0.183,0.187,0.179,0.486-0.007,0.668c-0.092,0.091-0.212,0.135-0.33,0.135    c-0.124,0-0.246-0.048-0.338-0.142c-4.681-4.796-9.965-8.998-15.664-12.528c-0.274,0.373-0.765,0.613-1.258,0.537    c-7.147-1.108-13.711-6.075-19.622-10.025c-1.505-1.006-3.028-1.981-4.54-2.966c-6.81-1.417-13.418-3.161-19.685-5.108    c11.224,5.676,22.494,12.509,32.259,20.299c3.764,2.519,7.43,5.18,10.966,8.007c5.635,4.502,11.76,10.101,14.481,17.481    c0.09,0.246-0.035,0.517-0.279,0.608c-0.055,0.02-0.111,0.03-0.164,0.03c-0.192,0-0.373-0.118-0.443-0.308    c-2.641-7.163-8.652-12.65-14.185-17.071c-0.909-0.727-1.845-1.42-2.77-2.126c1.813,1.708,3.596,3.432,5.229,5.215    c0.357,0.389,0.013,1.181-0.561,0.963c-23.46-8.903-42.077-24.778-67.014-31.111c-10.125-2.571-20.918-3.269-30.012-8.743    c-11.967-7.203-21.915-13.985-35.541-18.431c-0.774,1.278-2.156,2.433-3.434,3.183c-1.67,0.98-3.804,1.21-5.761,1.655    c-3.258,0.739-137.95,30.624-191.705,42.498c74.53,26.852,155.688,38.18,232.187,39.265    c57.224,0.811,114.539-5.737,170.134-19.313C786.891,1007.296,785.909,998.492,784.577,990.666z M717.186,1007.607    c-0.244,0-0.243-0.378,0-0.378C717.429,1007.228,717.429,1007.607,717.186,1007.607z"/>
		<path fill="#F5D0CA" d="M811.052,975.838c-0.089-1.034-0.203-2.064-0.308-3.095c0.015,0.156,0.031,0.311,0.046,0.467    c-0.069,0.067-0.144,0.132-0.247,0.146c-8.894,1.265-17.828,1.896-26.755,1.896c-0.294,0-0.587-0.019-0.88-0.021l2.602,15.276    c1.307,7.666,2.248,16.252-1.815,22.64c9.389-2.313,18.727-4.827,28.008-7.541c0.071-3.119,0.13-6.308,0.183-9.667    C811.734,991.923,811.75,983.849,811.052,975.838z"/>
		<path fill="#F5D0CA" d="M784.364,959.764c-1.169,1.058-2.348,2.097-3.569,3.066l1.947,11.435    c9.231,0.052,18.47-0.537,27.667-1.845c0.114-0.024,0.218,0.015,0.309,0.073c-0.788-7.565-2.027-15.049-3.963-22.372    c-3.337,2.52-7.219,4.588-11.756,6.181C791.466,957.543,787.918,958.674,784.364,959.764z"/>
		<path fill="#F5D0CA" d="M763.088,973.147c6.217,0.687,12.454,1.05,18.697,1.117l-1.831-10.753    C774.748,967.514,769.079,970.681,763.088,973.147z"/>
		<path fill="#B49D98" d="M657.885,966.19c-2.209-0.535-4.402-1.146-6.593-1.76c-0.492-0.137-0.987-0.259-1.478-0.4    c-1.478-0.428-2.947-0.896-4.417-1.359c-1.285-0.404-2.57-0.813-3.849-1.245c-1.237-0.419-2.471-0.851-3.702-1.296    c-1.624-0.585-6.775-2.571-7.731-2.963c-2.589-1.059-5.169-2.161-7.732-3.338l-0.043-0.019c-2.536-1.165-5.063-2.345-7.58-3.536    c-0.177-0.064-0.362-0.124-0.539-0.189c-10.367-3.759-21.399-7.357-32.474-6.041c-0.109,0.377-0.204,0.758-0.317,1.134    c-0.102,0.339-0.289,0.67-0.487,0.997c13.626,4.446,23.574,11.228,35.541,18.431c9.094,5.474,19.887,6.172,30.012,8.743    c24.938,6.333,43.554,22.209,67.014,31.111c0.574,0.218,0.917-0.574,0.561-0.963c-1.634-1.784-3.417-3.507-5.229-5.215    c-25.569-19.53-57.096-31.335-89.208-33.284c-0.261-0.017-0.458-0.24-0.443-0.502c0.017-0.249,0.238-0.443,0.487-0.443    c28.948,1.759,57.443,11.474,81.558,27.61c-9.765-7.791-21.035-14.624-32.259-20.299c-3.148-0.978-6.219-2-9.174-3.064    C658.63,967.879,658.055,967.062,657.885,966.19z"/>
		<path fill="#B49D98" d="M717.186,1007.607c0.243,0,0.243-0.378,0-0.378C716.943,1007.228,716.942,1007.607,717.186,1007.607z"/>
		<path fill="#B49D98" d="M693.201,979.438c5.911,3.95,12.475,8.917,19.622,10.025c0.494,0.076,0.985-0.164,1.258-0.537    c-5.285-3.274-10.926-5.973-16.807-7.981c-0.248-0.083-0.379-0.353-0.294-0.6c0.084-0.246,0.349-0.38,0.601-0.294    c5.789,1.977,11.346,4.624,16.569,7.817c0,0-0.005-0.065-0.026-0.098c-2.169-3.396-5.418-6.147-8.878-8.586    c-5.603-0.653-11.155-1.582-16.586-2.712C690.173,977.457,691.696,978.432,693.201,979.438z"/>
		<path fill="#B49D98" d="M784.364,959.764c-1.297,0.398-2.595,0.777-3.895,1.155l0.326,1.911    C782.016,961.861,783.195,960.822,784.364,959.764z"/>
		<path fill="#B49D98" d="M748.203,971.401c0.05-0.255,0.281-0.425,0.552-0.379c4.76,0.898,9.541,1.594,14.333,2.124    c5.991-2.466,11.66-5.633,16.865-9.637l-0.399-2.34c-27.811,7.987-56.225,11.439-85.392,10.149    c-5.237-0.232-10.409-0.721-15.54-1.368l0,0c-2.306-0.291-4.604-0.629-6.889-1.003c-0.282-0.046-0.564-0.095-0.846-0.142    c-2.249-0.378-4.492-0.784-6.721-1.243l0,0c-2.1-0.432-4.199-0.87-6.282-1.374c0.17,0.872,0.745,1.689,1.917,2.11    c2.955,1.064,6.026,2.086,9.174,3.064c6.267,1.947,12.875,3.69,19.685,5.108c5.431,1.131,10.983,2.06,16.586,2.712    c19.171,2.232,38.893,1.294,56.092-5.32c-4.263-0.509-8.519-1.112-12.758-1.911C748.325,971.904,748.156,971.656,748.203,971.401z    "/>
		<path fill="#B49D98" d="M785.509,990.507l-2.602-15.276c-0.321-0.001-0.641-0.019-0.961-0.022l2.631,15.457    c1.332,7.826,2.314,16.629-2.215,22.796c0.443-0.108,0.89-0.206,1.332-0.315C787.756,1006.76,786.816,998.174,785.509,990.507z"/>
		<path fill="#B49D98" d="M781.785,974.263c0.319,0.003,0.639,0,0.958,0.002l-2.273-13.346c-0.304,0.089-0.61,0.164-0.915,0.251    L781.785,974.263z"/>
		<path fill="#B49D98" d="M782.742,974.265c-0.319-0.002-0.638,0.001-0.958-0.002c-6.243-0.067-12.48-0.429-18.697-1.117    c-4.792-0.53-9.573-1.226-14.333-2.124c-0.271-0.046-0.502,0.124-0.552,0.379c-0.047,0.255,0.122,0.502,0.378,0.552    c4.238,0.799,8.494,1.402,12.758,1.911c6.85,0.818,13.724,1.277,20.607,1.344c0.32,0.003,0.64,0.021,0.961,0.022    c0.293,0.001,0.586,0.021,0.88,0.021c8.927,0,17.861-0.632,26.755-1.896c0.102-0.014,0.178-0.078,0.247-0.146    c-0.015-0.156-0.071-0.716-0.071-0.716c-0.091-0.058-0.196-0.097-0.309-0.073C801.213,973.729,791.973,974.317,782.742,974.265z"/>
		<path fill="#B49D98" d="M619.19,964.497c-0.015,0.262,0.183,0.486,0.443,0.502c32.112,1.95,63.639,13.755,89.208,33.284    c0.925,0.707,1.861,1.399,2.77,2.126c5.533,4.421,11.544,9.908,14.185,17.071c0.07,0.19,0.251,0.308,0.443,0.308    c0.053,0,0.109-0.009,0.164-0.03c0.244-0.09,0.37-0.362,0.279-0.608c-2.721-7.379-8.846-12.979-14.481-17.481    c-3.536-2.827-7.202-5.488-10.966-8.007c-24.115-16.136-52.611-25.852-81.558-27.61    C619.428,964.053,619.206,964.247,619.19,964.497z"/>
		<path fill="#B49D98" d="M696.981,980.345c-0.085,0.247,0.047,0.517,0.294,0.6c5.88,2.008,11.521,4.707,16.807,7.981    c5.699,3.531,10.983,7.732,15.664,12.528c0.092,0.094,0.214,0.142,0.338,0.142c0.117,0,0.238-0.044,0.33-0.135    c0.186-0.183,0.19-0.482,0.007-0.668c-4.849-4.97-10.343-9.302-16.27-12.925c-5.223-3.193-10.78-5.841-16.569-7.817    C697.33,979.964,697.065,980.099,696.981,980.345z"/>
		<path fill="#5780B5" d="M659.727,600.049c0.749,0.739,2.363,0.744,3.592,0.777c0.425,0.011,1.218-0.879,1.259-1.404    c0.417-5.326,0.523-10.685,1.149-15.983c0.093-0.792,0.414-1.561,0.802-2.321c-0.465,0.223-0.945,0.42-1.407,0.647    c-0.185,0.091-0.379,0.168-0.565,0.26c-4.567,2.266-8.957,4.736-13.263,7.304c1.133,1.499,2.264,2.998,3.397,4.496    C656.303,595.957,657.838,598.188,659.727,600.049z"/>
		<path fill="#5780B5" d="M630.484,603.899c-0.418,0.343-0.846,0.675-1.261,1.022c0.484,0.492,0.952,0.994,1.448,1.478    C630.868,606.592,630.732,605.364,630.484,603.899z"/>
		<path fill="#5780B5" d="M617.273,616.016c-0.828,0.858-1.619,1.759-2.429,2.639c1.989,1.807,3.929,3.668,5.8,5.597    C620.242,621.389,618.898,618.653,617.273,616.016z"/>
		<path fill="#5780B5" d="M588.414,656.725c2.976-5.199,6.052-10.344,9.187-15.44C594.466,646.381,591.39,651.526,588.414,656.725z"/>
		<path fill="#5780B5" d="M553.213,740.84c-0.621-0.862-1.097-1.794-1.117-2.843c-0.025-1.377,0.721-2.634,1.442-3.807    c8.013-13.03,11.418-28.487,17.632-42.6c5.054-11.481,10.798-22.655,17.15-33.472c0.029-0.464,0.077-0.934,0.094-1.394    c-3.346,5.844-6.565,11.759-9.563,17.774c-8.37,16.795-15.489,34.221-24.045,50.914c-4.438,8.655-5.173,12.202-2.236,16.211    C552.746,741.327,552.959,741.068,553.213,740.84z"/>
		<path fill="#5780B5" d="M606.277,664.492c-0.416,4.92-5.613,20.308-1.108,23.821c4.37,3.407,21.063-1.836,26.589-2.424    c7.201-0.767,16.173-2.053,23.415-0.336c1.394,0.331,2.633,0.833,3.813,1.401c-6.787-10.271-14.542-19.796-23.324-28.565    c-7.858-7.847-15.354-16.048-22.369-24.559c-1.855-2.25-3.595-4.679-5.335-7.13c-2.263,2.844-4.435,5.791-6.513,8.842    c1.083,2.149,2.037,4.386,2.776,6.732C606.483,649.465,606.911,657.007,606.277,664.492z"/>
		<path fill="#5780B5" d="M592.061,823.393c0.504-2.835,1.064-5.669,1.734-8.502C593.125,817.725,592.565,820.559,592.061,823.393z"/>
		<path fill="#5780B5" d="M591.881,872.814c-0.553-3.212-0.959-6.419-1.289-9.622C590.925,866.395,591.327,869.601,591.881,872.814z    "/>
		<path fill="#5780B5" d="M595.993,802.052c11.758-4.42,25.839,2.312,36.535-4.636c15.556-10.105,5.894-31.578-10.826-28.823    c-0.455,5.443-1.146,11.051-3.552,15.919c-3.492,7.068-12.108,8.426-18.535,3.832c-0.74-0.529-1.395-1.152-2.021-1.807    c-0.104,0.188-0.207,0.372-0.312,0.56c0.18,1.871,0.124,3.832-0.199,5.91c-0.47,3.019-0.827,6.058-1.2,9.097l0,0    C595.921,802.09,595.955,802.067,595.993,802.052z"/>
		<path fill="#5780B5" d="M594.955,808.838c0.111-0.701,0.203-1.407,0.303-2.111C595.157,807.431,595.066,808.136,594.955,808.838z"/>
		<path fill="#5780B5" d="M703.056,834.198c8.326,15.238,24.885,21.903,41.473,18.034c3.737-0.872,7.458-2.007,11.186-3.117    c-4.739-6.684-9.305-13.495-13.536-20.547c-4.379-7.3-12.177-20.569-21.243-36.07c-0.359,0.956-0.727,1.913-1.194,2.894    C713.2,809.121,693.682,817.043,703.056,834.198z"/>
		<path fill="#5780B5" d="M592.423,878.166c0.007,0.16-0.001,0.316,0.005,0.476C592.424,878.483,592.429,878.326,592.423,878.166z"/>
		<path fill="#5780B5" d="M799.267,897.496c-0.084,0.119-0.152,0.247-0.237,0.365c-11.096,15.366-30.188,36.865-11.386,55.617    c1.453,1.448,3.012,2.642,4.62,3.714c-4.911,1.669-9.842,3.171-14.79,4.55c-0.991-1.061-1.91-2.155-2.692-3.305    c-6.852-10.08-7.361-22.474-4.827-34.065c2.161-9.879,12.872-25.407,16.623-38.373c-1.504-1.488-3.005-2.98-4.465-4.519    c-4.335-4.568-8.459-9.298-12.464-14.118c-7.136,2.288-14.498,6.831-18.631,8.405c-8.058,3.067-15.857,4.488-24.468,3.652    c-15.127-1.468-29.049-9.405-38.392-21.282c-8.406-10.686-14.072-27.038-5.904-39.456c9.056-13.766,28.104-22.823,30.692-39.856    c-17.972-30.785-38.254-65.68-47.002-80.623c-0.57-0.172-1.114-0.351-1.772-0.502c-8.355-1.921-17.31,0.812-24.858,4.128    c-13.537,5.946-25.016,15.327-40.691,10.227c-9.514-3.095-14.103-10.201-14.908-18.808c-0.368,5.028,0.142,10.027,2.876,14.096    c6.995,10.407,22.81,12.838,32.972,18.832c7.025,4.144,6.689,8.591,5.135,15.078c-0.728,3.04-1.172,6.212-1.525,9.406    c5.187-2.18,10.558-3.19,16.241-2.163c0.095,0.016,0.19,0.04,0.285,0.057c0.927,0.179,1.856,0.375,2.802,0.67    c1.18,0.352,2.357,0.779,3.527,1.322c19.911,9.239,24.198,36.003,12.622,52.965c-5.138,7.528-13.241,13.453-21.853,16.328    c-12.045,4.02-20.753-0.23-32.638-0.559c-5.556-0.154-9.46,1.431-12.097,4.115c-2.222,12.525-2.79,25.073-1.669,37.687    c-0.279-3.174-0.487-6.345-0.554-9.512c2.149,7.154,5.487,13.73,8.759,17.506c12.33,14.229,28.622,16.698,46.646,15.428    c22.236-1.567,50.202-4.66,62.936,18.809c11.851,21.841-0.534,45.206-18.175,59.002c-3.761,2.942-7.56,5.493-11.381,7.637    c5.131,0.647,10.303,1.136,15.54,1.368c29.167,1.29,57.581-2.162,85.392-10.149c0.305-0.087,0.611-0.163,0.915-0.251    c1.299-0.378,2.598-0.757,3.895-1.155c3.554-1.091,7.102-2.221,10.636-3.463c4.537-1.593,8.42-3.661,11.756-6.181    c6.438-4.864,10.71-11.516,12.812-20.427c1.347-5.713,3.264-11.249,2.472-17.333c-5.592-2.574-10.933-5.702-15.938-9.461    C803.774,901.151,801.502,899.344,799.267,897.496z"/>
		<path fill="#5780B5" d="M582.92,912.218c11.639,2.61,23.22,9.596,32.819,16.306c10.179,7.115,20.836,19.548,33.083,22.873    c13.272,3.605,28.814-9.246,37.128-18.601c24.13-27.154-13.234-34.723-30.455-33.826c-22.15,1.152-41.544,2.541-59.726-12.164    c-1.214-0.982-2.389-2.065-3.541-3.2l0,0c-0.834,7.589-4.111,14.432-9.985,20.59c-3.18,3.333-5.611,7.475-7.933,11.508    c0.862-1.496,1.755-2.997,2.68-4.477C578.983,911.458,580.967,911.78,582.92,912.218z"/>
		<path fill="#5780B5" d="M854.03,642.642c-0.598-1.632-1.151-3.273-1.791-4.889C852.877,639.365,853.433,641.015,854.03,642.642    L854.03,642.642z"/>
		<path fill="#5780B5" d="M857.162,651.899L857.162,651.899c-0.747-2.404-1.526-4.795-2.365-7.165l0,0    C855.635,647.1,856.417,649.498,857.162,651.899z"/>
		<path fill="#5780B5" d="M866.125,684.723c0.787,3.024,1.558,6.051,2.336,9.078C867.684,690.775,866.912,687.747,866.125,684.723z"/>
		<path fill="#5780B5" d="M804.037,772.148c-0.063-0.385-0.126-0.771-0.189-1.156c-10.732,5.175-19.952-5.182-23.933-14.45    c-4.266-9.932-2.981-18.825-4.633-29.091c-1.656-10.289-5.964-19.494-6.872-30.009c-0.122-1.415,1.823-1.397,2.263-0.306    c4.996,12.371,5.192,25.605,10.733,37.773c2.563,5.628,5.423,15.908,9.965,23.434c-0.934-4.952-1.383-10.163-1.757-12.784    c-4.004-28.068-0.136-56.231,1.081-84.389c-1.682,1.357-3.474,2.587-5.424,3.647c-9.585,5.211-20.092,4.086-27.874-3.266    c-1.455-1.375-2.882-2.863-3.963-4.531c-2.371-3.654-5.858-4.995-9.889-6.145c-12.549-3.582-17.981-13.348-20.121-25.208    c-1.316-7.294-0.781-14.661,1.624-21.854c0.893-2.673,1.88-5.298,2.943-7.887c-13.143-1.569-24.898-5.596-31.232-19.222    c-0.793-1.706-1.794-2.887-2.97-3.663c-2.042-1.348-4.66-1.361-7.83-0.277c-0.381,0.13-0.752,0.24-1.148,0.401    c0,0-7.662,3.16-11.427,4.803l0.067,0.073c1.012,1.708,2.441,3.32,2.913,5.171c1.992,7.837,4.646,15.416,8.334,22.596    c4.66,9.074,7.666,18.672,8.342,28.791c0.232,3.472,0.975,6.652,2.125,9.649c19.83,1.488,47.771,6.484,60.162,23.116    c11.85,15.905,4.463,35.119-2.698,52.81c9.678,13.377,18.93,27.063,27.961,40.914c5.862,8.989,11.636,18.037,17.597,26.96    c0.098,0.147,0.234,0.269,0.336,0.413c-0.381-0.542-0.738-1.097-1.126-1.635c-0.152-0.212-0.103-0.508,0.107-0.661    c0.211-0.151,0.506-0.103,0.661,0.107c1.738,2.412,3.394,4.873,5.005,7.358c0.105,0.105,0.21,0.213,0.314,0.318    c0.392,0.399,1.319,0.519,1.916,0.388c0.46-0.101,1.074-0.767,1.127-1.236c0.215-1.951,0.669-4.013,0.275-5.873    c-1.054-4.975-1.928-9.981-2.753-14.996L804.037,772.148z"/>
		<path fill="#5780B5" d="M712.789,669.451c3.147,4.086,6.322,8.148,9.659,12.073c4.529,5.327,8.924,10.751,13.243,16.23    c-0.645-7.341-2.531-13.862-6.668-18.104C724.242,674.75,718.722,671.604,712.789,669.451z"/>
		<path fill="#5780B5" d="M858.948,657.752c-0.539-1.969-1.183-3.907-1.786-5.853C857.766,653.844,858.409,655.782,858.948,657.752z    "/>
		<path fill="#5780B5" d="M641.548,961.425c-1.237-0.418-2.47-0.852-3.702-1.296C639.077,960.574,640.311,961.006,641.548,961.425z"/>
		<path fill="#5780B5" d="M649.814,964.029c-1.479-0.425-2.947-0.897-4.417-1.359C646.867,963.134,648.335,963.602,649.814,964.029z    "/>
		<path fill="#5780B5" d="M651.292,964.43c2.191,0.615,4.383,1.226,6.593,1.76c2.083,0.504,4.182,0.942,6.282,1.374    C659.838,966.677,655.549,965.618,651.292,964.43z"/>
		<path fill="#5780B5" d="M622.34,953.81l0.043,0.019L622.34,953.81c-7.592-3.487-15.122-7.048-22.44-10.972    c-2.326-2.005-4.737-3.913-7.348-5.59c-3.637-2.336-7.271-4.146-10.917-5.531c-1.605-1.126-3.198-2.274-4.762-3.474    c-2.031-1.558-3.335-3.541-3.799-5.71c0.464,2.169,1.768,4.152,3.799,5.71c2.484,1.906,5.038,3.683,7.623,5.407    c9.598,6.403,19.819,11.685,30.264,16.625C617.277,951.465,619.803,952.645,622.34,953.81z"/>
		<path fill="#5780B5" d="M632.994,958.298c-0.96-0.375-1.923-0.741-2.879-1.132C631.071,957.558,632.034,957.922,632.994,958.298z"/>
		<path fill="#5780B5" d="M678.622,969.952c-2.306-0.291-4.603-0.63-6.889-1.003C674.018,969.323,676.316,969.661,678.622,969.952z"/>
		<path fill="#5780B5" d="M670.887,968.807c-2.249-0.378-4.492-0.786-6.721-1.243C666.395,968.023,668.639,968.429,670.887,968.807z    "/>
		<path fill="#F5D0CA" d="M755.327,667.363c-12.391-16.632-40.332-21.628-60.162-23.116c1.423,3.711,3.484,7.133,6.124,10.407    c3.922,4.86,7.688,9.848,11.5,14.798c5.933,2.153,11.453,5.299,16.234,10.199c4.138,4.241,6.024,10.763,6.668,18.104    c5.803,7.36,11.449,14.832,16.938,22.419C759.79,702.482,767.177,683.268,755.327,667.363z"/>
		<path fill="#F1609C" d="M639.414,748.496c-5.683-1.027-11.053-0.016-16.241,2.163l0,0    C628.448,748.517,633.947,747.588,639.414,748.496z"/>
		<path fill="#F1609C" d="M639.699,748.553c0.935,0.166,1.869,0.391,2.802,0.67C641.555,748.928,640.626,748.732,639.699,748.553z"/>
		<path fill="#F5D0CA" d="M576.872,928.243c1.564,1.2,3.157,2.348,4.762,3.474c3.646,1.384,7.279,3.195,10.917,5.531    c2.611,1.677,5.023,3.585,7.348,5.59c7.319,3.924,14.848,7.485,22.44,10.972l0.043,0.019c2.563,1.177,5.144,2.279,7.732,3.338    c0.957,0.391,6.108,2.378,7.731,2.963c1.231,0.444,2.465,0.878,3.702,1.296c1.279,0.432,6.787,2.179,8.266,2.605    c0.491,0.141,0.986,0.263,1.478,0.4c4.257,1.188,8.546,2.247,12.875,3.134l0,0c2.229,0.457,4.472,0.866,6.721,1.243    c0.282,0.047,0.564,0.096,0.846,0.142c2.286,0.373,4.583,0.712,6.889,1.003l0,0c3.821-2.145,7.619-4.696,11.381-7.637    c17.641-13.796,30.026-37.161,18.175-59.002c-12.734-23.469-40.7-20.376-62.936-18.809c-18.024,1.27-34.316-1.198-46.646-15.428    c-3.271-3.777-6.61-10.352-8.759-17.506c0.067,3.166,0.276,6.338,0.554,9.512c0.062,0.704,0.128,1.407,0.2,2.112    c0.33,3.202,0.735,6.409,1.289,9.622l0,0c0.315,1.827,0.484,3.608,0.543,5.353c0.006,0.16,0.001,0.317,0.005,0.476    c0.035,1.686-0.022,3.344-0.2,4.964l0,0c1.151,1.135,2.327,2.218,3.541,3.2c18.182,14.705,37.577,13.316,59.726,12.164    c17.221-0.896,54.585,6.673,30.455,33.826c-8.313,9.355-23.856,22.206-37.128,18.601c-12.247-3.326-22.904-15.758-33.083-22.873    c-9.599-6.709-21.18-13.695-32.819-16.306c-1.952-0.438-3.936-0.76-5.931-0.991c-0.925,1.48-1.818,2.981-2.68,4.477    c-1.326,2.303-1.701,4.659-1.236,6.828C573.538,924.702,574.842,926.685,576.872,928.243z"/>
		<path fill="#F5D0CA" d="M774.782,958.437c0.781,1.149,1.701,2.244,2.692,3.305c4.948-1.379,9.879-2.881,14.79-4.55    c-1.608-1.072-3.167-2.266-4.62-3.714c-18.802-18.751,0.291-40.251,11.386-55.617c0.085-0.118,0.153-0.247,0.237-0.365    c-4.404-3.639-8.624-7.48-12.689-11.498c-3.751,12.966-14.462,28.494-16.623,38.373    C767.42,935.964,767.93,948.357,774.782,958.437z"/>
		<path fill="#F5D0CA" d="M682.254,818.681c-8.168,12.417-2.502,28.77,5.904,39.456c9.343,11.877,23.265,19.814,38.392,21.282    c8.612,0.836,16.41-0.585,24.468-3.652c4.133-1.573,11.495-6.117,18.631-8.405c-4.898-5.893-9.507-12.002-13.934-18.246    c-3.728,1.109-7.449,2.245-11.186,3.117c-16.588,3.869-33.148-2.795-41.473-18.034c-9.374-17.155,10.144-25.077,16.686-38.806    c0.468-0.98,0.835-1.938,1.194-2.894c-2.577-4.407-5.254-8.989-7.989-13.673C710.358,795.857,691.31,804.914,682.254,818.681z"/>
		<path fill="#F5D0CA" d="M589.447,656.162c-1.796,2.918,0.381,10.507-0.341,14.1c-0.711,3.537-2.491,6.987-3.292,10.599    c-0.837,3.774-1.785,8.09-2.1,12.385c0.806,8.607,5.394,15.713,14.908,18.808c15.675,5.099,27.154-4.282,40.691-10.227    c7.549-3.316,16.503-6.049,24.858-4.128c0.658,0.151,1.202,0.33,1.772,0.502c-0.732-1.25-1.409-2.407-1.971-3.363    c-1.582-2.691-3.276-5.295-4.987-7.885c-1.18-0.569-2.419-1.07-3.813-1.401c-7.241-1.718-16.213-0.431-23.415,0.336    c-5.526,0.588-22.219,5.832-26.589,2.424c-4.505-3.513,0.692-18.901,1.108-23.821c0.633-7.485,0.206-15.027-2.056-22.217    c-0.739-2.346-1.693-4.584-2.776-6.732c-1.286,1.89-2.611,3.738-3.825,5.709l-0.021,0.034c-3.134,5.096-6.211,10.241-9.187,15.44    l0,0c-0.017,0.46-0.065,0.93-0.094,1.394C588.701,657.47,589.061,656.808,589.447,656.162z"/>
		<path fill="#1B2D44" d="M770.673,697.134c-0.441-1.091-2.385-1.109-2.263,0.306c0.907,10.515,5.215,19.72,6.872,30.009    c1.652,10.266,0.367,19.159,4.633,29.091c3.981,9.268,13.201,19.625,23.933,14.45c-0.037-0.229-0.074-0.458-0.111-0.686    c-3.041,0.363-5.681,0.314-7.303-0.516c-2.556-1.308-4.078-6.234-5.063-11.448c-4.542-7.526-7.402-17.806-9.965-23.434    C775.865,722.739,775.669,709.505,770.673,697.134z"/>
		<path fill="#EC8773" d="M864.757,756.344c-0.232-1.276-0.443-2.562-0.697-3.833l-0.081,0.031    C864.234,753.808,864.525,755.072,864.757,756.344z"/>
		<path fill="#EC8773" d="M635.662,658.389c8.782,8.769,16.537,18.294,23.324,28.565c1.711,2.59,3.406,5.194,4.987,7.885    c0.562,0.956,73.827,126.43,78.206,133.729c4.231,7.052,8.797,13.863,13.536,20.547c4.427,6.244,9.036,12.353,13.934,18.246    c4.005,4.82,8.129,9.55,12.464,14.118c1.46,1.539,2.96,3.031,4.465,4.519c4.065,4.017,8.285,7.859,12.689,11.498    c2.236,1.847,4.507,3.655,6.835,5.403c5.005,3.759,10.346,6.887,15.938,9.461c3.511,1.616,7.098,3.061,10.829,4.159    c15.265,4.493,20.608,0.98,24.272-12.403c4.775-17.444,9.313-35.002,10.631-53.157c0.777-10.705,1.363-21.423,2.258-35.7    c-0.002-12.549-0.878-28.631-3-44.6c-0.636-4.788-1.408-9.563-2.273-14.315c-14.305,14.094-41.128,15.43-60.707,15.885    c0.824,5.015,1.699,10.021,2.753,14.996c0.394,1.86-0.06,3.922-0.275,5.873c-0.053,0.469-0.667,1.134-1.127,1.236    c-0.597,0.131-1.524,0.011-1.916-0.388c-0.104-0.106-0.209-0.213-0.314-0.318c9.537,14.719,16.838,30.688,21.709,47.607    c0.073,0.251-0.072,0.513-0.323,0.585c-0.044,0.013-0.089,0.018-0.13,0.018c-0.205,0-0.395-0.135-0.455-0.342    c-5.481-19.036-14.055-36.859-25.448-53.038c-0.102-0.144-0.238-0.266-0.336-0.413c-5.961-8.923-11.735-17.971-17.597-26.96    c-9.031-13.851-18.283-27.537-27.961-40.914c-5.489-7.587-11.135-15.059-16.938-22.419c-4.318-5.479-8.714-10.903-13.243-16.23    c-3.337-3.925-6.512-7.987-9.659-12.073c-3.812-4.95-7.579-9.938-11.5-14.798c-2.641-3.273-4.701-6.696-6.124-10.407    c-1.149-2.997-1.893-6.177-2.125-9.649c-0.676-10.119-3.682-19.717-8.342-28.791c-3.688-7.18-6.342-14.76-8.334-22.596    c-0.471-1.851-1.901-3.463-2.913-5.171l-0.067-0.073c-0.955-1.393-4.342-1.36-5.146,0.136c-0.536,0.997-1.19,1.997-1.709,3.016    c-0.388,0.76-0.709,1.529-0.802,2.321c-0.625,5.298-0.731,10.657-1.149,15.983c-0.041,0.524-0.835,1.414-1.259,1.404    c-1.229-0.033-2.843-0.038-3.592-0.777c-1.889-1.862-3.424-4.092-5.036-6.224c-1.133-1.498-18.891-25.071-26.686-35.322    c-0.313-0.411-8.754-7.594-8.7-4.826c0.093,4.782,2.275,9.291,4.964,13.247c1.214,1.785,16.143,26.23,15.892,26.284    c-1.848,0.398-3.423-1.292-4.55-2.811c-5.943-8.016-10.286-17.106-16.963-24.625c-1.958-2.205-5.929-7.363-9.48-6.726    c-8.757,1.572,0.37,13.188,2.557,16.507c4.02,6.104,7.899,12.656,12.535,18.314c1.512,1.845,3.997,3.672,5.179,5.701    c0.288,0.493,0.749,2.583,1.045,4.33c0.249,1.464,0.385,2.693,0.186,2.5c-0.496-0.484-0.963-0.986-1.448-1.478    c-8.777-8.911-15.806-19.029-25.024-27.525c-1.42-1.308-3.076-2.689-5.002-2.575c-2.545,0.149-4.229,2.997-4.071,5.541    c0.159,2.544,1.617,4.797,3.029,6.919c4.36,6.553,9.087,12.984,13.129,19.736c1.719,2.869,4.057,5.863,5.989,8.999    c1.625,2.637,2.97,5.372,3.371,8.236c-1.871-1.929-3.812-3.789-5.8-5.597c-6.358-5.78-13.288-10.932-20.671-15.329    c-1.417-0.843-3.622-1.47-4.393-0.013c-0.233,0.438-0.24,0.962-0.174,1.454c0.437,3.244,3.566,5.288,6.091,7.371    c4.834,3.99,8.549,9.331,12.263,14.562c1.74,2.451,3.479,4.88,5.335,7.13C620.307,642.341,627.804,650.542,635.662,658.389z"/>
		<path fill="#EC8773" d="M804.037,772.148c-0.102-0.614-0.199-1.229-0.3-1.843l0,0    C803.774,770.534,803.973,771.762,804.037,772.148z"/>
		<path fill="#EC8773" d="M563.612,837.944c9.926-12.743,18.861-26.2,27.189-40.03c-0.22-0.773-0.644-2.412-0.694-2.606    c-5.471-20.83-21.838-36.148-37.188-50.316c-0.701-0.647-0.871-1.465-0.751-2.25c-8.965,10.924-17.216,22.775-24.959,33.98    c-9.123-38.989-16.982-78.273-23.56-117.771c-0.855-5.133-1.808-10.431-3.34-15.44c1.864,9.731,2.991,19.02,1.412,28.903    c-1.471,9.205,0.464,18.79,1.738,28.142c1.087,7.972,2.053,15.969,2.738,23.983c0.617,7.222-7.279,14.07-14.603,13.182    c-4.941-0.599-8.808-2.924-12.059-6.56c-7.57-8.467-10.636-18.599-10.297-29.681c0.496-16.243-2.803-32.029-5.171-47.927    c-0.295-1.979-0.727-3.94-1.209-5.893c0.016,2.726,0.132,5.409,0.24,7.904c1.074,24.765,2.421,49.518,4.04,74.255    c2.467,37.682,10.385,77.068,23.618,112.421c0.633,1.691,1.299,3.384,1.992,5.066c2.853,6.929,6.353,13.621,11.761,18.728    C528.319,888.517,550.289,855.048,563.612,837.944z"/>
		<path fill="#D14953" d="M823.969,765.434c-3.979,0.954-13.197,4.032-20.233,4.871c0.101,0.614,0.313,1.924,0.313,1.924    c19.58-0.455,46.403-1.791,60.707-15.885l0,0c-0.232-1.272-0.523-2.536-0.778-3.803    C850.868,757.523,837.617,762.162,823.969,765.434z"/>
		<path fill="#D14953" d="M552.919,744.991c15.351,14.168,31.718,29.486,37.188,50.316c0.05,0.194,0.474,1.833,0.694,2.606    c0.055,0.196,0.102,0.351,0.121,0.396c1.991-3.452,6.568-11.585,6.672-11.772c-1.27-1.329-2.362-2.844-3.413-4.361    c-4.136-5.971-8.336-10.185-13.982-14.768c-9.236-7.497-17.413-16.195-25.559-24.864c-0.5-0.532-0.994-1.103-1.427-1.703    c-0.254,0.227-0.467,0.487-0.643,0.783c-0.207,0.349-0.342,0.723-0.402,1.118C552.048,743.527,552.217,744.344,552.919,744.991z"/>
		<path fill="#5780B5" d="M819.907,598.578c-5.812,3.201-9.208,7.494-9.339,14.289c-0.143,7.416-1.604,14.652-3.508,21.802    c-2.101,7.892-5.657,15.043-10.977,21.262c-1.648,1.926-3.442,3.668-5.388,5.237c-1.217,28.157-5.086,56.321-1.081,84.389    c0.374,2.621,0.822,7.832,1.757,12.784c0.985,5.214,2.507,10.14,5.063,11.448c1.622,0.83,4.262,0.879,7.303,0.516l0,0    c7.035-0.84,16.253-3.917,20.233-4.871c13.647-3.272,26.898-7.911,40.01-12.893c0,0,9.339-3.596,13.953-5.4    c1.558-0.609,3.262-1.351,3.953-2.875c0.537-1.184,0.322-2.557,0.089-3.836c-0.087-0.481-0.179-0.96-0.275-1.436    c-0.528-2.619-1.197-5.166-1.93-7.683c-2.173,1.154-4.404,2.213-6.638,3.203c-19.579,8.687-40.269,14.539-61.501,17.394    c-4.102,0.552-8.49,1.005-12.919,1.005c-2.764,0-5.542-0.185-8.278-0.625c-0.043-0.333-0.088-0.673-0.127-0.996    c7.087,1.192,14.52,0.577,21.199-0.321c21.141-2.842,41.746-8.668,61.242-17.32c2.277-1.01,4.55-2.093,6.76-3.274    c-2.58-8.622-6.004-16.849-8.273-25.796c-0.911-3.595-13.469-50.733-14.073-52.679c-3.667,2.948-8.022,5.474-10.512,9.193    c-3.311,4.948-5.346,12.727-7.047,18.318c-2.479,8.147-4.372,15.354,4.79,18.958c7.813,3.073,16.274,0.073,24.235,0.748    c0.426,0.036,0.814,0.113,1.228,0.162c1.164,4.564,2.338,9.125,3.486,13.693c-23.882-1.013-55.982,15.008-60.779-20.323    c-1.725-12.707,1.429-30.505,11.045-39.784c4.972-4.798,10.706-5.271,16.784-7.785c4.721-1.953,8.411-4.81,11.456-8.249    c-2.495-6.216-5.265-12.331-8.291-18.348c-1.718-3.414-6.224-12.302-11.161-18.568c-1.843-2.34-3.742-4.31-5.584-5.489    C824.549,595.88,822.254,597.286,819.907,598.578z"/>
		<path fill="#5780B5" d="M857.162,651.899c-0.745-2.401-1.527-4.799-2.365-7.165C855.624,647.105,856.417,649.499,857.162,651.899z    "/>
		<path fill="#5780B5" d="M852.239,637.753c-0.123-0.31-0.266-0.612-0.39-0.922c0.769,1.919,1.478,3.867,2.181,5.811    C853.433,641.015,852.877,639.365,852.239,637.753z"/>
		<path fill="#5780B5" d="M599.615,788.344c6.427,4.594,15.043,3.236,18.535-3.832c2.406-4.868,3.097-10.476,3.552-15.919    c-0.989,0.163-1.993,0.38-3.028,0.72c-8.041,2.643-14.135,8.764-21.88,11.759c-0.527-5.192-0.188-10.47,1-15.552    c-0.05,0.217,4.57-2.14,4.811-2.303c1.938-1.312,3.854-2.657,5.787-3.976c3.779-2.578,7.605-5.133,11.701-7.185    c1.016-0.509,2.043-0.976,3.079-1.397l0,0c0.353-3.194,0.797-6.366,1.525-9.406c1.554-6.487,1.89-10.934-5.135-15.078    c-10.161-5.994-25.976-8.425-32.972-18.832c-2.735-4.07-3.244-9.069-2.876-14.096c0.315-4.295,1.262-8.611,2.1-12.385    c0.801-3.612,2.581-7.062,3.292-10.599c0.722-3.594-1.455-11.183,0.341-14.1c-0.387,0.646-0.746,1.308-1.127,1.957    c-6.353,10.817-12.096,21.991-17.15,33.472c-6.214,14.113-9.618,29.57-17.632,42.6c-0.721,1.173-1.467,2.431-1.442,3.807    c0.02,1.049,0.496,1.981,1.117,2.843c0.433,0.6,0.927,1.171,1.427,1.703c8.146,8.669,16.323,17.367,25.559,24.864    c5.647,4.583,9.847,8.797,13.982,14.768c1.051,1.517,2.143,3.033,3.413,4.361C598.22,787.192,598.876,787.815,599.615,788.344z     M565.602,715.078c10.097,10.113,20.938,19.519,33.5,26.534c0.227,0.127,0.309,0.415,0.183,0.644    c-0.086,0.155-0.247,0.242-0.414,0.242c-0.077,0-0.156-0.018-0.23-0.059c-12.535-7.001-23.348-16.34-33.409-26.389    C565.365,715.728,565.474,715.401,565.602,715.078z"/>
		<path fill="#1B2D44" d="M598.64,742.438c0.074,0.041,0.153,0.059,0.23,0.059c0.167,0,0.328-0.087,0.414-0.242    c0.127-0.229,0.045-0.517-0.183-0.644c-12.562-7.015-23.402-16.42-33.5-26.534c-0.128,0.323-0.237,0.65-0.371,0.972    C575.292,726.098,586.105,735.438,598.64,742.438z"/>
		<path fill="#D14953" d="M797.504,786.163c-0.211,0.153-0.259,0.449-0.107,0.661c0.388,0.538,0.745,1.094,1.126,1.635    c11.393,16.179,19.967,34.002,25.448,53.038c0.06,0.207,0.25,0.342,0.455,0.342c0.042,0,0.087-0.006,0.13-0.018    c0.252-0.072,0.396-0.334,0.323-0.585c-4.871-16.919-12.172-32.888-21.709-47.607c-1.611-2.486-3.267-4.946-5.005-7.358    C798.01,786.06,797.715,786.012,797.504,786.163z"/>
		<path fill="#1B2D44" d="M903.42,863.396c9.366-9.625,19.051-19.577,25.77-31.427c9.356-16.498,13.323-37.634,11.468-61.12    c-1.662-21.049-7.509-41.578-13.164-61.43c-0.07-0.251-0.325-0.399-0.583-0.325c-0.251,0.072-0.397,0.333-0.325,0.584    c5.641,19.808,11.476,40.291,13.13,61.246c1.837,23.298-2.087,44.245-11.35,60.581c-6.659,11.743-16.301,21.651-25.625,31.233    c-3.366,3.459-6.847,7.038-10.142,10.654c-15.905,17.449-23.733,33.44-23.932,48.882c-0.135,10.535,4.661,21.59,12.516,28.847    c5.564,5.141,12.201,7.896,18.903,7.896c0.747,0,1.494-0.035,2.242-0.103c0.259-0.024,0.451-0.255,0.427-0.513    c-0.023-0.261-0.252-0.451-0.515-0.428c-7.185,0.669-14.43-2.017-20.415-7.546c-7.663-7.08-12.343-17.865-12.213-28.142    c0.197-15.2,7.945-30.986,23.686-48.258C896.582,870.422,900.059,866.851,903.42,863.396z"/>
		<path fill="#1B2D44" d="M872.748,733.648c-19.496,8.652-40.101,14.478-61.242,17.32c-6.679,0.899-14.112,1.513-21.199,0.321    c0.039,0.323,0.084,0.662,0.127,0.996c2.736,0.44,5.514,0.625,8.278,0.625c4.428,0,8.816-0.452,12.919-1.005    c21.232-2.855,41.922-8.707,61.501-17.394c2.234-0.99,4.465-2.049,6.638-3.203c-0.09-0.31-0.169-0.626-0.262-0.936    C877.298,731.555,875.026,732.639,872.748,733.648z"/>
		<path fill="#D14953" d="M688.032,532.539c3.947,0.541,7.991,1.729,8.976,6.026c0.096,0.418,0.178,0.875,0.494,1.165    c0.131,0.12,0.282,0.189,0.442,0.229c0.515,0.129,1.144-0.093,1.66-0.336c5.784-2.721,10.632-5.045,15.015-9.939    c1.695-1.893,3.304-4.025,3.722-6.532c-0.258,1.549-7.593,3.512-8.946,4.03c-2.971,1.137-5.844,1.953-9.012,2.602    c-7.167,1.468-14.484,2.255-21.717,0.755c1.191,0.429,2.416,0.802,3.678,1.105c1.291,0.311,2.622,0.55,4.002,0.695    C686.901,532.396,687.465,532.461,688.032,532.539z"/>
		<path fill="#1B2D44" d="M655.064,391.902c-0.255-1.547-0.337-3.161-0.24-4.813c0.101,2.858,1.39,5.831,3.771,8.453    c2.329,2.559,5.295,4.489,8.164,6.355c0.218,0.144,0.28,0.436,0.139,0.656c-0.09,0.139-0.244,0.214-0.397,0.214    c-0.089,0-0.178-0.024-0.259-0.076c-2.917-1.899-5.935-3.861-8.345-6.513C656.672,394.832,655.748,393.379,655.064,391.902    c0.376,2.273,1.133,4.418,2.241,6.388c0.115,0.204,0.229,0.408,0.351,0.609c0.49,0.801,1.054,1.563,1.665,2.299    c2.826,3.409,6.902,6.102,12.149,7.723c3.967,1.226,8.092,1.275,11.869-0.199c5.289-2.064,10.263-2.262,15.619-0.232    c2.386,0.904,5.588,1.396,7.857,0.555c3.994-1.482,7.578-1.838,10.973-1.091c-1.259-1.641-2.453-3.328-3.568-5.058    c-3.004-2.554-5.399-6.028-6.73-10.052c-2.073-6.266-1.414-12.442-0.186-17.176c0.204-1.206,0.465-2.422,0.822-3.65    c0.207-0.709,1.219-0.405,1.09,0.301c-1.94,10.555,4.585,20.555,10.943,28.523c3.673,4.602,8.486,8.037,10.203,13.828    c0.057,0.193,0.048,0.374,0.061,0.559c2.908,1.46,6.266,2.418,9.217,3.879c-2.149-1.064-4.52-1.853-6.776-2.764    c-0.502-6.577-2.613-13.273-4.125-19.655c-0.32-1.35,1.373-1.929,2.127-0.897c3.822,5.234,9.976,11.095,11.544,17.595    c0.664,2.757,0.283,5.134-0.262,7.731c0.53,0.712,0.886,1.543,0.867,2.543c-0.183,9.44,1.077,18.681,3.164,27.87    c0.737,3.244,0.796,6.654,1.029,9.998c0.477,6.814-0.516,13.293-3.775,19.471c-2.494,4.728-4.507,9.725-6.493,14.699    c-2.06,5.156-2.019,10.509-0.509,15.805c1.485,5.201,3.543,10.148,7.479,14.056c2.378,2.362,4.932,4.554,7.207,7.009    c1.852,1.999,3.035,4.394,2.43,7.299c-2.341,11.242-6.042,21.948-12.224,31.724c-2.866,4.533-5.548,9.184-8.236,13.826    c-1.962,3.388-3.616,6.907-5.095,10.508c-1.064,2.589-2.05,5.214-2.943,7.887c-2.405,7.193-2.94,14.56-1.624,21.854    c2.14,11.86,7.572,21.627,20.121,25.208c4.031,1.15,7.518,2.491,9.889,6.145c1.081,1.668,2.508,3.156,3.963,4.531    c7.782,7.352,18.29,8.477,27.874,3.266c1.95-1.06,3.742-2.291,5.424-3.647c1.946-1.569,3.74-3.311,5.388-5.237    c5.32-6.219,8.875-13.37,10.977-21.262c1.904-7.15,3.365-14.386,3.508-21.802c0.131-6.795,3.527-11.088,9.339-14.289    c2.346-1.292,4.642-2.699,6.905-4.153c2.819-1.811,5.58-3.712,8.222-5.745c10.678-8.216,17.046-18.937,16.725-32.743    c-0.207-8.833,1.281-17.287,3.786-25.681c3.74-12.527,3.418-25.019,0.338-37.744c-2.414-9.979-6.708-18.889-12.189-27.392    c-3.632-5.633-7.438-11.174-10.727-17.004c-4.001-7.089-6.524-14.643-5.832-23.043c0.329-3.995-0.001-8.045-0.031-12.07    c-0.104-14.627-5.086-27.537-13.748-39.164c-6.054-8.126-13.288-15.046-21.162-21.399c-12.457-10.051-26.423-15.717-39.847-15.419    c-5.215-0.186-9.797,0.028-14,0.672c20.077,1.058,39.279,6.999,51.35,24.94c6.994,10.394,10.752,22.59,12.611,34.891    c0.901,5.96,0.062,10.063-1.019,15.862c-0.381,2.041-3.84,17.296-2.507,18.177c1.428,0.944,3.765,2.087,5.842,3.697    c10.373,5.396,15.622,21.091,15.456,32.808c-0.052,3.735-0.539,7.435-1.325,11.077c0.054,0.079,1.755,2.577,2.528,3.748    c4.221,6.375,9.604,15.963,7.657,25.573c-1.217,6.009-5.067,11.049-8.79,15.922c-3.926,5.139-7.985,10.454-8.738,16.777    c-0.684,5.75,1.485,11.4,3.582,16.864c0.759,1.978,1.544,4.022,2.186,6.05c2.514,7.932,1.949,18.238-5.233,22.125    c-0.072,0.039-0.15,0.057-0.225,0.057c-0.169,0-0.331-0.091-0.415-0.248c-0.124-0.229-0.039-0.517,0.19-0.641    c6.711-3.633,7.184-13.437,4.783-21.01c-0.633-2-1.415-4.031-2.168-5.996c-2.139-5.57-4.35-11.329-3.637-17.313    c0.782-6.58,4.921-12,8.924-17.239c3.659-4.79,7.443-9.741,8.615-15.538c1.876-9.265-3.391-18.627-7.518-24.864    c-0.657-0.993-1.332-1.984-2.008-2.976c-0.441,1.853-0.978,3.683-1.58,5.495c-1.019,3.266-2.321,6.414-3.869,9.396    c-0.887,1.807-1.816,3.593-2.827,5.327c-3.988,6.844-9.54,13.616-17.289,15.259c-3.246,0.688-6.575,0.363-9.758-0.604    c-6.824,0.31-13.89-1.373-20.403-5.237c-1.999-1.186-3.718-2.575-5.208-4.115c0.558,2.184,1.331,4.307,2.321,6.315    c1.635,3.317,3.845,6.395,5.985,9.372c2.024,2.818,4.119,5.732,5.745,8.871c7.171,13.832,4.131,32.43-7.071,43.259    c-1.167,1.128-2.428,2.198-3.65,3.233c-2.697,2.286-5.485,4.652-7.279,7.692c-1.553,2.631-1.996,6.118-1.13,8.883    c0.602,1.928,1.782,3.342,3.411,4.09c0.236,0.109,0.342,0.39,0.232,0.628c-0.081,0.174-0.251,0.275-0.43,0.275    c-0.066,0-0.132-0.013-0.197-0.043c-1.878-0.864-3.233-2.478-3.918-4.668c-0.943-3.008-0.464-6.794,1.217-9.645    c1.874-3.178,4.725-5.596,7.483-7.933c1.21-1.025,2.462-2.085,3.605-3.191c10.914-10.55,13.874-28.668,6.89-42.143    c-1.596-3.08-3.669-5.965-5.675-8.755c-2.161-3.008-4.398-6.118-6.067-9.507c-1.264-2.566-2.147-5.322-2.725-8.147    c-3.248-3.955-5.089-8.819-5.625-14.298c-1.479-15.135,2.718-29.203,9.319-42.558c2.724-5.51,7.784-9.169,13.207-11.977    c4.686-2.427,9.568-4.479,14.532-6.775c3.062-19.224,2.848-40.021-9.445-55.967c-9.954-12.912-25.038-21.976-41.284-23.977    c-4.295-0.529-8.631-0.602-12.958-0.674c-6.545-0.109-13.752,1.508-20.328,1.011c-1.355,0.208-2.693,0.457-4.092,0.562    c-11.714,0.878-21.758,6.397-31.079,13.201c-1.429,1.043-2.712,2.206-3.921,3.433c-2.99,3.035-5.363,6.587-7.201,10.594    C655.042,382.318,654.316,387.368,655.064,391.902z M769.074,574.208c0.152-0.211,0.449-0.258,0.659-0.105    c0.212,0.153,0.259,0.449,0.105,0.659c-4.327,5.974-4.574,14.486-0.603,20.7c0.141,0.22,0.076,0.513-0.143,0.654    c-0.079,0.05-0.168,0.074-0.255,0.074c-0.155,0-0.308-0.078-0.399-0.218C764.264,589.438,764.523,580.489,769.074,574.208z     M687.973,405.123l-0.06-0.004c-6.598-0.831-12.837-5.647-15.894-12.271c-2.73-5.911-3.129-13.143-1.123-20.362    c0.073-0.251,0.333-0.393,0.583-0.329c0.252,0.07,0.4,0.331,0.33,0.584c-1.947,7.003-1.567,14.002,1.067,19.712    c2.925,6.334,8.873,10.938,15.155,11.728c0.259,0.033,0.443,0.27,0.41,0.528C688.411,404.947,688.206,405.123,687.973,405.123z     M723.407,403.609c-0.073,0.041-0.152,0.059-0.229,0.059c-0.166,0-0.327-0.089-0.414-0.244c-2.569-4.637-4.227-9.876-4.792-15.15    c-0.027-0.258,0.161-0.491,0.421-0.521c0.246-0.042,0.489,0.161,0.521,0.421c0.551,5.149,2.169,10.264,4.678,14.792    C723.717,403.195,723.636,403.481,723.407,403.609z M749.023,374.97c0.237,0.105,0.346,0.384,0.241,0.622    c-7.086,16.127,1.718,33.372,5.83,40.038c0.336,0.545,0.682,1.095,1.03,1.647c3.182,5.064,6.473,10.297,5.589,16.123    c-0.035,0.235-0.237,0.403-0.468,0.403l-0.07-0.006c-0.259-0.039-0.436-0.281-0.398-0.537c0.832-5.479-2.363-10.563-5.455-15.479    c-0.349-0.556-0.696-1.108-1.034-1.656c-4.192-6.792-13.156-24.375-5.889-40.914C748.505,374.97,748.788,374.863,749.023,374.97z"/>
		<path fill="#1B2D44" d="M722.58,409.813c-0.037-0.021-0.075-0.05-0.112-0.071C722.505,409.763,722.543,409.792,722.58,409.813z"/>
		<path fill="#1B2D44" d="M730.423,415.229c-0.369-0.185-0.714-0.394-1.068-0.595C729.706,414.838,730.055,415.044,730.423,415.229z    "/>
		<path fill="#1B2D44" d="M727.032,413.038c-0.762-0.681-1.524-1.296-2.288-1.847C725.508,411.745,726.27,412.357,727.032,413.038z"/>
		<path fill="#1B2D44" d="M712.129,399.416c-2.524-4.57-4.357-9.413-5.011-14.495c0.055,2.465,0.414,5.04,1.271,7.628    C709.232,395.102,710.525,397.423,712.129,399.416z"/>
		<path fill="#5780B5" d="M688.031,404.181c-6.282-0.79-12.23-5.394-15.155-11.728c-2.634-5.71-3.014-12.709-1.067-19.712    c0.07-0.253-0.078-0.513-0.33-0.584c-0.251-0.065-0.51,0.078-0.583,0.329c-2.005,7.219-1.607,14.45,1.123,20.362    c3.057,6.624,9.296,11.44,15.894,12.271l0.06,0.004c0.234,0,0.439-0.176,0.469-0.414    C688.475,404.451,688.29,404.214,688.031,404.181z"/>
		<path fill="#5780B5" d="M666.242,402.691c0.081,0.052,0.17,0.076,0.259,0.076c0.153,0,0.306-0.076,0.397-0.214    c0.142-0.22,0.079-0.512-0.139-0.656c-2.87-1.865-5.836-3.795-8.164-6.355c-2.381-2.622-3.67-5.594-3.771-8.453    c-0.098,1.652-0.016,3.266,0.24,4.813l0,0l0,0c0.685,1.477,1.608,2.929,2.833,4.275    C660.307,398.829,663.325,400.792,666.242,402.691z"/>
		<path fill="#5780B5" d="M708.388,392.549c-0.857-2.589-1.216-5.163-1.271-7.628c-0.387-3.003-0.347-6.09,0.186-9.252    c-1.228,4.734-1.887,10.91,0.186,17.176c1.331,4.024,3.726,7.498,6.73,10.052c-0.736-1.143-1.439-2.3-2.091-3.48    C710.525,397.423,709.232,395.102,708.388,392.549z"/>
		<path fill="#5780B5" d="M718.914,388.174c-0.032-0.261-0.275-0.464-0.521-0.421c-0.26,0.03-0.448,0.262-0.421,0.521    c0.565,5.274,2.223,10.513,4.792,15.15c0.087,0.155,0.248,0.244,0.414,0.244c0.077,0,0.156-0.019,0.229-0.059    c0.229-0.127,0.31-0.414,0.184-0.643C721.082,398.438,719.464,393.323,718.914,388.174z"/>
		<path fill="#5780B5" d="M754.289,416.126c0.338,0.548,0.685,1.101,1.034,1.656c3.092,4.916,6.286,10,5.455,15.479    c-0.038,0.257,0.139,0.499,0.398,0.537l0.07,0.006c0.231,0,0.432-0.168,0.468-0.403c0.884-5.826-2.407-11.06-5.589-16.123    c-0.348-0.552-0.694-1.102-1.03-1.647c-4.112-6.667-12.916-23.911-5.83-40.038c0.105-0.238-0.004-0.517-0.241-0.622    c-0.235-0.107-0.518,0-0.622,0.242C741.133,391.751,750.098,409.333,754.289,416.126z"/>
		<path fill="#5780B5" d="M759.026,512.693c1.669,3.389,3.906,6.499,6.067,9.507c2.005,2.79,4.079,5.675,5.675,8.755    c6.984,13.475,4.024,31.593-6.89,42.143c-1.143,1.106-2.395,2.166-3.605,3.191c-2.757,2.338-5.608,4.755-7.483,7.933    c-1.68,2.851-2.159,6.637-1.217,9.645c0.685,2.19,2.04,3.804,3.918,4.668c0.065,0.03,0.131,0.043,0.197,0.043    c0.18,0,0.349-0.102,0.43-0.275c0.11-0.238,0.004-0.519-0.232-0.628c-1.629-0.748-2.809-2.162-3.411-4.09    c-0.866-2.765-0.423-6.251,1.13-8.883c1.793-3.04,4.582-5.405,7.279-7.692c1.222-1.036,2.483-2.105,3.65-3.233    c11.202-10.829,14.241-29.427,7.071-43.259c-1.626-3.139-3.721-6.053-5.745-8.871c-2.14-2.977-4.35-6.055-5.985-9.372    c-0.99-2.008-1.763-4.131-2.321-6.315c-0.441-0.456-0.856-0.93-1.254-1.414C756.879,507.371,757.762,510.127,759.026,512.693z"/>
		<path fill="#5780B5" d="M768.837,596.189c0.088,0,0.176-0.024,0.255-0.074c0.22-0.14,0.284-0.434,0.143-0.654    c-3.972-6.214-3.724-14.725,0.603-20.7c0.154-0.211,0.107-0.506-0.105-0.659c-0.211-0.153-0.508-0.105-0.659,0.105    c-4.55,6.281-4.81,15.23-0.635,21.763C768.529,596.112,768.682,596.189,768.837,596.189z"/>
		<path fill="#5780B5" d="M820.497,483.415c4.127,6.236,9.394,15.599,7.518,24.864c-1.173,5.797-4.956,10.748-8.615,15.538    c-4.003,5.239-8.142,10.659-8.924,17.239c-0.713,5.983,1.499,11.743,3.637,17.313c0.754,1.965,1.535,3.996,2.168,5.996    c2.4,7.573,1.928,17.377-4.783,21.01c-0.229,0.124-0.314,0.412-0.19,0.641c0.085,0.157,0.247,0.248,0.415,0.248    c0.075,0,0.154-0.019,0.225-0.057c7.182-3.887,7.747-14.194,5.233-22.125c-0.642-2.028-1.427-4.072-2.186-6.05    c-2.098-5.464-4.266-11.113-3.582-16.864c0.754-6.323,4.812-11.638,8.738-16.777c3.723-4.873,7.574-9.913,8.79-15.922    c1.947-9.61-3.436-19.198-7.657-25.573c-0.773-1.171-2.474-3.669-2.528-3.748c-0.093,0.43-0.166,0.864-0.268,1.292    C819.165,481.432,819.84,482.422,820.497,483.415z"/>
		<path fill="#5780B5" d="M742.147,421.117c0.545-2.596,0.926-4.974,0.262-7.731c-1.568-6.5-7.722-12.361-11.544-17.595    c-0.754-1.032-2.446-0.454-2.127,0.897c1.512,6.382,3.622,13.078,4.125,19.655c2.256,0.911,4.628,1.7,6.776,2.764    C740.615,419.591,741.512,420.265,742.147,421.117z"/>
		<path fill="#5780B5" d="M722.468,409.742c0.037,0.021,0.075,0.05,0.112,0.071c0.726,0.405,1.447,0.86,2.165,1.378    c0.764,0.551,1.526,1.166,2.288,1.847c0.695,0.622,1.493,1.126,2.322,1.596c0.354,0.201,0.7,0.41,1.068,0.595    c-0.012-0.185-0.004-0.366-0.061-0.559c-1.718-5.791-6.531-9.226-10.203-13.828c-6.358-7.968-12.883-17.968-10.943-28.523    c0.13-0.706-0.883-1.009-1.09-0.301c-0.358,1.228-0.618,2.444-0.822,3.65c-0.534,3.161-0.573,6.249-0.186,9.252    c0.654,5.082,2.487,9.925,5.011,14.495c0.652,1.18,1.355,2.338,2.091,3.48c1.115,1.73,2.309,3.417,3.568,5.058    C719.383,408.304,720.935,408.898,722.468,409.742z"/>
		<path fill="#F5D0CA" d="M724.046,348.32c4.327,0.072,8.663,0.145,12.958,0.674c16.246,2.002,31.33,11.065,41.284,23.977    c12.294,15.946,12.507,36.743,9.445,55.967c-4.964,2.296-9.846,4.348-14.532,6.775c-5.422,2.808-10.483,6.467-13.207,11.977    c-6.601,13.355-10.799,27.423-9.319,42.558c0.537,5.479,2.377,10.343,5.625,14.298c0.398,0.485,0.812,0.958,1.254,1.414    c1.49,1.54,3.209,2.929,5.208,4.115c6.513,3.865,13.579,5.547,20.403,5.237c-2.755-0.837-5.403-2.149-7.776-3.766    c-2.045-1.393-3.962-3.011-5.465-4.975c-4.411-5.76-4.721-13.622-4.158-20.855c0.768-9.866,2.815-19.631,6.076-28.973    c3.093-8.864,7.991-18.049,16.666-21.638c6.31-2.61,11.675-2.155,16.117,0.156c-2.077-1.61-4.414-2.754-5.842-3.697    c-1.333-0.881,2.126-16.136,2.507-18.177c1.081-5.8,1.92-9.902,1.019-15.862c-1.859-12.301-5.617-24.497-12.611-34.891    c-12.071-17.941-31.273-23.882-51.35-24.94c-6.03-0.318-12.137-0.214-18.156,0.161c-6.124,0.382-12.058,1.379-16.919,5.328    c-1.441,1.17-2.123,4.126-2.298,5.801c0.9,0.165,1.815,0.276,2.744,0.346C710.294,349.828,717.501,348.21,724.046,348.32z"/>
		<path fill="#F5D0CA" d="M816.909,485.935c-1.067,3.213-2.374,6.35-3.869,9.396C814.588,492.349,815.89,489.201,816.909,485.935z"/>
		<path fill="#1B2D44" d="M709.866,439.13c-2.681-0.479-5.375,2.046-6.018,5.641c-0.643,3.595,1.01,6.898,3.691,7.377    c2.681,0.479,5.375-2.046,6.017-5.641C714.198,442.912,712.547,439.609,709.866,439.13z"/>
		<path fill="#1B2D44" d="M666.87,444.667c0.643-3.595-1.01-6.898-3.69-7.377c-2.681-0.479-5.376,2.046-6.018,5.641    c-0.643,3.595,1.009,6.898,3.69,7.377C663.533,450.788,666.227,448.262,666.87,444.667z"/>
		<path fill="#CF3C46" d="M678.303,465.152c2.277-7.913,1.604-20.485,1.019-23.413c0,0-2.427,11.093-9.041,19.402    C666.053,466.452,676.026,473.065,678.303,465.152z"/>
		<path fill="#1B2D44" d="M677.538,496.951c11.382-0.542,15.393-12.358,14.743-14.201c-0.65-1.843-30.122-3.455-30.681-1.193    C660.507,485.982,666.156,497.493,677.538,496.951z M664.297,482.555c0.503-2.409,5.46-1.774,7.122-1.624    c2.431,0.22,4.873,0.019,7.308,0.12c4.312,0.179,8.636,0.909,12.898,1.553c0.019,0.653,0.003,1.308-0.046,1.96    c-0.032,0.425-0.083,0.863-0.297,1.232c-0.367,0.631-1.318,0.794-1.981,0.876c-1.638,0.203-3.073,0.337-4.726,0.366    c-2.409,0.043-4.818,0.037-7.225,0.014c-2.58-0.024-5.161-0.069-7.741-0.173c-3.402-0.137-5.408,0.241-5.349-3.985    C664.264,482.772,664.276,482.659,664.297,482.555z"/>
		<path fill="#FFFFFF" d="M669.61,486.879c2.579,0.104,5.16,0.149,7.741,0.173c2.407,0.023,4.816,0.029,7.225-0.014    c1.653-0.029,3.089-0.164,4.726-0.366c0.663-0.082,1.614-0.244,1.981-0.876c0.214-0.368,0.265-0.807,0.297-1.232    c0.048-0.652,0.064-1.306,0.046-1.96c-4.262-0.643-8.586-1.374-12.898-1.553c-2.435-0.101-4.877,0.1-7.308-0.12    c-1.662-0.15-6.619-0.785-7.122,1.624c-0.021,0.104-0.034,0.217-0.035,0.339C664.202,487.12,666.209,486.742,669.61,486.879z"/>
		<path fill="#1B2D44" d="M705.013,429.696c4.901-0.687,9.651-0.282,14.165,1.915c1.308,0.637,2.882,1.397,4.119,0.632    c1.045-0.647,1.254-2.174,0.741-3.292s-1.558-1.893-2.623-2.51c-4.41-2.559-9.799-3.186-14.806-2.22    c-1.923,0.371-4.458,1.299-4.577,3.629C701.926,429.924,703.436,429.917,705.013,429.696z"/>
		<path fill="#1B2D44" d="M654.124,427.938c0.849-0.233,1.7-0.385,2.549-0.543c3.92-0.733,7.834-0.683,11.743,0.633    c1.38,0.464,3.037,1.018,4.166,0.1c0.955-0.775,0.967-2.317,0.315-3.36c-0.65-1.043-1.787-1.679-2.921-2.155    c-4.004-1.682-8.516-1.811-12.764-0.846c-0.739,0.168-1.488,0.298-2.205,0.535c-1.301,0.429-2.848,1.179-3.609,2.382    c-0.325,0.515-0.522,1.105-0.468,1.802c0.023,0.298,0.127,0.456,0.201,0.666C651.575,428.405,652.808,428.299,654.124,427.938z"/>
		<path fill="#F5D0CA" d="M840.392,645.08c-6.078,2.514-11.812,2.988-16.784,7.785c-9.617,9.279-12.771,27.076-11.045,39.784    c4.797,35.331,36.897,19.31,60.779,20.323c-1.148-4.568-2.321-9.129-3.486-13.693c-0.414-0.048-0.802-0.125-1.228-0.162    c-7.961-0.674-16.422,2.326-24.235-0.748c-9.162-3.604-7.268-10.812-4.79-18.958c1.701-5.591,3.735-13.37,7.047-18.318    c2.49-3.72,6.845-6.245,10.512-9.193l0,0l0,0c-0.745-2.4-1.538-4.794-2.365-7.165l0,0c-0.244-0.699-0.516-1.397-0.767-2.092l0,0    c-0.703-1.944-1.412-3.892-2.181-5.811C848.804,640.27,845.113,643.127,840.392,645.08z"/>
		<path fill="#F5D0CA" d="M636.796,819.837c8.612-2.875,16.714-8.799,21.853-16.328c11.576-16.962,7.29-43.726-12.622-52.965    c-1.17-0.543-2.346-0.97-3.527-1.322c-0.932-0.278-1.867-0.503-2.802-0.67c-0.095-0.017-0.19-0.041-0.285-0.057    c-5.467-0.908-10.966,0.021-16.241,2.163c-1.036,0.421-2.063,0.888-3.079,1.397c-4.097,2.052-7.922,4.607-11.701,7.185    c-1.933,1.319-3.849,2.663-5.787,3.976c-0.241,0.164-4.861,2.521-4.811,2.303c-1.188,5.081-1.527,10.36-1,15.552    c7.744-2.995,13.838-9.116,21.88-11.759c1.035-0.34,2.039-0.557,3.028-0.72c16.72-2.755,26.381,18.717,10.826,28.823    c-10.696,6.948-24.777,0.217-36.535,4.636c-0.038,0.014-0.072,0.037-0.11,0.052l0,0c-0.19,1.543-0.816,6.032-0.927,6.734    c-0.321,2.033-0.687,4.056-1.16,6.054c-0.671,2.833-1.231,5.667-1.734,8.502l0,0c2.637-2.684,6.541-4.269,12.097-4.115    C616.043,819.607,624.751,823.857,636.796,819.837z"/>
		<path fill="#B49D98" d="M788.508,435.106c-8.675,3.589-13.573,12.774-16.666,21.638c-3.261,9.342-5.308,19.108-6.076,28.973    c-0.563,7.233-0.252,15.095,4.158,20.855c1.503,1.964,3.419,3.582,5.465,4.975c2.373,1.618,5.021,2.929,7.776,3.766    c3.183,0.967,6.512,1.292,9.758,0.604c7.749-1.643,13.302-8.415,17.289-15.259c1.011-1.734,1.94-3.52,2.827-5.327    c1.495-3.046,2.803-6.183,3.869-9.396c0.602-1.812,1.139-3.643,1.58-5.495c0.102-0.428,0.175-0.862,0.268-1.292    c0.785-3.642,1.272-7.342,1.325-11.077c0.166-11.717-5.083-27.412-15.456-32.808C800.183,432.951,794.818,432.496,788.508,435.106    z"/>
		<path fill="#EC8773" d="M469.238,701.48c-0.339,11.082,2.726,21.214,10.297,29.681c3.251,3.636,7.117,5.961,12.059,6.56    c7.324,0.887,15.219-5.96,14.603-13.182c-0.685-8.014-1.651-16.012-2.738-23.983c-1.274-9.352-3.209-18.937-1.738-28.142    c1.579-9.883,0.452-19.172-1.412-28.903c-0.067-0.35-0.127-0.696-0.196-1.047c-4.506-22.974-9.885-43.59-32.937-53.681    c-16.985-7.434-30.998-19.797-45.965-30.475c-1.951-1.392-5.323-4.316-7.413-3.186c-2.247,1.214-2.669,5.712-2.386,7.856    c0.511,3.872,2.762,7.839,5.089,10.922c1.953,2.59,3.227,6.404,5.306,9.081c0.108-0.048,0.231-0.066,0.341-0.048l13.154,4.045    c0.25,0.077,0.389,0.342,0.313,0.591c-0.074,0.242-0.326,0.381-0.57,0.319l-12.186-3.746c0.183,0.173,0.353,0.365,0.549,0.519    c-2.22-1.746-8.261-2.059-11.087-3.083c-0.501-0.182-1.001-0.369-1.499-0.562c-9.869-3.822-19.51-7.709-27.547-14.945    c-2.684-2.416-5.25-5.332-8.775-6.111c-3.602-0.796-2.266,3.962-1.197,5.586c0.401,0.608,0.84,1.209,1.249,1.822    c-0.021-0.189,0.038-0.38,0.217-0.472c0.229-0.117,0.517-0.029,0.636,0.203c3.362,6.525,7.766,12.402,13.098,17.464    c0.188,0.18,0.195,0.479,0.016,0.67c-0.122,0.129-0.299,0.173-0.461,0.131c-0.075-0.019-0.147-0.057-0.209-0.115    c-4.924-4.68-9.026-10.073-12.303-15.996c0.131,0.367,0.244,0.74,0.281,1.136c-7.644-5.3-15.287-10.599-22.931-15.898    c-1.486-1.03-3.512-2.066-4.959-0.986c-1.527,1.139-0.957,3.539-0.095,5.237c3.677,7.241,10.454,10.971,15.875,16.727    c6.503,6.904,13.714,13.194,21.859,18.096c13.174,7.927,26.523,15.728,41.006,21.251c6.267,2.39,12.504,4.889,18.615,7.65    c7.694,3.477,13.195,9.141,15.546,17.426c0.731,2.577,1.474,5.165,2.115,7.769c0.482,1.953,0.914,3.915,1.209,5.893    C466.435,669.451,469.735,685.237,469.238,701.48z M421.789,596.809c-7.35-2.391-13.193-7.711-18.827-12.851    c-4.363-3.977-8.873-8.091-14.072-10.841c-0.23-0.122-0.319-0.408-0.197-0.64c0.12-0.23,0.413-0.323,0.64-0.196    c5.302,2.807,9.857,6.962,14.265,10.979c5.561,5.072,11.313,10.317,18.468,12.647c0.248,0.079,0.384,0.346,0.303,0.595    C422.292,596.742,422.028,596.871,421.789,596.809z"/>
		<path fill="#D14953" d="M435.616,587.567c0.076-0.25-0.063-0.514-0.313-0.591l-13.154-4.045c-0.11-0.018-0.233,0-0.341,0.048    c-0.114,0.051-0.211,0.137-0.25,0.266c-0.076,0.249,0.063,0.514,0.313,0.591l13.175,4.05    C435.29,587.948,435.541,587.809,435.616,587.567z"/>
		<path fill="#D14953" d="M422.066,595.907c-7.156-2.33-12.908-7.575-18.468-12.647c-4.408-4.017-8.963-8.171-14.265-10.979    c-0.227-0.127-0.52-0.034-0.64,0.196c-0.122,0.232-0.034,0.518,0.197,0.64c5.199,2.75,9.709,6.864,14.072,10.841    c5.635,5.141,11.477,10.46,18.827,12.851c0.239,0.062,0.503-0.068,0.58-0.307C422.45,596.254,422.314,595.986,422.066,595.907z"/>
		<path fill="#D14953" d="M388.058,585.362c0.162,0.041,0.339-0.003,0.461-0.131c0.179-0.19,0.172-0.49-0.016-0.67    c-5.332-5.063-9.736-10.94-13.098-17.464c-0.119-0.233-0.407-0.32-0.636-0.203c-0.179,0.092-0.238,0.283-0.217,0.472    c0.007,0.056-0.013,0.111,0.014,0.164c0.304,0.589,0.659,1.144,0.98,1.722c3.277,5.923,7.379,11.316,12.303,15.996    C387.911,585.305,387.983,585.342,388.058,585.362z"/>
		<path fill="#363435" d="M112.378,725.525c0.144-0.014,0.288,0.003,0.432-0.004l68.124-232.008    c-0.549-0.385-1.101-0.765-1.647-1.155l-68.51,233.308C111.316,725.619,111.854,725.576,112.378,725.525z"/>
		<path fill="#363435" d="M162.061,440.06c-1.503,5.676-4.122,15.277-7.459,27.431c0.456,0.693,0.927,1.376,1.413,2.052    c3.836-13.961,6.348-23.173,7.786-28.597C163.22,440.645,162.642,440.339,162.061,440.06z"/>
		<path fill="#363435" d="M452.343,480.139c0.585-0.495,1.153-0.98,1.733-1.469l-141.221-43.081    c1.096,1.003,2.202,1.994,3.294,3.002L452.343,480.139z"/>
		<path fill="#363435" d="M434.004,499.825l-72.548-22.116c1.51,1.122,2.995,2.278,4.524,3.374l67.992,20.727    C433.899,501.127,433.89,500.462,434.004,499.825z"/>
		<path fill="#363435" d="M207.284,405.38l106.798,32.581c-1.094-1.006-2.195-2.002-3.295-3.002l-104.348-31.833    C206.725,403.875,207.001,404.629,207.284,405.38z"/>
		<path fill="#363435" d="M216.069,433.388c-0.17,0.607-0.415,1.2-0.714,1.777l148.005,45.119c-1.562-1.147-3.161-2.251-4.699-3.427    L216.069,433.388z"/>
		<path fill="#363435" d="M155.675,470.78c-0.484-0.652-0.979-1.297-1.435-1.968c-2.828,10.294-55.583,202.866-64.647,238.258    c0.408,0.996,0.801,1.998,1.215,2.992C104.459,656.625,153.155,479.949,155.675,470.78z"/>
		<path fill="#363435" d="M179.549,491.465c0.543,0.386,1.113,0.729,1.66,1.11l13.611-46.353c-0.638-0.092-1.271-0.184-1.904-0.275    L179.549,491.465z"/>
		<path d="M258.411,892.521c7.648-13.662,10.829-29.873,8.633-45.397c-2.393-16.915-11.445-31.63-21.989-44.711    c-11.726-14.547-25.278-27.553-35.914-42.979c-11.374-16.494-19.975-35.352-22.362-55.388    c-2.133-17.893,1.115-36.524,10.179-52.194c10.161-17.568,26.375-26.388,44.553-33.897c14.762-6.098,30.502-12.825,39.728-26.619    c8.984-13.435,6.692-29.524-2.758-42.06c-11.095-14.719-28.79-21.431-45.227-28.293c-18.303-7.642-35.772-17.062-52.044-28.407    c-0.547-0.381-1.117-0.724-1.66-1.11c-0.208-0.147-0.426-0.275-0.632-0.422c-8.477-6.05-16.839-13.087-22.902-21.5    c-0.486-0.675-0.957-1.358-1.413-2.052c-4.397-6.692-7.317-14.226-7.681-22.82c-0.742-17.51,8.23-34.971,22.026-45.534    c32.95-25.23,77.741-12.105,108.847,9.037c11.747,7.984,22.503,17.237,32.994,26.784c1.099,1,10.889,10.036,14.681,13.547    c10.706,9.913,21.631,19.515,33.192,28.353c1.539,1.176,3.137,2.28,4.699,3.427c2.545,1.869,5.066,3.766,7.681,5.551    c31.796,21.715,68.463,38.765,106.266,46.711c1.857,0.39,3.722,0.699,5.587,1.002c-0.132-0.287-0.236-0.585-0.365-0.874    c-13.076-2.057-25.987-6.364-38.186-10.683c-18.519-6.556-36.418-14.854-53.401-24.727c-8.585-4.991-16.903-10.407-24.962-16.182    c-1.529-1.096-3.014-2.252-4.524-3.374c-6.912-5.138-13.666-10.491-20.162-16.162c-8.549-7.464-16.805-15.258-25.146-22.956    c-1.092-1.007-2.197-1.999-3.294-3.002c-5.986-5.477-12.024-10.895-18.314-16.03c-27.043-22.082-60.828-40.35-96.856-33.772    c-15.591,2.847-30.314,10.58-40,23.338c-9.017,11.877-13.783,27.46-10.936,42.294c1.232,6.422,3.934,12.171,7.491,17.392    c0.456,0.67,0.951,1.315,1.435,1.968c5.254,7.065,12.043,13.129,19.046,18.377c1.487,1.114,3.053,2.122,4.566,3.202    c0.546,0.389,1.098,0.77,1.647,1.155c14.599,10.236,30.296,18.995,46.624,26.084c17.872,7.76,37.996,14.081,50.192,30.317    c6.072,8.083,9.833,18.262,7.919,28.438c-1.727,9.182-7.643,16.877-14.701,22.728c-14.691,12.181-33.901,16.035-50.153,25.495    c-13.674,7.96-23.799,20.363-29.629,35.021c-13.399,33.69-2.349,70.392,17.593,98.988c20.28,29.082,54.885,52.841,57.789,90.941    c1.409,18.489-4.626,37.455-16.675,51.575c-3.371,3.95-7.252,7.395-11.441,10.413c0.219,0.186,0.441,0.368,0.66,0.554    C246.881,908.436,253.549,901.206,258.411,892.521z"/>
		<path fill="#5780B5" d="M530.322,428.026c0.107,0.275,0.217,0.55,0.321,0.826c-2.654,0.122-8.868,0.351-9.317,0.366    c0.449-0.015,0.898-0.03,1.347-0.046c-5.103,4.388-10.038,8.961-14.781,13.726c5.226,0.092,10.459,0.063,15.69-0.044    c2.938-2.888,5.969-5.689,9.074-8.414c0.098,0.287,0.183,0.577,0.28,0.864c-2.775,2.441-5.486,4.948-8.129,7.519    c2.393-0.063,7.732-0.209,10.467-0.309c0.088,0.277,0.182,0.552,0.268,0.829c-3.865,0.142-12.424,0.361-12.83,0.368    c0.406-0.008,0.812-0.018,1.219-0.027c-3.926,3.876-7.628,7.95-10.987,12.301c4.017-1.893,7.96-3.999,11.826-6.337    c2.535-1.534,5.17-2.912,7.796-4.289c0.838-0.44,2.278-0.364,3.64,0.032c-1.39-4.507-2.81-9.006-4.367-13.468    c-0.927-2.654-1.965-5.279-3.067-7.875c-1.712,1.383-3.378,2.818-5.053,4.243C525.55,428.223,528.734,428.099,530.322,428.026z"/>
		<path fill="#5780B5" d="M490.237,426.587c-0.483,0.485-0.965,0.973-1.448,1.459c5.923,0.399,11.871,0.571,17.828,0.583    c5.687-4.942,11.555-9.673,17.589-14.198c-0.425-0.79-0.896-1.539-1.366-2.291c-6.228,0.435-12.471,0.751-18.701,0.819    C499.417,417.407,494.818,421.993,490.237,426.587z"/>
		<path fill="#5780B5" d="M522.368,428.344c2.002-1.719,4.015-3.427,6.07-5.085c0.114,0.263,0.224,0.528,0.336,0.792    c-1.219-2.872-2.521-5.712-3.9-8.5c-0.07-0.14-0.161-0.261-0.232-0.4c-5.738,4.306-11.335,8.795-16.759,13.48    C512.709,428.622,517.541,428.511,522.368,428.344z"/>
		<path fill="#5780B5" d="M502.913,412.965c-5.422,0.031-10.832-0.14-16.215-0.576c-4.434,4.517-8.659,9.23-12.688,14.117    c4.54,0.647,9.102,1.124,13.681,1.455c0.651-0.656,1.3-1.314,1.952-1.968C494.018,421.605,498.411,417.223,502.913,412.965z"/>
		<path fill="#5780B5" d="M473.888,410.797c-3.549,4.411-6.742,9.101-9.545,14.043c2.889,0.587,5.787,1.101,8.697,1.533    c3.994-4.867,8.174-9.572,12.568-14.075C481.685,411.952,477.775,411.472,473.888,410.797z"/>
		<path fill="#5780B5" d="M488.013,428.829c-3.78,3.808-7.53,7.656-11.135,11.626c4.992,0.764,10.013,1.334,15.057,1.721    c4.442-4.386,9.044-8.604,13.739-12.717C499.773,429.432,493.881,429.243,488.013,428.829z"/>
		<path fill="#5780B5" d="M492.369,458.668c4.336-5.166,8.858-10.164,13.575-14.974c-4.575-0.108-9.143-0.314-13.696-0.655    c-4.271,4.227-8.383,8.613-12.407,13.084C483.989,457.099,488.165,457.954,492.369,458.668z"/>
		<path fill="#5780B5" d="M479.209,456.831c-2.909,3.252-5.744,6.571-8.532,9.933c2.987-0.543,5.983-1.026,8.994-1.326    c2.779-0.277,5.499-0.714,8.193-1.221c1.285-1.608,2.571-3.216,3.887-4.797C487.542,458.695,483.363,457.818,479.209,456.831z"/>
		<path fill="#5780B5" d="M478.92,455.897c3.963-4.415,8.007-8.753,12.209-12.933c-4.997-0.399-9.971-0.988-14.916-1.76    c-3.3,3.669-6.458,7.453-9.39,11.41C470.822,453.838,474.858,454.921,478.92,455.897z"/>
		<path fill="#5780B5" d="M544.177,495.19c-14.252,7.556-29.134,13.458-44.86,17.221c-5.866,1.404-11.74,1.973-17.706,1.307    c-3.168-0.353-5.839-1.845-7.681-4.245c2.054,6.314,4.477,12.536,6.75,18.778c0.546,1.497,1.196,2.961,1.848,4.423    c0.129,0.289,0.233,0.586,0.365,0.874c0.937,2.037,1.94,4.046,3,6.014c5.841,10.844,15.453,16.16,27.298,17.655    c4.088,0.516,8.333,0.382,12.449-0.026c12.848-1.274,21.873-9.675,24.032-22.571c0.976-5.837,1.137-11.81,1.624-17.226    c-0.76-7.049-1-13.637-2.246-20.028c-0.326-1.675-0.707-3.337-1.047-5.009C546.976,493.419,545.721,494.372,544.177,495.19z     M529.807,554.127c-5.341,0.883-10.25-0.342-15.209-2.365c-3.659-1.493-7.89-3.042-10.783-5.844    c-3.315-3.21-5.13-7.833-7.051-11.929c-2.314-4.934-4.336-9.93-5.491-15.273c-0.114-0.528,0.696-0.752,0.81-0.224    c1.767,8.177,5.345,17.066,10.048,24.053c2.619,3.889,6.475,5.706,10.625,7.517c5.404,2.358,10.863,4.241,16.827,3.255    C530.113,553.229,530.339,554.039,529.807,554.127z"/>
		<path fill="#5780B5" d="M463.927,425.612c-1.97,3.543-3.759,7.196-5.314,10.968c1.825,0.504,3.667,0.977,5.505,1.41    c2.652-3.711,5.428-7.322,8.3-10.855C469.577,426.706,466.747,426.19,463.927,425.612z"/>
		<path fill="#5780B5" d="M489.135,463.966c4.04-0.817,7.992-1.881,11.861-3.177c-2.772-0.357-5.537-0.759-8.291-1.22    C491.494,461.017,490.318,462.494,489.135,463.966z"/>
		<path fill="#5780B5" d="M473.388,427.268c-2.902,3.555-5.705,7.191-8.382,10.928c3.609,0.827,7.239,1.525,10.887,2.104    c3.566-3.947,7.274-7.775,11.022-11.557C482.388,428.402,477.877,427.922,473.388,427.268z"/>
		<path fill="#5780B5" d="M507.066,443.72c-4.779,4.845-9.355,9.888-13.743,15.097c3.188,0.526,6.394,0.958,9.606,1.34    c2.847-1.016,5.639-2.186,8.403-3.438c3.451-4.615,7.288-8.923,11.381-13.006C517.495,443.811,512.276,443.825,507.066,443.72z"/>
		<path fill="#5780B5" d="M506.93,429.471c-4.74,4.128-9.373,8.376-13.857,12.782c4.54,0.326,9.095,0.523,13.658,0.62    c4.684-4.736,9.557-9.285,14.595-13.654C516.528,429.376,511.726,429.476,506.93,429.471z"/>
		<path fill="#5780B5" d="M487.477,411.613c5.423,0.415,10.87,0.568,16.329,0.516c3.528-3.314,7.141-6.531,10.857-9.625    c-1.107-0.986-2.259-1.93-3.456-2.832c-3.645,0.092-7.292,0.064-10.938-0.034C495.832,403.447,491.59,407.466,487.477,411.613z"/>
		<path fill="#5780B5" d="M490.689,393.115c0.471-0.03,0.941-0.037,1.412-0.047c-2.052,1.563-4.052,3.183-5.978,4.887    c4.358,0.417,8.729,0.707,13.105,0.851c0.14,0.004,0.648,0.011,1.134,0.017c-0.141-0.002-0.282-0.002-0.423-0.006    c1.394-1.194,2.844-2.324,4.268-3.483c0.292,0.126,0.593,0.222,0.881,0.36c-1.294,1.048-2.613,2.066-3.881,3.142    c2.957,0.068,5.913,0.063,8.868,0.003c-0.654-0.469-1.262-0.982-1.937-1.428c-9.227-6.1-21.271-5.319-31.041-0.77    c2.546,0.701,5.263,0.958,7.905,1.218C486.837,396.208,488.738,394.636,490.689,393.115z"/>
		<path fill="#5780B5" d="M522.361,411.335c-2.01-3.061-4.403-5.788-7.082-8.256c-3.493,2.905-6.893,5.923-10.216,9.027    C510.827,412.02,516.6,411.731,522.361,411.335z"/>
		<path fill="#5780B5" d="M483.924,398.861c-2.761-0.271-5.494-0.745-7.981-1.635c-5.123,2.593-9.514,6.216-12.432,10.428    c3.324,0.893,6.668,1.632,10.03,2.229C476.726,405.962,480.207,402.296,483.924,398.861z"/>
		<path fill="#5780B5" d="M472.967,410.628c-3.332-0.604-6.646-1.345-9.941-2.24c0.057-0.088,0.116-0.175,0.174-0.263    c-0.854,1.295-1.615,2.624-2.166,4.009c-0.655,1.65-1.18,3.361-1.638,5.078c-0.554,2.079-0.9,4.163-1.148,6.255    c1.744,0.43,3.493,0.827,5.247,1.194C466.279,419.726,469.449,415.042,472.967,410.628z"/>
		<path fill="#5780B5" d="M463.08,425.433c-1.646-0.347-3.288-0.72-4.926-1.123c-0.343,3.475-0.319,6.979,0.172,10.555    c0.039,0.283,0.091,0.563,0.13,0.845c-0.033-0.204-0.065-0.407-0.094-0.612C459.777,431.789,461.349,428.565,463.08,425.433z"/>
		<path fill="#5780B5" d="M494.329,399.428c-2.813-0.158-6.048-0.187-9.305-0.449c-3.776,3.44-7.317,7.117-10.549,11.06    c3.95,0.672,7.924,1.149,11.913,1.482c4.073-4.133,8.29-8.123,12.682-11.925C497.49,399.545,495.909,399.517,494.329,399.428z"/>
		<path fill="#5780B5" d="M478.287,456.605c-4.031-0.978-8.039-2.052-12.007-3.275c-1.378,1.887-2.712,3.807-3.97,5.784    c-0.073-0.394-0.149-0.788-0.221-1.183c1.069-1.648,2.176-3.267,3.327-4.852c-1.514-0.474-3.009-1.008-4.512-1.517    c-0.053-0.31-0.091-0.623-0.144-0.933c1.73,0.59,3.457,1.19,5.2,1.733c2.893-3.924,6.012-7.674,9.268-11.313    c-3.607-0.584-7.196-1.288-10.764-2.114c-1.543,2.172-3.023,4.388-4.487,6.618c-0.065-0.412-0.126-0.824-0.191-1.236    c1.244-1.878,2.491-3.752,3.79-5.589c-1.62-0.385-3.234-0.801-4.845-1.243l-0.011-0.075c1.465,10.272,3.215,20.489,5.255,30.646    c1.799-0.364,3.607-0.703,5.413-1.044C472.29,463.486,475.25,460.01,478.287,456.605z"/>
		<path fill="#FFFFFF" d="M490.689,393.115c-1.951,1.521-3.853,3.093-5.688,4.741c0.122,0.012,0.244,0.024,0.365,0.036    c0.251,0.025,0.505,0.038,0.756,0.063c1.926-1.705,3.926-3.324,5.978-4.887C491.63,393.078,491.161,393.085,490.689,393.115z"/>
		<path fill="#FFFFFF" d="M472.967,410.628c-3.518,4.413-6.688,9.098-9.471,14.033c0.282,0.059,0.565,0.121,0.848,0.178    c2.803-4.942,5.996-9.632,9.545-14.043C473.581,410.743,473.274,410.684,472.967,410.628z"/>
		<path fill="#FFFFFF" d="M458.613,436.58c1.556-3.772,3.344-7.425,5.314-10.968c-0.282-0.058-0.564-0.119-0.847-0.178    c-1.732,3.132-3.303,6.355-4.717,9.665C458.392,435.304,458.573,436.291,458.613,436.58z"/>
		<path fill="#FFFFFF" d="M485.024,398.979c-0.368-0.03-0.732-0.082-1.1-0.118c-3.717,3.435-7.198,7.101-10.382,11.023    c0.31,0.055,0.622,0.102,0.933,0.154C477.707,406.096,481.248,402.419,485.024,398.979z"/>
		<path fill="#FFFFFF" d="M485.608,412.297c-4.394,4.504-8.573,9.208-12.568,14.075c0.323,0.048,0.646,0.088,0.97,0.134    c4.029-4.887,8.254-9.6,12.688-14.117C486.335,412.36,485.971,412.329,485.608,412.297z"/>
		<path fill="#FFFFFF" d="M499.07,399.596c-4.392,3.802-8.609,7.791-12.682,11.925c0.363,0.03,0.726,0.064,1.089,0.092    c4.113-4.147,8.355-8.166,12.792-11.974C499.869,399.628,499.47,399.609,499.07,399.596z"/>
		<path fill="#FFFFFF" d="M504.207,395.333c-1.424,1.159-2.874,2.289-4.268,3.483c0.141,0.004,1.094,0.015,1.268,0.019    c1.269-1.076,2.588-2.094,3.881-3.142C504.8,395.555,504.498,395.459,504.207,395.333z"/>
		<path fill="#FFFFFF" d="M472.418,427.135c-2.873,3.533-5.648,7.143-8.3,10.855c0.296,0.069,0.591,0.139,0.888,0.207    c2.677-3.737,5.48-7.373,8.382-10.928C473.065,427.222,472.741,427.184,472.418,427.135z"/>
		<path fill="#FFFFFF" d="M459.786,444.316c0.065,0.412,0.126,0.824,0.191,1.236c1.464-2.23,2.944-4.446,4.487-6.618    c-0.296-0.068-0.591-0.136-0.888-0.207C462.276,440.564,461.03,442.439,459.786,444.316z"/>
		<path fill="#FFFFFF" d="M486.915,428.744c-3.748,3.782-7.456,7.61-11.022,11.557c0.328,0.052,0.657,0.104,0.986,0.154    c3.605-3.97,7.355-7.818,11.135-11.626C487.647,428.803,487.281,428.771,486.915,428.744z"/>
		<path fill="#FFFFFF" d="M504.14,412.96c-0.409,0.004-0.818,0.003-1.227,0.005c-4.502,4.258-8.895,8.64-13.27,13.029    c-0.652,0.654-1.301,1.312-1.952,1.968c0.367,0.027,0.732,0.06,1.099,0.085c0.482-0.486,0.964-0.974,1.448-1.459    C494.818,421.993,499.417,417.407,504.14,412.96z"/>
		<path fill="#FFFFFF" d="M476.213,441.203c-0.328-0.051-0.658-0.101-0.986-0.154c-3.256,3.639-6.375,7.39-9.268,11.313    c0.287,0.089,0.577,0.163,0.863,0.251C469.755,448.656,472.913,444.872,476.213,441.203z"/>
		<path fill="#FFFFFF" d="M505.063,412.106c3.324-3.104,6.723-6.122,10.216-9.027l0.067-0.059c-0.207-0.191-0.427-0.37-0.637-0.557    l-0.047,0.042c-3.717,3.093-7.329,6.311-10.857,9.625C504.225,412.124,504.644,412.112,505.063,412.106z"/>
		<path fill="#FFFFFF" d="M462.089,457.932c0.072,0.395,0.148,0.789,0.221,1.183c1.258-1.977,2.592-3.897,3.97-5.784    c-0.287-0.088-0.578-0.161-0.863-0.251C464.265,454.665,463.158,456.284,462.089,457.932z"/>
		<path fill="#FFFFFF" d="M478.287,456.605c-3.037,3.405-5.997,6.881-8.898,10.407c0.429-0.081,0.858-0.17,1.288-0.248    c2.788-3.362,5.623-6.682,8.532-9.933C478.9,456.758,478.594,456.68,478.287,456.605z"/>
		<path fill="#FFFFFF" d="M479.841,456.123c4.024-4.47,8.136-8.856,12.407-13.084c-0.373-0.028-0.747-0.046-1.12-0.075    c-4.202,4.18-8.246,8.518-12.209,12.933C479.227,455.971,479.533,456.05,479.841,456.123z"/>
		<path fill="#FFFFFF" d="M507.883,428.63c5.423-4.684,11.021-9.174,16.759-13.48l0,0c-0.129-0.253-0.262-0.501-0.395-0.75    l-0.04,0.031c-6.034,4.525-11.902,9.256-17.589,14.198C507.039,428.63,507.46,428.631,507.883,428.63z"/>
		<path fill="#FFFFFF" d="M505.675,429.459c-4.696,4.113-9.297,8.33-13.739,12.717c0.379,0.029,0.758,0.049,1.137,0.076    c4.483-4.406,9.116-8.653,13.857-12.782C506.51,429.47,506.093,429.461,505.675,429.459z"/>
		<path fill="#FFFFFF" d="M521.326,429.219c-5.038,4.369-9.911,8.918-14.595,13.654c0.388,0.008,0.774,0.019,1.162,0.026    c4.743-4.765,9.678-9.338,14.781-13.726C522.224,429.189,521.775,429.204,521.326,429.219z"/>
		<path fill="#FFFFFF" d="M493.323,458.817c4.388-5.209,8.965-10.252,13.743-15.097c-0.374-0.008-0.747-0.017-1.121-0.026    c-4.717,4.81-9.239,9.808-13.575,14.974C492.685,458.722,493.004,458.764,493.323,458.817z"/>
		<path fill="#FFFFFF" d="M522.368,428.344c0.125-0.004,0.646-0.024,1.353-0.051c1.675-1.425,3.341-2.86,5.053-4.243l0,0    c-0.112-0.264-0.223-0.529-0.336-0.792C526.383,424.918,524.37,426.626,522.368,428.344z"/>
		<path fill="#FFFFFF" d="M491.751,459.42c-1.316,1.58-2.602,3.188-3.887,4.797c0.425-0.08,0.848-0.165,1.271-0.251    c1.183-1.472,2.359-2.949,3.57-4.397C492.387,459.516,492.069,459.475,491.751,459.42z"/>
		<path fill="#FFFFFF" d="M522.713,443.713c-4.093,4.083-7.93,8.391-11.381,13.006c0.538-0.244,1.079-0.48,1.613-0.732    c3.359-4.351,7.061-8.425,10.987-12.301C523.525,443.695,523.119,443.705,522.713,443.713z"/>
		<path fill="#FFFFFF" d="M532.656,434.441c-3.105,2.725-6.136,5.526-9.074,8.414c0.088-0.002,0.566-0.014,1.225-0.031    c2.643-2.571,5.354-5.078,8.129-7.519C532.84,435.018,532.754,434.727,532.656,434.441z"/>
		<path fill="#FFFFFF" d="M485.024,398.979c3.257,0.262,6.492,0.291,9.305,0.449c1.58,0.089,3.161,0.116,4.74,0.168    c0.401,0.013,0.799,0.031,1.199,0.042c3.647,0.098,7.293,0.126,10.938,0.034h0.106c-0.373-0.282-0.747-0.561-1.128-0.835h-0.111    c-2.955,0.06-5.911,0.065-8.868-0.003c-0.174-0.004-1.839-0.025-1.978-0.029c-4.376-0.143-8.747-0.433-13.105-0.851    c-0.251-0.024-0.505-0.038-0.756-0.063c-0.121-0.012-0.243-0.024-0.365-0.036c-2.643-0.259-5.36-0.517-7.905-1.218    c-0.392,0.183-0.768,0.392-1.153,0.587c2.487,0.89,5.22,1.364,7.981,1.635C484.292,398.897,484.656,398.949,485.024,398.979z"/>
		<path fill="#FFFFFF" d="M472.967,410.628c0.307,0.056,0.614,0.115,0.921,0.169c3.887,0.675,7.796,1.155,11.72,1.5    c0.363,0.032,0.727,0.063,1.09,0.092c5.383,0.435,10.793,0.607,16.215,0.576c0.409-0.002,0.818,0,1.227-0.005    c6.231-0.068,12.473-0.385,18.701-0.819l0.104-0.006c-0.169-0.272-0.347-0.536-0.523-0.803l-0.062,0.004    c-5.761,0.396-11.534,0.686-17.298,0.771c-0.419,0.006-0.838,0.019-1.258,0.023c-5.458,0.052-10.906-0.101-16.329-0.516    c-0.363-0.028-0.726-0.062-1.089-0.092c-3.989-0.333-7.962-0.81-11.913-1.482c-0.311-0.053-0.623-0.099-0.933-0.154    c-3.362-0.598-6.707-1.336-10.03-2.229c-0.107,0.156-0.209,0.313-0.311,0.471c-0.058,0.088-0.117,0.175-0.174,0.263    C466.321,409.283,469.635,410.024,472.967,410.628z"/>
		<path fill="#FFFFFF" d="M463.927,425.612c2.821,0.578,5.65,1.094,8.491,1.523c0.322,0.049,0.646,0.087,0.97,0.133    c4.489,0.653,9,1.133,13.527,1.475c0.366,0.027,0.732,0.059,1.098,0.085c5.868,0.414,11.76,0.603,17.662,0.631    c0.418,0.002,0.836,0.011,1.255,0.011c4.796,0.005,9.598-0.095,14.397-0.252c0.449-0.015,6.663-0.244,9.317-0.366    c-0.104-0.276-0.214-0.551-0.321-0.826c-1.588,0.073-7.829,0.313-7.954,0.318c-4.827,0.167-9.659,0.278-14.484,0.286    c-0.423,0.001-0.844,0-1.266-0.001c-5.957-0.012-11.904-0.184-17.828-0.583c-0.367-0.025-0.732-0.058-1.099-0.085    c-4.578-0.331-9.141-0.808-13.681-1.455c-0.323-0.046-0.646-0.086-0.97-0.134c-2.91-0.431-5.809-0.946-8.697-1.533    c-0.282-0.058-0.565-0.119-0.848-0.178c-1.754-0.367-3.503-0.764-5.247-1.194c-0.034,0.281-0.067,0.562-0.094,0.843    c1.638,0.403,3.28,0.776,4.926,1.123C463.362,425.493,463.645,425.554,463.927,425.612z"/>
		<path fill="#FFFFFF" d="M463.576,438.728c0.296,0.07,0.591,0.138,0.888,0.207c3.569,0.827,7.157,1.53,10.764,2.114    c0.328,0.053,0.658,0.103,0.986,0.154c4.945,0.772,9.918,1.361,14.916,1.76c0.373,0.03,0.747,0.047,1.12,0.075    c4.552,0.341,9.12,0.547,13.696,0.655c0.374,0.009,0.748,0.018,1.121,0.026c5.211,0.105,10.43,0.091,15.647-0.007    c0.406-0.008,8.965-0.226,12.83-0.368c-0.087-0.277-0.181-0.552-0.268-0.829c-2.735,0.1-11.604,0.338-11.692,0.34    c-5.231,0.107-10.464,0.136-15.69,0.044c-0.387-0.007-0.774-0.018-1.162-0.026c-4.563-0.097-9.118-0.294-13.658-0.62    c-0.379-0.027-0.758-0.047-1.137-0.076c-5.044-0.387-10.066-0.957-15.057-1.721c-0.329-0.05-0.658-0.102-0.986-0.154    c-3.649-0.58-7.279-1.278-10.887-2.104c-0.296-0.068-0.591-0.137-0.888-0.207c-1.838-0.433-3.68-0.906-5.505-1.41    c0.04,0.28,0.118,0.905,0.118,0.905C460.342,437.926,461.956,438.342,463.576,438.728z"/>
		<path fill="#FFFFFF" d="M492.369,458.668c-4.204-0.714-8.38-1.569-12.527-2.545c-0.308-0.072-0.614-0.152-0.921-0.226    c-4.062-0.976-8.098-2.058-12.097-3.284c-0.287-0.088-0.577-0.162-0.863-0.251c-1.743-0.543-3.47-1.143-5.2-1.733    c0.053,0.31,0.091,0.623,0.144,0.933c1.503,0.509,2.998,1.043,4.512,1.517c0.286,0.09,0.577,0.162,0.863,0.251    c3.968,1.223,7.975,2.297,12.007,3.275c0.307,0.075,0.614,0.153,0.922,0.226c4.154,0.987,8.333,1.864,12.542,2.589    c0.318,0.055,0.636,0.096,0.954,0.149c2.754,0.461,5.519,0.863,8.291,1.22c0.643-0.215,1.295-0.404,1.933-0.632    c-3.213-0.382-6.418-0.814-9.606-1.34C493.004,458.764,492.685,458.722,492.369,458.668z"/>
		<path fill="#FFFFFF" d="M529.583,553.317c-5.964,0.986-11.424-0.897-16.827-3.255c-4.151-1.811-8.006-3.629-10.625-7.517    c-4.703-6.987-8.281-15.876-10.048-24.053c-0.115-0.528-0.924-0.305-0.81,0.224c1.155,5.343,3.177,10.339,5.491,15.273    c1.922,4.096,3.736,8.719,7.051,11.929c2.893,2.802,7.124,4.351,10.783,5.844c4.959,2.024,9.868,3.248,15.209,2.365    C530.339,554.039,530.113,553.229,529.583,553.317z"/>
		<path fill="#5780B5" d="M216.07,429.729c-2.801-8.161-5.736-16.277-8.786-24.349c-0.283-0.751-1.693-4.558-2.137-5.701    c-1.669-4.294-7.766-6.024-12.238-4.014c-0.54,0.243-1.137,0.373-1.652,0.657c-12.772,7.055-22.361,17.501-30.49,29.322    c-1.557,2.263-1.595,5.632-2.109,8.53c-0.4,2.251,1.169,4.837,3.223,5.796c0.061,0.028,0.119,0.061,0.179,0.09    c0.581,0.279,1.159,0.586,1.74,0.886c0.965,0.498,1.937,0.956,2.956,1.118c8.531,1.356,29.799,4.408,30.688,4.538    c1.596-0.339,4.068-0.432,6.138-1.394c4.316-2.008,8.231-4.719,11.013-8.741c0.287-0.414,0.529-0.856,0.759-1.3    c0.3-0.578,0.544-1.17,0.714-1.777C216.413,432.168,216.478,430.917,216.07,429.729z"/>
		<path fill="#1B2D44" d="M464.34,481.051c0.139,0.577,0.279,1.153,0.415,1.73l0.086-0.018c0.881,3.904,1.589,7.861,2.621,11.718    c2.685-0.738,5.337-1.544,7.837-2.596c5.484-2.306,11.634-2.898,17.539-3.878c1.717-0.285,3.507-0.173,5.264-0.165    c1.999,0.01,4.399,2.497,4.613,4.628c0.194,1.942-0.621,3.533-2.009,4.659c-1.349,1.093-2.903,2.126-4.538,2.637    c-6.208,1.944-12.454,3.785-18.746,5.435c-1.747,0.458-3.511,0.853-5.269,1.265c0.274,0.538,0.504,1.102,0.791,1.631    c0.278,0.512,0.645,0.931,0.986,1.377c1.842,2.4,4.513,3.891,7.681,4.245c5.966,0.666,11.84,0.097,17.706-1.307    c15.726-3.763,30.608-9.665,44.86-17.221c1.543-0.818,2.798-1.772,3.827-2.833c2.603-2.687,3.596-6.141,2.974-10.393    c-0.344-2.355-1.047-4.673-1.214-7.034c-0.536-7.588-2.983-14.557-6.258-21.256c-6.579,7.767-19.306,9.65-28.481,12.162    c-16.395,4.489-33.299,10.54-50.537,9.141c-0.536-0.044-0.539-0.884,0-0.84c15.605,1.267,30.73-3.748,45.589-7.817    c6.823-1.868,13.806-3.466,20.5-5.774c4.73-1.631,9.402-3.875,12.528-7.668c-0.268-0.538-0.532-1.077-0.81-1.612    c-0.805-1.544-2.037-2.886-3.179-4.23c-0.615-0.724-1.734-1.301-2.909-1.643c-1.362-0.396-2.802-0.472-3.64-0.032    c-2.627,1.377-5.261,2.755-7.796,4.289c-3.866,2.338-7.809,4.443-11.826,6.337c-0.535,0.252-1.075,0.489-1.613,0.732    c-2.764,1.252-5.556,2.422-8.403,3.438c-0.638,0.228-1.29,0.417-1.933,0.632c-3.869,1.296-7.822,2.36-11.861,3.177    c-0.423,0.085-0.846,0.171-1.271,0.251c-2.695,0.507-5.415,0.945-8.193,1.221c-3.011,0.3-6.007,0.783-8.994,1.326    c-0.43,0.078-6.809,1.313-6.809,1.313c-0.795,0.161-1.984,1.78-1.854,2.525c0.334,1.902,0.755,3.788,1.193,5.671    C464.775,477.189,464.964,479.086,464.34,481.051z"/>
		<path fill="#363435" d="M447.136,484.754c-3.854,3.669-7.633,7.435-11.206,11.373c-1.06,1.168-1.693,2.388-1.926,3.698    c-0.115,0.636-0.105,1.302-0.032,1.985c0.182,1.699,0.902,3.549,2.184,5.636c0.293,0.478,0.839,0.801,2.005,1.875    c7.901,1.84,14.933,1.611,21.964-0.069c4.002-0.956,15.548-3.593,17.296-4.051c6.292-1.651,12.538-3.492,18.746-5.435    c1.635-0.512,3.189-1.544,4.538-2.637c1.388-1.125,2.203-2.717,2.009-4.659c-0.213-2.131-2.614-4.619-4.613-4.628    c-1.757-0.008-3.547-0.12-5.264,0.165c-5.905,0.979-12.055,1.571-17.539,3.878c-2.5,1.051-5.153,1.858-7.837,2.596    c-3.784,1.041-7.642,1.922-11.324,2.955c-2.79,0.783-5.789,1.562-8.53,0.622c1.065-2.056,2.996-3.495,4.828-4.91    c3.221-2.487,6.328-5.12,9.309-7.889c1.138-1.057,2.097-2.636,2.595-4.207c0.623-1.965,0.434-3.862-1.134-4.777    c-0.756-0.441-1.769-0.696-3.263-0.537c-1.142,0.122-2.246,0.599-3.547,0.965c-0.755,0.651-3.469,2.943-4.054,3.437    C450.583,481.629,448.824,483.147,447.136,484.754z"/>
		<path fill="#F5D0CA" d="M530.578,460.546c-6.694,2.308-13.677,3.906-20.5,5.774c-14.859,4.068-29.984,9.084-45.589,7.817    c-0.539-0.044-0.536,0.796,0,0.84c17.238,1.4,34.142-4.652,50.537-9.141c9.175-2.512,21.902-4.395,28.481-12.162l-0.401-0.796    C539.98,456.671,535.308,458.915,530.578,460.546z"/>
		<path fill="#5780B5" d="M124.457,740.178c-0.44-2.899-1.415-5.735-2.325-8.54c-1.223-3.765-5.225-6.32-9.322-6.117    c-0.144,0.007-0.288-0.01-0.432,0.004c-0.523,0.051-1.062,0.094-1.601,0.142c-1.261,0.112-2.522,0.276-3.583,0.803    c-2.507,1.246-5.003,2.515-7.506,3.77c7.292,15.661,15.354,30.954,24.096,45.856c0.614-1.098,1.044-2.429,1.223-4.088    C126.152,761.409,126.06,750.751,124.457,740.178z"/>
	</g>
</g>
</svg>