<?xml version="1.0" encoding="utf-8"?>
<!-- Generator: Adobe Illustrator 25.1.0, SVG Export Plug-In . SVG Version: 6.00 Build 0)  -->
<svg version="1.1" xmlns="http://www.w3.org/2000/svg" xmlns:xlink="http://www.w3.org/1999/xlink" x="0px" y="0px"
	 viewBox="0 0 1700 1042.276" enable-background="new 0 0 1700 1042.276" xml:space="preserve">
<g id="background">
	<g>
		<g>
			<path fill="none" d="M406.361,245.865l-0.399,0.395C406.217,246.011,406.361,245.865,406.361,245.865z"/>
			<path fill="none" d="M352.158,692.873c0,3.89-1.238,7.677-3.536,10.816l-11.582,15.9v21.956l-13.351,74.43l0.001,0.068
				c13.09-0.438,26.817-0.671,40.966-0.671c9.958,0,19.707,0.116,29.172,0.337l-13.303-74.164v-21.956l-11.582-15.9
				c-2.299-3.139-3.536-6.926-3.536-10.816v-42.35c1.445,0.006,2.873,0.008,4.283,0.006c-1.41,0.002-2.838,0.001-4.283-0.006
				c-2.608,0-5.261-0.029-7.987-0.074c-2.883-0.044-5.77-0.2-8.656-0.415c1.125,0.165,2.249,0.329,3.395,0.489V692.873z"/>
			<path fill="none" d="M406.361,245.865l-1.011-1.266C405.964,245.398,406.361,245.865,406.361,245.865z"/>
			<path fill="#D8D5D4" d="M474.45,834.807l-80.781,0.044l0.206-18.876l-0.048-0.266c-9.465-0.221-19.214-0.337-29.172-0.337
				c-14.149,0-27.876,0.233-40.966,0.671l0.206,18.808l-80.781-0.044l-2.49-10.624c0,0,1.11-0.687,3.902-1.984
				c-26.609,3.747-42.856,8.742-42.856,14.227c0,11.628,72.971,21.054,162.986,21.054s162.986-9.426,162.986-21.054
				c0-6.532-23.034-12.37-59.181-16.232c6.215,2.586,8.481,3.989,8.481,3.989L474.45,834.807z"/>
			<path fill="#1E2349" d="M351.753,168.003c0,0,39.945-3.163,45.375-9.721l17.106,8.167c0,0,3.971-2.439,7.31-1.116
				c-1.975-4.636-4.78-8.83-8.218-12.413l-0.007,0.069c0.001,0.005,0.001,0.01,0.002,0.015c-0.001-0.003-0.002-0.006-0.003-0.009
				h-59.675c0,0-0.004,0.009-0.005,0.012c0.002-0.006,0.003-0.012,0.004-0.018l0-0.001c-4.245,4.445-7.509,9.83-9.443,15.818
				C347.906,167.446,351.753,168.003,351.753,168.003z"/>
			<path fill="#1E2349" d="M351.442,191.317c0,0-4.322,1.202-8.165-0.444c1.902,8.21,6.244,15.483,12.23,21.008
				C351.333,199.738,351.442,191.317,351.442,191.317z"/>
			<path fill="#1E2349" d="M419.519,188.847c-4.974,0.605-7.46,0-7.46,0s-0.064,13.872-6.663,27.715
				c11.203-7.008,18.804-19.233,19.396-33.276C423.603,186.367,421.713,188.58,419.519,188.847z"/>
			<path fill="#FFB871" d="M349.782,243.136c0.017,0.017,0.026,0.026,0.048,0.049c0.206,0.236,0.678,0.707,1.356,1.356
				c0.029,0.015,0.044,0.029,0.059,0.059c0.472,0.446,1.045,0.972,1.711,1.554c4.663,4.075,13.874,10.911,24.563,12.342
				c0.884,0.118,1.739,0.192,2.564,0.251c0.744,0.052,1.464,0.077,2.158,0.08c2.084,0.008,3.946-0.191,5.593-0.522l0,0h0.015
				c6.875-1.359,16.111-10.086,18.113-12.043l0.399-0.395c0,0-0.397-0.468-1.011-1.266l0,0l0,0c-2.7-3.51-9.626-13.444-5.771-18.466
				c2.356-3.069,4.265-6.319,5.816-9.572c6.599-13.842,6.663-27.715,6.663-27.715s2.487,0.605,7.46,0
				c2.194-0.267,4.084-2.479,5.273-5.562c1.507-3.906,1.887-9.21,0.323-13.728c-0.836-2.416-2.146-3.66-3.57-4.224
				c-3.339-1.323-7.31,1.116-7.31,1.116l-17.106-8.167c-5.43,6.559-45.375,9.721-45.375,9.721s-3.847-0.557-7.553,0.804
				c-3.592,1.319-7.052,4.439-6.746,11.63c0.268,6.302,2.908,9.187,5.823,10.436c3.843,1.646,8.165,0.444,8.165,0.444
				s-0.109,8.421,4.065,20.564c1.343,3.906,3.125,8.194,5.502,12.714c4.713,8.966-9.988,17.672-11.233,18.389h0L349.782,243.136z"/>
			<path fill="#FFB871" d="M353.639,153.007c0.001-0.003,0.005-0.012,0.005-0.012l-0.001-0.006
				C353.642,152.995,353.641,153.001,353.639,153.007z"/>
			<path fill="#FFB871" d="M413.322,153.004c-0.001-0.005-0.001-0.01-0.002-0.015l-0.001,0.007
				C413.32,152.998,413.32,153.002,413.322,153.004z"/>
			<path fill="#FFB871" d="M652.605,250.432c-1.079-6.292-35.676-6.756-40.947-6.791c-0.739,6.663-2.156,13.085-4.17,19.211
				C622.161,263.171,653.537,255.872,652.605,250.432z"/>
			<path fill="#FFB871" d="M98.42,250.432c-1.151,6.712,46.889,16.255,52.044,10.827l-12.812-17.599
				C128.961,243.782,99.416,244.625,98.42,250.432z"/>
			<path fill="#1E2349" d="M611.669,243.553c0,0-158.935-3.072-182.861-1.265c-0.105,0.008-0.202,0.016-0.306,0.024l18.525,199.176
				l-48.272,13.544l7.381-202.983c-1.53,13.282-9.215,27.688-11.76,35.107c-4.715,13.719-11.464,19.982-11.464,19.982
				c-1.179-5.541-2.623-10.728-4.258-15.576v-0.015c-8.768-26.082-22.752-42.114-27.409-46.948c-0.015-0.03-0.029-0.044-0.059-0.059
				c-0.678-0.648-1.15-1.12-1.356-1.356c-0.022-0.022-0.031-0.032-0.048-0.049l7.783,211.896l-48.272-13.544l18.527-197.236
				l-5.988,0.333l-184.66-1.583l0.48,0.659l12.812,17.599l28.504,39.156c40.9,38.195,133.021,20.843,133.021,20.843
				s-6.18,20.355-11.727,36.961L225.17,583.054c-3.285,9.835,0.669,20.643,9.55,25.995c6.338,3.82,14.435,8.424,23.808,13.152
				c10.822,5.461,23.342,11.093,36.815,15.876c11.832,4.223,30.392,8.588,53.42,11.957c2.886,0.215,5.773,0.371,8.656,0.415
				c2.726,0.044,5.379,0.074,7.987,0.074c1.445,0.006,2.872,0.008,4.283,0.006c16.922-0.029,31.337-0.683,43.302-1.594
				c2.991-0.228,5.829-0.472,8.515-0.726c6.404-0.613,11.941-1.288,16.619-1.948c11.064-1.561,38.987-11.119,38.817-22.292
				l-24.358-302.612l54.899,5.922c45.178,4.873,86.36-22.912,100.006-64.426c2.014-6.126,3.432-12.548,4.17-19.211
				C611.661,243.612,611.665,243.583,611.669,243.553z"/>
			<path fill="#1E2349" d="M382.241,258.825c-0.695-0.003-1.414-0.029-2.158-0.08C380.827,258.797,381.546,258.822,382.241,258.825z
				"/>
			<path fill="#1E2349" d="M380.083,258.745c-0.825-0.059-1.68-0.133-2.564-0.251c-10.689-1.431-19.9-8.266-24.563-12.342
				c4.663,4.075,13.874,10.911,24.563,12.342C378.403,258.613,379.257,258.686,380.083,258.745z"/>
			<path fill="#272F59" d="M312.917,724.629c2.755,1.621,5.953,2.52,9.269,2.52c5.865,0,11.391-2.814,14.854-7.559l11.582-15.9
				c2.299-3.139,3.536-6.926,3.536-10.816v-42.35c-1.146-0.16-2.27-0.324-3.395-0.489c-23.028-3.369-41.588-7.734-53.42-11.957
				c-0.06-0.021-0.125-0.043-0.184-0.064l0.901,57.012c0,3.154,0.81,6.263,2.358,9.018l7.751,13.748
				C307.803,720.68,310.146,723.022,312.917,724.629z"/>
			<path fill="#FFFFFF" d="M405.961,246.26c-2.002,1.957-11.238,10.684-18.113,12.043l4.804,8.178l-4.141,8.679l5.865,11.995
				c2.545-7.418,10.229-21.824,11.76-35.107l0.225-6.184C406.361,245.865,406.217,246.011,405.961,246.26z"/>
			<path fill="#272F59" d="M392.652,266.481l-4.804-8.178h-0.015l0,0c-1.647,0.331-3.509,0.53-5.593,0.522
				c-0.695-0.003-1.414-0.029-2.158-0.08l-3.478,10.153l5.172,6.72l-3.124,15.929v0.015c1.636,4.848,3.08,10.035,4.258,15.576
				c0,0,6.749-6.263,11.464-19.982l-5.865-11.995L392.652,266.481z"/>
			<path fill="#FFFFFF" d="M376.605,268.898l3.478-10.153c-0.825-0.059-1.68-0.133-2.564-0.251
				c-10.689-1.431-19.9-8.266-24.563-12.342c-0.666-0.582-1.239-1.108-1.711-1.554c4.656,4.833,18.641,20.866,27.409,46.948
				l3.124-15.929L376.605,268.898z"/>
			<path fill="#272F59" d="M369.689,650.529c-1.41,0.002-2.838,0.001-4.283-0.006v42.35c0,3.89,1.238,7.677,3.536,10.816
				l11.582,15.9c3.463,4.745,8.989,7.559,14.854,7.559c3.315,0,6.513-0.899,9.269-2.52c2.771-1.606,5.114-3.949,6.749-6.837
				l7.751-13.748c1.547-2.756,2.358-5.865,2.358-9.018v-46.815c-2.686,0.254-5.523,0.498-8.515,0.726
				C401.026,649.846,386.611,650.5,369.689,650.529z"/>
			<path fill="#1E2349" d="M404.647,724.629c-2.755,1.621-5.953,2.52-9.269,2.52c-5.865,0-11.391-2.814-14.854-7.559v21.956h29.84
				l1.031-23.754C409.76,720.68,407.417,723.022,404.647,724.629z"/>
			<polygon fill="#FFB871" points="393.828,815.709 393.875,815.975 404.515,811.392 410.365,741.545 380.525,741.545 			"/>
			<path fill="#1E2349" d="M393.875,815.975l-0.206,18.876l80.781-0.044l2.49-10.624c0,0-2.266-1.402-8.481-3.989
				c-5.14-2.139-12.978-5.087-24.498-8.729c-25.448-8.06-39.447-0.073-39.447-0.073L393.875,815.975z"/>
			<path fill="#1E2349" d="M337.039,719.589c-3.463,4.745-8.989,7.559-14.854,7.559c-3.316,0-6.513-0.899-9.269-2.52
				c-2.771-1.606-5.113-3.949-6.749-6.837l1.031,23.754h29.84V719.589z"/>
			<polygon fill="#FFB871" points="337.039,741.545 307.199,741.545 313.049,811.392 323.688,815.975 			"/>
			<path fill="#1E2349" d="M243.114,834.807l80.781,0.044l-0.206-18.808l-0.001-0.068l-10.639-4.583c0,0-13.999-7.987-39.447,0.073
				c-15.704,4.965-24.578,8.642-29.077,10.733c-2.792,1.297-3.902,1.984-3.902,1.984L243.114,834.807z"/>
			<polygon fill="#1E2349" points="415.791,129.969 414.771,139.466 456.5,126.294 383.518,94.608 325.171,119.94 325.171,130.914 
				352.233,139.457 351.245,129.969 			"/>
			<polygon fill="#1E2349" points="322.739,120.996 310.536,126.294 321.679,129.811 321.679,121.456 			"/>
			<polygon fill="#272F59" points="353.644,152.996 413.319,152.996 413.319,152.989 413.327,152.92 414.771,139.466 
				415.791,129.969 351.245,129.969 352.233,139.457 353.643,152.989 353.643,152.989 			"/>
			<polygon fill="#FCA710" points="325.171,119.94 322.739,120.996 321.679,121.456 321.679,129.811 321.679,150.157 
				316.614,161.227 321.679,168.923 318.195,184.315 323.425,184.315 328.655,184.315 325.171,168.923 330.236,161.227 
				325.171,150.157 325.171,130.914 325.171,119.94 			"/>
			<polygon fill="#FCA710" points="357.565,455.032 349.782,243.136 349.776,242.984 349.776,242.984 327.821,244.251 
				327.821,244.251 309.294,441.488 			"/>
			<polygon fill="#FCA710" points="405.35,244.599 406.361,245.865 406.136,252.049 398.755,455.032 447.026,441.488 
				428.502,242.311 428.499,242.287 420.61,242.796 405.35,244.599 405.35,244.599 			"/>
		</g>
		<g>
			<path fill="none" d="M907.99,815.372c-9.476,0-18.798,0.067-27.934,0.193l11.692-126.122c7.293,1.127,14.647,1.81,21.976,1.923
				c2.759,0.045,5.443,0.075,8.083,0.075c5.895,0.026,11.501-0.022,16.824-0.132l11.542,124.505
				C936.556,815.525,922.448,815.372,907.99,815.372z"/>
			<path fill="none" d="M886.214,196.267l-5.126-11.203v-19.475l27.388,8.646l1.427,13.695c-0.001,0.006-0.003,0.012-0.004,0.018
				c-0.011,0.026-0.067,0.155-0.157,0.375c-2.773,2.603-5.211,5.557-7.245,8.792c-8.584,3.406-15.399,10.303-18.691,18.944
				l-2.717-12.004L886.214,196.267z"/>
			<path fill="#F4DBC9" d="M868.406,815.762c0.135-0.003,0.271-0.005,0.406-0.008l0.01,0.222
				C868.821,815.976,868.679,815.895,868.406,815.762z"/>
			<path fill="#D8D5D4" d="M798.046,839.672l81.752,0.045l-0.209-19.103l0.468-5.048c9.136-0.126,18.458-0.193,27.934-0.193
				c14.458,0,28.566,0.153,42.183,0.442l0.445,4.799l-0.209,19.103l81.751-0.045l2.52-10.752c0,0-6.441-3.991-27.445-10.95
				c63.713,3.582,106.89,10.503,106.89,18.456c0,11.628-92.29,21.054-206.136,21.054s-206.136-9.426-206.136-21.054
				c0-8.634,50.888-16.052,123.693-19.301c-23.059,7.48-30.022,11.795-30.022,11.795L798.046,839.672z"/>
			<path fill="#FF2C2C" d="M962.231,280.641l1.023,1.282C963.254,281.922,962.852,281.449,962.231,280.641z"/>
			<path fill="#FF2C2C" d="M962.849,282.323l0.405-0.401C963.254,281.922,963.108,282.07,962.849,282.323z"/>
			<path fill="#FF2C2C" d="M985.661,278.325l-0.002-0.024l-7.984,0.515l-15.444,1.824c-2.733-3.552-9.742-13.606-5.84-18.688
				c12.534-16.323,12.629-37.734,12.629-37.734s2.517,0.612,7.55,0c5.033-0.612,8.494-11.342,5.663-19.521
				c-2.364-6.83-8.454-4.448-10.4-3.476c-0.178,0.142-0.375,0.26-0.61,0.33c-15.224,4.521-17.312-8.265-17.312-8.265
				c-9.531,23.908-45.92,9.838-45.92,9.838s-15.1-2.202-14.471,12.583c0.629,14.786,14.156,11.011,14.156,11.011
				s-0.199,14.881,9.682,33.678c4.77,9.073-10.108,17.884-11.368,18.609l-21.294-2.004c-2.528-5.04-3.959-10.724-3.959-16.746
				c0-6.38,1.601-12.385,4.417-17.641c-2.24-4.454-3.508-9.481-3.508-14.807c0-2.822,0.356-5.561,1.022-8.176h1.947l-0.809-3.573
				c3.292-8.641,10.107-15.538,18.691-18.944c2.033-3.236,4.471-6.189,7.245-8.792c0.09-0.219,0.146-0.349,0.157-0.375
				c0.001-0.003,0.005-0.012,0.005-0.012h60.392c0.001,0.002,0.002,0.005,0.003,0.007c0.032,0.078,0.065,0.168,0.097,0.249
				c2.42,2.253,4.592,4.768,6.462,7.508c14.526,3.465,25.331,16.521,25.331,32.108c0,2.794-0.35,5.505-1.004,8.096
				c5.62,6.545,9.023,15.048,9.023,24.351c0,2.04-0.169,4.041-0.484,5.992c-11.077,7.225-19.531,11.735-23.754,12.054
				C985.865,278.309,985.766,278.317,985.661,278.325z"/>
			<path fill="#FFB871" d="M950.619,820.614l-0.445-4.799L938.631,691.31c10.435-0.214,19.774-0.661,28.037-1.236l-5.282,125.902
				L950.619,820.614z"/>
			<path fill="#1E2349" d="M1032.161,839.672l-81.751,0.045l0.209-19.103l10.767-4.638c0,0,14.167-8.083,39.921,0.074
				c2.099,0.664,4.065,1.302,5.929,1.92c21.004,6.959,27.445,10.95,27.445,10.95L1032.161,839.672z"/>
			<path fill="#FFB871" d="M891.749,689.443l-11.692,126.122l-0.468,5.048l-10.767-4.638l-0.01-0.222l-5.575-132.867
				c2.394,0.718,4.807,1.407,7.24,2.053C877.453,686.796,884.571,688.334,891.749,689.443z"/>
			<path fill="#1E2349" d="M879.589,820.614l0.209,19.103l-81.752-0.045l-2.52-10.752c0,0,6.963-4.315,30.022-11.795
				c1.086-0.352,2.194-0.709,3.353-1.075c23.218-7.354,37.013-1.511,39.506-0.289c0.272,0.134,0.415,0.214,0.415,0.214
				L879.589,820.614z"/>
			<path fill="#FFB871" d="M970.296,187.93c0.001,0.005,0.001,0.009,0.002,0.014c-0.001-0.002-0.002-0.005-0.003-0.007
				L970.296,187.93z"/>
			<path fill="#FFB871" d="M909.904,187.937c0,0-0.004,0.009-0.005,0.012c0.001-0.006,0.003-0.012,0.004-0.018L909.904,187.937z"/>
			<path fill="#FFB871" d="M905.989,279.006c1.26-0.725,16.138-9.536,11.368-18.609c-9.882-18.797-9.682-33.678-9.682-33.678
				s-13.527,3.775-14.156-11.011c-0.629-14.786,14.471-12.583,14.471-12.583s36.389,14.07,45.92-9.838
				c0,0,2.088,12.786,17.312,8.265c0.235-0.07,0.432-0.188,0.61-0.33c1.946-0.972,8.036-3.354,10.4,3.476
				c2.831,8.179-0.629,18.909-5.663,19.521c-5.033,0.612-7.55,0-7.55,0s-0.095,21.411-12.629,37.734
				c-3.902,5.082,3.107,15.135,5.84,18.688l0,0v0c0.622,0.808,1.023,1.282,1.023,1.282l-0.405,0.401
				c-2.029,1.983-11.374,10.811-18.33,12.186h-0.015l0,0c-1.667,0.335-3.551,0.537-5.66,0.528c-0.703-0.003-1.431-0.029-2.184-0.081
				c-0.835-0.06-1.7-0.134-2.595-0.254c-0.773-0.103-1.538-0.235-2.294-0.391c-0.756-0.156-1.504-0.337-2.241-0.54
				c-2.213-0.609-4.336-1.415-6.341-2.337c-7.349-3.379-13.089-8.313-15.713-10.794c-0.015-0.03-0.03-0.045-0.06-0.06
				c-0.686-0.656-1.163-1.133-1.372-1.372c-0.022-0.023-0.032-0.032-0.049-0.049L905.989,279.006L905.989,279.006z"/>
			<path fill="#FFB871" d="M687.524,166.395c-10.871-1.583-44.977-26.214-41.459-31.498c3.815-5.731,40.098,10.267,41.236,10.77
				C687.291,146.334,687.179,154.502,687.524,166.395z"/>
			<path fill="#FFB871" d="M1175.415,136.643c9.852-6.571,28.612-18.272,32.236-14.67c4.35,4.324-22.107,33.362-33.223,38.677
				C1174.329,152.723,1174.528,144.71,1175.415,136.643z"/>
			<path fill="#1E2349" d="M687.524,166.395c-0.345-11.894-0.233-20.062-0.223-20.728c0-0.029,0.001-0.056,0.001-0.056
				l192.709,130.95l-14.99,203.334l48.851,13.707l-7.877-214.442c0.017,0.017,0.027,0.027,0.049,0.049
				c0.209,0.238,0.686,0.716,1.372,1.372c0.03,0.015,0.045,0.03,0.06,0.06c4.712,4.891,18.865,21.116,27.738,47.512v0.015
				c1.655,4.906,3.117,10.156,4.31,15.763c0,0,6.83-6.338,11.602-20.222c2.575-7.507,10.352-22.087,11.901-35.529l-7.47,205.422
				l48.852-13.707l-18.747-201.569c0.105-0.008,0.204-0.016,0.31-0.024c4.222-0.319,12.677-4.829,23.754-12.054
				c52.451-34.209,163.776-129.354,163.776-129.354l1.915-0.252c0,0,0,0,0,0c-0.887,8.067-1.086,16.08-0.987,24.007
				c0.543,43.651,10.17,84.689-35.581,117.651l-128.816,80.02l24.651,306.248c0.171,11.307-28.087,20.979-39.283,22.56
				c-4.734,0.668-10.337,1.351-16.818,1.971c-3.685,0.349-7.657,0.678-11.912,0.974c-8.263,0.575-17.602,1.022-28.037,1.236
				c-5.323,0.109-10.929,0.158-16.824,0.132c-2.64,0-5.324-0.03-8.083-0.075c-7.328-0.113-14.683-0.796-21.976-1.923
				c-7.177-1.109-14.296-2.648-21.271-4.504c-2.433-0.646-4.846-1.335-7.24-2.053c-18.324-5.496-35.4-12.946-49.592-20.108
				c-9.485-4.784-17.68-9.444-24.094-13.31c-8.987-5.416-12.989-16.354-9.665-26.308l66.901-227.536
				c5.613-16.806,11.867-37.405,11.867-37.405s-96.549-39.404-149.982-90.709C692.305,251.795,688.409,196.876,687.524,166.395z"/>
			<path fill="#1E2349" d="M936.66,294.957c-0.835-0.06-1.7-0.134-2.595-0.254c-0.773-0.103-1.538-0.235-2.294-0.391
				c0.756,0.156,1.521,0.288,2.294,0.391C934.96,294.822,935.825,294.897,936.66,294.957c0.753,0.052,1.481,0.078,2.184,0.081
				C938.141,295.035,937.413,295.009,936.66,294.957z"/>
			<path fill="#1E2349" d="M929.53,293.772c-2.213-0.609-4.336-1.415-6.341-2.337C925.193,292.357,927.317,293.163,929.53,293.772z"
				/>
			<path fill="#FFFFFF" d="M949.381,302.786l-4.862-8.276c6.956-1.375,16.301-10.203,18.33-12.186
				c0.259-0.253,0.405-0.401,0.405-0.401l-0.228,6.258c-1.549,13.442-9.326,28.021-11.901,35.529l-5.935-12.139L949.381,302.786z"/>
			<path fill="#272F59" d="M933.141,305.232l3.52-10.275c0.753,0.052,1.481,0.078,2.184,0.081c2.109,0.008,3.993-0.193,5.66-0.528
				l0,0h0.015l4.862,8.276l-4.191,8.784l5.935,12.139c-4.772,13.884-11.602,20.222-11.602,20.222
				c-1.193-5.607-2.654-10.857-4.31-15.763v-0.015l3.161-16.121L933.141,305.232z"/>
			<path fill="#FFFFFF" d="M929.53,293.772c0.738,0.203,1.485,0.384,2.241,0.54c0.756,0.156,1.521,0.288,2.294,0.391
				c0.895,0.119,1.76,0.194,2.595,0.254l-3.52,10.275l5.234,6.8l-3.161,16.121c-8.873-26.396-23.025-42.62-27.738-47.512
				c2.625,2.481,8.365,7.415,15.713,10.794C925.193,292.357,927.317,293.163,929.53,293.772z"/>
			<polygon fill="#1E2349" points="907.476,164.633 908.476,174.235 881.089,165.589 881.089,154.484 940.137,128.847 
				1013.996,160.914 971.766,174.245 972.798,164.633 			"/>
			<polygon fill="#1E2349" points="877.555,164.474 866.278,160.914 878.623,155.554 877.555,156.018 			"/>
			<polygon fill="#272F59" points="909.904,187.937 909.903,187.93 908.476,174.235 907.476,164.633 972.798,164.633 
				971.766,174.245 970.296,187.93 970.296,187.937 			"/>
			<polygon fill="#FCA710" points="881.089,185.064 886.214,196.267 881.089,204.055 883.806,216.059 884.614,219.632 
				882.668,219.632 879.322,219.632 874.029,219.632 877.555,204.055 872.429,196.267 877.555,185.064 877.555,164.474 
				877.555,156.018 878.623,155.554 881.089,154.484 881.089,154.484 881.089,165.589 			"/>
			<polygon fill="#FCA710" points="905.99,279.006 905.995,279.16 913.872,493.601 865.021,479.895 880.011,276.561 
				884.696,277.002 905.989,279.006 			"/>
			<polygon fill="#FCA710" points="962.231,280.641 962.231,280.64 962.231,280.64 977.675,278.816 985.659,278.301 
				985.661,278.325 1004.408,479.895 955.557,493.601 963.026,288.18 963.254,281.922 			"/>
		</g>
		<g>
			<path fill="none" d="M1365.522,815.372c8.87,0,17.567,0.096,26.045,0.278l-10.889-117.464
				c-5.137,0.105-10.547,0.152-16.235,0.127c-2.547,0-5.137-0.029-7.799-0.072c-7.072-0.109-14.168-0.768-21.206-1.856
				l-11.096,119.688C1337.484,815.617,1351.285,815.372,1365.522,815.372z"/>
			<path fill="none" d="M1404.172,303.408c0.174-0.171,0.266-0.264,0.266-0.264l-0.389,0.385
				C1404.09,303.488,1404.136,303.443,1404.172,303.408z"/>
			<path fill="#F4DBC9" d="M1409.364,816.168c-2.188-0.081-4.398-0.156-6.623-0.225l-0.107,2.541
				C1402.635,818.484,1404.938,817.173,1409.364,816.168z"/>
			<path fill="#D8D5D4" d="M1473.362,830.975l-2.432,10.375l-78.887,0.043l0.201-18.434l-0.678-7.309
				c-8.478-0.182-17.175-0.278-26.045-0.278c-14.237,0-28.038,0.245-41.18,0.701l-0.638,6.886l0.201,18.434l-78.887-0.043
				l-2.432-10.375c0,0,6.913-4.288,29.983-11.71c-40.839,3.817-67.474,10.081-67.474,17.161c0,11.628,71.826,21.054,160.427,21.054
				c88.602,0,160.427-9.426,160.427-21.054c0-8.202-35.744-15.308-87.903-18.784c1.019,0.281,2.051,0.578,3.111,0.914
				C1466.009,826.413,1473.362,830.975,1473.362,830.975z"/>
			<path fill="#F4DBC9" d="M1313.231,816.517c-1.501,0.068-2.99,0.139-4.47,0.212c2.999,0.872,4.553,1.754,4.553,1.754
				L1313.231,816.517z"/>
			<path fill="#FFB871" d="M1391.567,815.65l0.678,7.309l10.39-4.475l0.107-2.541l4.991-118.95
				c-7.974,0.554-16.986,0.986-27.054,1.193L1391.567,815.65z"/>
			<path fill="#1E2349" d="M1392.245,822.959l-0.201,18.434l78.887-0.043l2.432-10.375c0,0-7.353-4.562-32.205-12.419
				c-1.06-0.336-2.092-0.633-3.111-0.914c-13.076-3.599-22.775-2.815-28.682-1.474c-4.426,1.005-6.729,2.316-6.729,2.316
				L1392.245,822.959z"/>
			<path fill="#FFB871" d="M1323.704,822.959l0.638-6.886l11.096-119.688c-6.926-1.07-13.795-2.555-20.526-4.346
				c-2.348-0.624-4.677-1.288-6.987-1.981l5.306,126.459l0.083,1.967L1323.704,822.959z"/>
			<path fill="#1E2349" d="M1245.018,841.35l78.887,0.043l-0.201-18.434l-10.39-4.475c0,0-1.554-0.883-4.553-1.754
				c-5.916-1.72-17.478-3.397-33.97,1.826c-0.757,0.239-1.497,0.476-2.222,0.709c-23.07,7.422-29.983,11.71-29.983,11.71
				L1245.018,841.35z"/>
			<path fill="#7F2C0B" d="M1350.807,249.874c0,0-7.147,1.988-11.11-2.76c1.68,11.739,8.113,21.938,17.289,28.595
				C1350.66,260.84,1350.807,249.874,1350.807,249.874z"/>
			<path fill="#7F2C0B" d="M1351.11,227.107l39.678-14.655l21.338,13.138c0,0,7.893-4.857,10.625,3.036s-0.607,18.247-5.464,18.837
				s-7.286,0-7.286,0s-0.082,17.197-9.281,32.174c14.37-6.925,24.286-21.628,24.286-38.647c0-12.299-5.187-23.38-13.482-31.199
				l-0.006-0.01l0,0h-58.562l-0.173,1.017l-0.1-0.958c-5.583,5.279-9.744,12.039-11.859,19.655
				C1344.968,226.216,1351.11,227.107,1351.11,227.107z"/>
			<path fill="#FFB871" d="M1349.185,300.478c0.017,0.017,0.026,0.026,0.047,0.047c0.201,0.23,0.662,0.691,1.324,1.324
				c0.029,0.014,0.043,0.029,0.057,0.058c0.23,0.218,0.485,0.455,0.764,0.709c1.053,0.958,2.454,2.157,4.125,3.434
				c0.985,0.752,2.056,1.53,3.223,2.307c0.524,0.349,1.066,0.698,1.624,1.042c1.116,0.689,2.296,1.364,3.532,2.001
				c3.707,1.91,7.916,3.478,12.389,4.077c0.828,0.11,1.628,0.18,2.403,0.236c0.033,0.002,0.068,0.006,0.101,0.008
				c0.727,0.05,1.429,0.076,2.108,0.078s1.333-0.017,1.963-0.057c1.261-0.079,2.427-0.237,3.499-0.453h0.014
				c0.473-0.094,0.958-0.223,1.45-0.383s0.994-0.351,1.5-0.569c0.253-0.109,0.507-0.224,0.762-0.345
				c0.51-0.242,1.023-0.508,1.536-0.792c0.77-0.427,1.54-0.896,2.299-1.391c0.506-0.33,1.007-0.672,1.499-1.021
				c0.493-0.349,0.977-0.704,1.45-1.061c0.473-0.357,0.935-0.716,1.381-1.073c0.223-0.178,0.443-0.355,0.658-0.531
				c0.431-0.352,0.846-0.699,1.24-1.035c0.395-0.337,0.77-0.663,1.123-0.974c0.352-0.311,0.681-0.608,0.984-0.884
				c0.606-0.553,1.107-1.027,1.476-1.382c0.128-0.123,0.233-0.226,0.329-0.319l0.389-0.385c0,0-11.244-13.25-6.622-19.269
				c1.06-1.38,2.022-2.799,2.906-4.238c9.199-14.977,9.281-32.174,9.281-32.174s2.429,0.591,7.286,0s8.196-10.945,5.464-18.837
				s-10.625-3.036-10.625-3.036l-21.338-13.138l-39.678,14.655c0,0-6.142-0.891-10.285,2.388c-2.237,1.77-3.892,4.753-3.679,9.755
				c0.158,3.707,1.16,6.198,2.551,7.865c3.962,4.748,11.11,2.76,11.11,2.76s-0.146,10.966,6.179,25.835
				c0.913,2.147,1.96,4.374,3.164,6.663c4.603,8.755-9.753,17.257-10.97,17.957h0L1349.185,300.478z"/>
			<path fill="#FFB871" d="M1578.325,409.266c-1.028,6.078-2.635,11.931-4.762,17.506c12.309,6.047,26.206,10.694,27.837,7.414
				C1603.582,429.798,1587.376,416.326,1578.325,409.266z"/>
			<path fill="#FFB871" d="M1130.569,411.182c1.235,4.586,25.309,0.172,39.821-5.247c-2.82-6.694-4.874-12.863-6.261-17.567
				C1159.681,390.456,1128.94,405.135,1130.569,411.182z"/>
			<path fill="#1E2349" d="M1579.083,403.868c0,0-129.36-105.982-152.725-104.218c-0.102,0.008-0.198,0.016-0.299,0.023
				l18.09,194.506l-47.14,13.226l7.208-198.223c-1.494,12.971-8.999,27.039-11.484,34.283
				c-4.605,13.397-11.196,19.513-11.196,19.513c-1.151-5.411-2.561-10.476-4.159-15.21v-0.014
				c-8.562-25.471-22.219-41.127-26.766-45.847c0.23,0.218,0.485,0.455,0.764,0.709c-0.279-0.254-0.534-0.491-0.764-0.709
				c-0.014-0.029-0.029-0.043-0.057-0.058c-0.662-0.633-1.123-1.094-1.324-1.324c-0.022-0.022-0.031-0.031-0.047-0.047
				l7.601,206.927l-47.14-13.226l18.092-192.612l-5.848,0.325l-160.109,77.45c0,0,0.72,3.508,2.346,9.025
				c1.387,4.704,3.44,10.873,6.261,17.567c4.456,10.576,10.837,22.469,19.615,32.022c21.231,23.104,56.452,36.504,56.452,36.504
				l57.047-97.693c0,0-6.035,19.878-11.452,36.095l-64.557,219.564c-3.208,9.604,0.654,20.159,9.326,25.386
				c6.189,3.73,14.097,8.227,23.25,12.843c13.695,6.911,30.172,14.099,47.854,19.403c2.31,0.693,4.639,1.357,6.987,1.981
				c6.731,1.792,13.6,3.276,20.526,4.346c7.038,1.087,14.135,1.747,21.206,1.856c2.662,0.043,5.252,0.072,7.799,0.072
				c5.688,0.025,11.098-0.022,16.235-0.127c10.069-0.206,19.081-0.638,27.054-1.193c4.105-0.285,7.938-0.603,11.494-0.94
				c6.254-0.599,11.66-1.258,16.229-1.902c10.805-1.525,38.073-10.859,37.907-21.769l-23.787-295.517l27.764,108.765
				c42.631,4.598,81.62-20.58,96.224-58.859c2.127-5.574,3.733-11.427,4.762-17.506
				C1578.626,407.485,1578.883,405.686,1579.083,403.868z"/>
			<path fill="#1E2349" d="M1351.378,302.616c1.053,0.958,2.454,2.157,4.125,3.434
				C1353.832,304.773,1352.431,303.574,1351.378,302.616z"/>
			<path fill="#1E2349" d="M1380.883,315.8c-0.678-0.003-1.381-0.028-2.108-0.078c-0.033-0.002-0.067-0.006-0.101-0.008
				c0.033,0.002,0.068,0.006,0.101,0.008C1379.502,315.772,1380.205,315.797,1380.883,315.8z"/>
			<path fill="#FFFFFF" d="M1404.172,303.408c-0.036,0.035-0.081,0.079-0.124,0.121c-0.095,0.093-0.201,0.196-0.329,0.319
				c-0.369,0.356-0.87,0.829-1.476,1.382c-0.303,0.276-0.632,0.573-0.984,0.884c-0.352,0.311-0.728,0.638-1.123,0.974
				c-0.395,0.337-0.81,0.683-1.24,1.035c-0.216,0.176-0.435,0.353-0.658,0.531c-0.447,0.356-0.908,0.715-1.381,1.073
				c-0.473,0.357-0.957,0.712-1.45,1.061c-0.493,0.349-0.994,0.69-1.499,1.021c-0.759,0.495-1.529,0.965-2.299,1.391
				c-0.513,0.285-1.026,0.55-1.536,0.792c-0.255,0.121-0.509,0.236-0.762,0.345c-0.506,0.217-1.007,0.408-1.5,0.569
				s-0.977,0.289-1.45,0.383l4.691,7.986l-4.044,8.476l5.727,11.714c2.485-7.244,9.99-21.312,11.484-34.283l0.219-6.039
				C1404.437,303.144,1404.345,303.237,1404.172,303.408z"/>
			<path fill="#272F59" d="M1391.05,323.276l-4.691-7.986h-0.014c-1.072,0.216-2.238,0.374-3.499,0.453
				c-0.63,0.04-1.285,0.059-1.963,0.057s-1.381-0.028-2.108-0.078l-3.396,9.915l5.051,6.562l-3.051,15.556v0.014
				c1.597,4.734,3.008,9.8,4.159,15.21c0,0,6.591-6.116,11.196-19.513l-5.727-11.714L1391.05,323.276z"/>
			<path fill="#FFFFFF" d="M1375.38,325.636l3.396-9.915c-0.033-0.002-0.067-0.006-0.101-0.008
				c-0.775-0.056-1.575-0.126-2.403-0.236c-4.473-0.599-8.682-2.167-12.389-4.077c-1.236-0.637-2.416-1.311-3.532-2.001
				c-0.558-0.345-1.1-0.693-1.624-1.042c-1.167-0.777-2.239-1.554-3.223-2.307c-1.671-1.277-3.073-2.476-4.125-3.434
				c-0.279-0.254-0.534-0.491-0.764-0.709c4.547,4.72,18.204,20.376,26.766,45.847l3.051-15.556L1375.38,325.636z"/>
			<polygon fill="#1E2349" points="1322.957,181.124 1310.859,186.376 1321.741,189.811 1321.741,181.652 			"/>
			<polygon fill="#1E2349" points="1413.647,189.965 1412.651,199.24 1453.401,186.376 1382.13,155.433 1325.151,180.171 
				1325.151,190.887 1351.579,199.23 1350.614,189.965 			"/>
			<polygon fill="#272F59" points="1352.957,209.78 1411.519,209.78 1411.519,209.78 1412.651,199.24 1413.647,189.965 
				1350.614,189.965 1351.579,199.23 1352.685,209.839 1352.784,210.797 			"/>
			<polygon fill="#FCA710" points="1325.151,180.171 1322.957,181.124 1321.741,181.652 1321.741,189.811 1321.741,209.68 
				1316.795,220.49 1321.741,228.005 1318.339,243.036 1323.446,243.036 1328.553,243.036 1325.151,228.005 1330.098,220.49 
				1325.151,209.68 1325.151,190.887 1325.151,180.171 			"/>
			<polygon fill="#FCA710" points="1356.786,507.406 1349.185,300.478 1349.18,300.33 1349.18,300.33 1327.739,301.568 
				1327.739,301.568 1309.647,494.179 			"/>
			<polygon fill="#FCA710" points="1397.01,507.406 1444.15,494.179 1426.059,299.673 1426.057,299.65 1418.353,300.147 
				1403.45,301.907 1404.437,303.144 1404.218,309.182 			"/>
		</g>
	</g>
</g>
<g id="vexels">
	<rect x="425.131" y="880.163" fill="none" width="964.69" height="156.81"/>
	<text transform="matrix(1 0 0 1 644.1995 924.1423)"><tspan x="0" y="0" font-family="'CenturySchoolbook-Bold'" font-size="60px">Congratulations!</tspan><tspan x="-145.034" y="72" font-family="'CenturySchoolbook-Bold'" font-size="60px">Your Last Project is Done!</tspan></text>
</g>
</svg>
