<?xml version="1.0" encoding="utf-8"?>
<!-- Designed by Vexels.com - 2017 All Rights Reserved - https://vexels.com/terms-and-conditions/  -->

<svg version="1.1" id="Layer_1" xmlns="http://www.w3.org/2000/svg" xmlns:xlink="http://www.w3.org/1999/xlink" x="0px" y="0px"
	 width="1200px" height="1200px" viewBox="0 0 1200 1200" enable-background="new 0 0 1200 1200" xml:space="preserve">
<g>
	<g>
		<radialGradient id="SVGID_1_" cx="127.1936" cy="146.4909" r="1255.5012" gradientUnits="userSpaceOnUse">
			<stop  offset="0" style="stop-color:#EAF2D8"/>
			<stop  offset="1" style="stop-color:#B7D334"/>
		</radialGradient>
		<path fill="url(#SVGID_1_)" d="M1150,1083.204c0,36.891-29.905,66.796-66.796,66.796H116.796C79.905,1150,50,1120.095,50,1083.204
			V116.791C50,79.905,79.905,50,116.796,50h966.409c36.891,0,66.796,29.905,66.796,66.791V1083.204z"/>
		<linearGradient id="SVGID_2_" gradientUnits="userSpaceOnUse" x1="600" y1="136.1737" x2="600" y2="1097.5978">
			<stop  offset="0" style="stop-color:#EAF2D8"/>
			<stop  offset="1" style="stop-color:#9CB63B"/>
		</linearGradient>
		<path fill="url(#SVGID_2_)" d="M1077.682,56.282H122.314c-36.467,0-66.027,29.564-66.027,66.032v955.373
			c0,36.467,29.56,66.032,66.027,66.032h955.368c36.468,0,66.032-29.565,66.032-66.032V122.314
			C1143.713,85.846,1114.149,56.282,1077.682,56.282z M1139.599,1074.069c0,36.191-29.339,65.535-65.53,65.535H125.926
			c-36.191,0-65.526-29.343-65.526-65.535V125.931c0-36.191,29.335-65.535,65.526-65.535h948.142
			c36.192,0,65.53,29.344,65.53,65.535V1074.069z"/>
		<path fill="#FFFFFF" d="M1038.278,268.129c0,26.03-21.101,47.126-47.126,47.126H199.432c-26.03,0-47.126-21.096-47.126-47.126
			v-61.264c0-26.03,21.096-47.126,47.126-47.126h791.719c26.025,0,47.126,21.096,47.126,47.126V268.129z"/>
		<path fill="#627935" d="M1038.278,258.703c0,26.03-21.101,47.126-47.126,47.126H199.432c-26.03,0-47.126-21.096-47.126-47.126
			v-61.264c0-26.03,21.096-47.126,47.126-47.126h791.719c26.025,0,47.126,21.096,47.126,47.126V258.703z"/>
		<path fill="#9DB83B" d="M1038.278,263.416c0,26.03-21.101,47.126-47.126,47.126H199.432c-26.03,0-47.126-21.096-47.126-47.126
			v-61.264c0-26.03,21.096-47.126,47.126-47.126h791.719c26.025,0,47.126,21.096,47.126,47.126V263.416z"/>
		<path fill="#89A73D" d="M1047.482,1000.025c0,28.634-22.394,51.852-50.016,51.852h-365.08c-27.622,0-50.016-23.218-50.016-51.852
			v-67.408c0-28.635,22.394-51.848,50.016-51.848h365.08c27.622,0,50.016,23.213,50.016,51.848V1000.025z"/>
		
			<radialGradient id="SVGID_3_" cx="809.3457" cy="976.377" r="138.814" gradientTransform="matrix(4.489659e-011 1 -2.1561 9.680289e-011 2914.5415 167.0313)" gradientUnits="userSpaceOnUse">
			<stop  offset="0" style="stop-color:#FFFFFF"/>
			<stop  offset="0.0657" style="stop-color:#F9FBF0"/>
			<stop  offset="0.2299" style="stop-color:#ECF2D1"/>
			<stop  offset="0.401" style="stop-color:#E1ECB8"/>
			<stop  offset="0.5801" style="stop-color:#DAE7A7"/>
			<stop  offset="0.7721" style="stop-color:#D5E49C"/>
			<stop  offset="1" style="stop-color:#D4E399"/>
		</radialGradient>
		<path fill="url(#SVGID_3_)" d="M1043.52,998.013c0,27.157-22.012,49.17-49.165,49.17H635.497
			c-27.153,0-49.165-22.012-49.165-49.17v-63.92c0-27.157,22.012-49.17,49.165-49.17h358.858c27.153,0,49.165,22.012,49.165,49.17
			V998.013z"/>
		<path fill="#EEF4D8" d="M590.529,998.013v-63.92c0-27.157,24.249-49.17,50.007-49.17h-5.338c-26.573,0-48.116,22.012-48.116,49.17
			v63.92c0,27.157,21.543,49.17,48.116,49.17h5.338C614.778,1047.183,590.529,1025.171,590.529,998.013z"/>
		<path fill="#EEF4D8" d="M1038.692,998.013v-63.92c0-27.157-24.244-49.17-50.007-49.17h5.343c26.577,0,48.115,22.012,48.115,49.17
			v63.92c0,27.157-21.538,49.17-48.115,49.17h-5.343C1014.448,1047.183,1038.692,1025.171,1038.692,998.013z"/>
		<path fill="#FFFFFF" d="M1038.278,536.748c0,26.03-21.101,47.126-47.126,47.126H199.432c-26.03,0-47.126-21.096-47.126-47.126
			v-61.264c0-26.03,21.096-47.126,47.126-47.126h791.719c26.025,0,47.126,21.096,47.126,47.126V536.748z"/>
		<path fill="#627935" d="M1038.278,527.323c0,26.03-21.101,47.126-47.126,47.126H199.432c-26.03,0-47.126-21.096-47.126-47.126
			v-61.264c0-26.03,21.096-47.126,47.126-47.126h791.719c26.025,0,47.126,21.096,47.126,47.126V527.323z"/>
		<path fill="#9DB83B" d="M1038.278,532.035c0,26.03-21.101,47.126-47.126,47.126H199.432c-26.03,0-47.126-21.096-47.126-47.126
			v-61.264c0-26.03,21.096-47.126,47.126-47.126h791.719c26.025,0,47.126,21.096,47.126,47.126V532.035z"/>
		<path fill="#627935" d="M232.761,725.657c0,10.263-8.321,18.584-18.584,18.584h-28.833c-10.263,0-18.583-8.321-18.583-18.584
			V696.83c0-10.263,8.321-18.584,18.583-18.584h28.833c10.995,0,18.584,8.321,18.584,18.584V725.657z"/>
		<path fill="#FFFFFF" d="M232.761,730.416c0,10.263-8.321,18.584-18.584,18.584h-28.833c-10.263,0-18.583-8.321-18.583-18.584
			v-28.833c0-10.263,8.321-18.583,18.583-18.583h28.833c10.995,0,18.584,8.321,18.584,18.583V730.416z"/>
		<path fill="#9DB83B" d="M232.761,728.037c0,10.263-8.321,18.584-18.584,18.584h-28.833c-10.263,0-18.583-8.321-18.583-18.584
			v-28.832c0-10.263,8.321-18.584,18.583-18.584h28.833c10.995,0,18.584,8.321,18.584,18.584V728.037z"/>
		<polygon fill="#F4F5F5" points="177.738,712.661 200.624,735.257 219.148,693.069 210.855,693.433 197.886,722.997 
			186.786,712.624 		"/>
	</g>
	<g>
		<circle fill="#B7D334" cx="947.013" cy="201.08" r="20.427"/>
		<path fill="#B7D334" d="M906.403,261.63c0,0,1.694-40.863,40.863-40.863c39.171,0,40.357,40.354,40.357,40.354L906.403,261.63z"/>
	</g>
	<path fill="#79913A" d="M951.316,224.938c9.211-1.977,16.124-10.15,16.124-19.953c0-11.282-9.145-20.427-20.427-20.427
		c-11.282,0-20.427,9.144-20.427,20.427c0,9.839,6.959,18.043,16.22,19.985c-34.746,3.033-36.403,40.566-36.403,40.566l81.219-0.509
		C987.622,265.027,986.416,227.683,951.316,224.938z"/>
	<path fill="#B7D334" d="M974.637,492.638h-36.833c0-4.752,0-14.23,0-19.499c0-7.221,2.388-13.155,12.497-13.155
		c11.851,0,12.058,11.71,12.058,11.71h10.111c0,0,0.942-20.224-22.169-20.944c-25.965,0-24.053,22.389-24.053,22.389v19.499h-3.808
		c-4.952,0-8.967,4.016-8.967,8.968v31.897c0,4.952,4.016,8.968,8.967,8.968h52.198c4.952,0,8.967-4.016,8.967-8.968v-31.897
		C983.604,496.654,979.589,492.638,974.637,492.638z"/>
	<path fill="#79913A" d="M974.637,497.351h-36.833c0-4.752,0-14.23,0-19.499c0-7.221,2.388-13.155,12.497-13.155
		c11.851,0,12.058,11.71,12.058,11.71h10.111c0,0,0.942-20.224-22.169-20.944c-25.965,0-24.053,22.389-24.053,22.389v19.499h-3.808
		c-4.952,0-8.967,4.016-8.967,8.968v31.897c0,4.952,4.016,8.968,8.967,8.968h52.198c4.952,0,8.967-4.016,8.967-8.968v-31.897
		C983.604,501.366,979.589,497.351,974.637,497.351z"/>
</g>
</svg>
