<?xml version="1.0" encoding="utf-8"?>
<!--Designed by Vexels.com - 2017 All Rights Reserved - https://vexels.com/terms-and-conditions/-->
<svg version="1.1" id="Layer_1" xmlns="http://www.w3.org/2000/svg" xmlns:xlink="http://www.w3.org/1999/xlink" x="0px" y="0px"
	 viewBox="0 0 1200 1200" enable-background="new 0 0 1200 1200" xml:space="preserve">
<g>
	<g>
		<path fill="#B1D6E8" d="M839.66,1095.462c-0.816,0-1.585-0.166-2.535-0.37c-2.58-0.555-4.863-2.149-6.269-4.381
			c-3.702-5.835-3.81-6.001,18.108-40.735c-5.8,3.846-11.686,7.774-17.011,11.329c-44.593,29.769-44.708,29.728-50.039,28.602
			c-2.583-0.548-4.901-2.156-6.313-4.384c-2.892-4.573-1.531-10.625,3.039-13.517c0.902-0.571,1.865-0.976,2.847-1.224
			c5.028-2.701,24.103-15.433,39.59-25.771c52.951-35.343,53.531-35.225,59.041-34.048c2.583,0.548,4.946,2.184,6.358,4.416
			c3.661,5.787,3.753,5.924-17.295,39.278c11.67-7.602,12.42-7.433,16.087-6.658c2.576,0.552,4.847,2.136,6.253,4.365
			c2.886,4.576,1.518,10.625-3.058,13.51c-0.593,0.376-1.215,0.679-1.849,0.912c-2.663,1.55-11.364,7.318-17.84,11.607
			C847.23,1092.672,843.018,1095.462,839.66,1095.462z M874.961,1062.835c0.969,1.527,2.213,2.615,3.559,3.342
			C877.114,1065.409,875.88,1064.283,874.961,1062.835z"/>
		<path fill="#B1D6E8" d="M743.385,1150c-0.717,0-1.451-0.089-2.258-0.255c-2.618-0.532-4.962-2.143-6.39-4.403
			c-5.36-8.472,0.714-14.021,23.319-34.667c10.698-9.77,24.415-21.919,38.484-34.316c-2.682,1.776-5.331,3.536-7.943,5.268
			c-100.927,66.91-102.059,66.674-108.28,65.361c-2.573-0.552-4.968-2.203-6.377-4.429c-5.602-8.858-0.338-13.609,32.349-40.713
			c13.982-11.597,31.692-25.898,50.033-40.63c-122.807,82.216-129.296,84.996-136.732,83.405c-2.586-0.545-5.127-2.286-6.54-4.518
			c-6.027-9.531-6.852-10.848,95.825-89.349c-135.517,90.382-144.174,93.991-151.801,92.4c-2.583-0.545-5.166-2.312-6.578-4.544
			c-5.685-8.992-4.831-12.436,54.191-56.735c11.45-8.597,24.275-18.07,37.926-28.066c-123.174,81.805-139.56,90.43-147.87,88.654
			c-2.583-0.545-5.233-2.356-6.645-4.585c-7.194-11.374-7.474-11.817,171.185-139.002c16.964-12.072,35.273-25.107,53.649-38.248
			c-29.02,19.227-58.674,39.042-85.478,56.955c-182.974,122.265-192.702,126.892-201.072,125.116
			c-2.583-0.548-5.143-2.302-6.556-4.534c-5.931-9.375-8.144-12.873,98.487-87.589c-119.325,78.488-137.663,87.901-145.638,86.237
			c-2.576-0.548-5.217-2.353-6.626-4.579c-6.288-9.942,5.009-18.72,20.646-30.872c12.082-9.391,29.814-22.218,54.213-39.22
			c6.747-4.7,13.867-9.623,21.306-14.738c-121.64,80.532-139.143,89.546-147.165,87.837c-2.583-0.545-5.233-2.353-6.642-4.585
			c-4.091-6.467-6.211-9.811,27.846-34.852c-54.762,34.476-74.789,43.834-82.586,42.186c-2.991-0.631-5.513-2.356-7.095-4.856
			c-5.551-8.775,1.639-16.702,20.06-31.096c-48.742,30.114-68.033,38.991-75.268,37.457c-2.975-0.631-5.481-2.35-7.056-4.84
			c-6.189-9.78-8.606-13.609,125.738-105.021c-127.848,84.155-164.926,104.814-176.032,102.438c-2.988-0.631-5.504-2.353-7.085-4.85
			c-6.09-9.63,1.649-17.633,31.437-40.161c8.833-6.68,19.585-14.515,32.412-23.621c-38.783,23.29-55.211,30.378-61.665,29.007
			c-2.969-0.631-5.465-2.347-7.037-4.831c-6.291-9.939,3.316-18.66,28.439-37.645c10.376-7.841,23.72-17.445,40.349-29.036
			c-41.701,25.592-58.151,32.868-64.685,31.504c-2.946-0.622-5.43-2.328-6.993-4.799c-6.192-9.783-8.526-13.472,123.745-102.496
			c-83.048,53.869-110.011,67.902-119.156,65.938c-2.981-0.625-5.491-2.344-7.069-4.837c-4.869-7.701-7.771-12.27,56.27-58.107
			c-33.181,19.9-47.227,25.665-53.464,24.361c-3.004-0.628-5.535-2.36-7.123-4.872c-6.145-9.709,3.211-18.182,27.681-36.609
			c8.887-6.696,20.018-14.735,33.611-24.269c-32.161,18.934-48.442,25.984-54.851,24.62c-3.032-0.641-5.586-2.385-7.184-4.914
			c-4.7-7.423-7.461-11.779,47.635-51.35c-28.835,16.9-41.57,21.839-47.361,20.65c-2.994-0.631-5.516-2.356-7.101-4.859
			c-6.125-9.684,1.706-17.773,31.832-40.563c8.721-6.6,19.285-14.307,31.842-23.229c-36.724,22.273-51.152,28.449-57.344,27.087
			c-2.924-0.619-5.392-2.312-6.945-4.767c-4.037-6.384-6.792-10.727,28.21-37.533c-13.842,7.028-21.367,9.273-25.327,8.421
			c-2.994-0.635-5.516-2.36-7.098-4.859c-6.189-9.783,3.058-18.271,27.272-36.72c15.688-11.954,38.452-28.152,69.512-49.465
			c-58.234,37.001-79.002,47.055-86.811,45.384c-2.972-0.625-5.478-2.341-7.053-4.828c-4.987-7.885-7.739-12.257,57.105-58.186
			c-33.58,20.028-47.782,25.825-54.041,24.498c-2.988-0.628-5.504-2.353-7.085-4.853c-8.083-12.77-9.324-14.731,302.187-223.546
			c45.779-30.687,95.331-63.904,141.327-95.053c-48.266,31.899-100.206,66.69-148.08,98.758
			C160.812,667.853,117.65,694.899,105.664,692.392c-2.586-0.545-5.351-2.423-6.763-4.659c-5.583-8.823-8.201-12.94,89.291-80.462
			c-67.746,43.515-83.842,50.929-90.729,49.465c-2.58-0.548-5.331-2.417-6.741-4.649c-4.713-7.442-7.43-11.731,48.93-52.389
			c-27.218,16.17-36.319,19.368-41.054,18.36c-2.58-0.552-5.315-2.414-6.725-4.639C85.911,604,83.95,600.926,196.99,524.144
			c-76.295,49.81-97.827,61.046-105.643,59.414c-2.586-0.545-5.379-2.439-6.792-4.675c-6.291-9.936,4.276-18.912,23.494-33.924
			c13.976-10.915,34.482-25.783,62.695-45.457c2.847-1.987,5.755-4.008,8.711-6.058c-65.944,42.348-81.623,49.523-88.666,48.014
			c-2.583-0.548-5.357-2.433-6.769-4.662c-6.489-10.255-7.962-12.57,142.972-116.42C110.125,497.589,88.385,509.03,79.709,507.212
			c-2.583-0.545-5.347-2.427-6.76-4.659c-6.138-9.697-7.512-11.89,116.092-98.057c-89.955,59.178-104.294,66.002-111.669,64.43
			c-2.586-0.548-5.255-2.369-6.664-4.601c-5.545-8.759-7.261-11.495,76.569-70.963c-63.094,41.22-69.407,43.005-75.284,41.736
			c-2.586-0.548-5.166-2.312-6.578-4.547c-5.717-9.037-7.085-11.218,82.219-75.698c-66.371,43.806-72.408,45.607-78.393,44.328
			c-2.589-0.545-5.162-2.305-6.575-4.541c-5.918-9.352-0.937-14.849,44.434-49.009c8.217-6.186,17.372-12.971,27.135-20.146
			c-56.589,37.097-58.588,36.65-63.738,35.569c-2.58-0.548-5.013-2.226-6.425-4.455c-3.233-5.115-3.233-5.115,10.746-35.684
			c0.019-0.045,0.038-0.089,0.061-0.134c-0.443-0.045-0.902-0.121-1.393-0.223c-2.611-0.536-4.923-2.133-6.345-4.388
			c-2.886-4.573-1.518-10.625,3.058-13.51c0.577-0.363,1.18-0.66,1.795-0.893c1.451-0.906,4.627-3.09,6.83-4.604
			c11.473-7.889,13.533-9.311,18.261-8.335c2.608,0.536,4.942,2.146,6.365,4.397c3.23,5.111,3.233,5.108-10.806,35.815
			c24.788-15.656,65.255-42.6,99.913-65.676c139.764-93.057,147.519-96.498,155.165-94.875c2.58,0.548,5.111,2.286,6.524,4.515
			c5.902,9.336,1.454,14.26-43.26,47.897c-5.236,3.938-10.876,8.137-16.82,12.531c81.186-53.767,93.826-59.688,101.23-58.17
			c2.589,0.545,5.29,2.385,6.703,4.617c5.526,8.737,7.002,11.052-73.763,69.563C433.762,179.65,450.12,171.474,458.2,173.164
			c2.583,0.545,5.296,2.395,6.709,4.627c5.437,8.59,7.171,11.352-72.701,68.119c102.441-67.567,118.879-75.673,126.751-74.053
			c2.583,0.548,5.284,2.388,6.696,4.617c5.998,9.483,7.71,12.177-112.326,96.208c145.568-96.686,170.579-110.378,180.088-108.385
			c2.586,0.545,5.366,2.436,6.779,4.668c6.365,10.057,8.208,12.939-138.6,114.316C605.962,187.727,627.274,176.464,636.4,178.413
			c2.58,0.545,5.312,2.404,6.722,4.636c6.183,9.767-4.05,18.437-22.665,32.919c-13.112,10.204-32.234,24.052-58.416,42.31
			c68.572-44.077,91.543-55.588,99.776-53.859c2.949,0.622,5.433,2.328,6.999,4.802c4.92,7.774,7.624,12.028-57.045,58.279
			c60.131-38.257,75.096-44.909,81.623-43.557c2.58,0.552,5.309,2.411,6.718,4.639c5.009,7.911,7.216,11.38-60.973,58.665
			c43.598-27.027,59.557-34.22,65.909-32.888c2.879,0.612,5.309,2.283,6.846,4.71c5.092,8.051,7.452,11.769-67.806,64.308
			c54.564-34.236,74.569-43.614,82.337-41.988c2.975,0.628,5.484,2.347,7.06,4.837c7.299,11.54,9.403,14.83-208.904,162.11
			c174.364-116.35,213.074-139.41,224.011-137.134c2.867,0.606,5.29,2.273,6.82,4.694c6.164,9.738-3.042,18.175-27.148,36.516
			c-6.645,5.057-14.563,10.876-23.848,17.531c44.37-27.432,61.707-35.107,68.814-33.618c3.004,0.631,5.532,2.36,7.12,4.869
			c6.326,10-3.874,19.361-28.656,38.34c-17.222,13.188-42.479,31.178-77.216,55.004c-1.161,0.794-2.328,1.594-3.504,2.401
			c91.374-59.637,116.899-73.192,125.68-71.33c2.886,0.609,5.322,2.283,6.859,4.716c4.467,7.056,6.894,10.896-42.425,45.894
			c23.841-13.692,34.444-17.604,39.463-16.543c2.924,0.619,5.389,2.309,6.942,4.764c5.759,9.104,8.16,12.93-97.056,84.333
			c58.559-37.122,79.547-47.195,87.34-45.604c2.969,0.625,5.469,2.34,7.044,4.824c6.154,9.729-2.902,17.869-28.408,36.991
			c-9.961,7.465-22.665,16.584-38.398,27.55c45.208-28.328,60.881-35.49,67.398-34.087c2.886,0.609,5.322,2.283,6.859,4.716
			c6.081,9.611-1.757,17.84-30.062,39.332c-5.867,4.458-12.621,9.442-20.315,14.99c28.704-16.759,43.493-23.016,49.622-21.708
			c3.052,0.641,5.618,2.391,7.225,4.933c5.182,8.195,7.595,11.996-74.314,68.393c50.326-31.386,72.809-42.288,80.79-40.591
			c3.029,0.638,5.58,2.379,7.178,4.907c6.132,9.69-1.808,17.863-32.301,40.929c-10.146,7.675-22.738,16.826-38.018,27.623
			c43.066-26.466,60.02-33.981,66.722-32.566c2.959,0.625,5.453,2.334,7.021,4.812c5.848,9.244,3.702,17.541-83.568,77.882
			c55.202-35.091,72.172-43.2,78.648-41.838c2.583,0.548,5.299,2.398,6.709,4.627c5.985,9.464,8.498,13.446-110.607,94.052
			c78.44-50.642,103.21-63.212,111.867-61.391c2.943,0.622,5.427,2.325,6.99,4.796c8.415,13.3,10.165,16.068-330.77,243.296
			c-37.355,24.897-77.242,51.481-115.623,77.235c48.337-31.96,99.54-66.19,147.006-97.923
			c247.811-165.662,293.495-194.351,305.675-191.768c2.586,0.548,5.338,2.42,6.75,4.652c6.291,9.939-4.142,18.536-24.693,34.128
			c-7.592,5.759-17.034,12.624-28.49,20.717c29.594-18,40.544-22.397,45.814-21.284c2.586,0.545,5.376,2.439,6.792,4.671
			c6.154,9.732-3.348,18.577-26.498,36.446c-0.325,0.249-0.654,0.501-0.982,0.756c17.927-9.869,26.6-12.828,30.974-11.903
			c2.914,0.619,5.376,2.309,6.926,4.761c6.081,9.607-3.622,17.872-21.297,31.657c-9.311,7.257-21.849,16.479-38.053,27.971
			c40.521-25.343,50.323-29.131,55.584-27.974c2.576,0.548,5.217,2.353,6.626,4.579c5.96,9.419,4.792,13.134-64.819,62.574
			c-6.109,4.337-12.535,8.868-19.231,13.568c56.515-36.111,71.046-42.533,77.653-41.114c2.583,0.545,5.382,2.446,6.795,4.674
			c5.835,9.225,4.611,13.319-63.68,63.754c-20.095,14.84-43.786,31.956-68.916,49.963c116.86-77.599,124.803-80.708,132.026-79.132
			c2.583,0.545,5.153,2.305,6.562,4.537c5.848,9.244,2.484,12.853-45.001,48.308c-21.182,15.816-48.024,35.324-77.082,56.35
			c102.32-68.014,108.755-70.427,115.575-68.961c2.583,0.545,5.108,2.28,6.521,4.509c6.208,9.815,6.428,10.153-105.155,95.203
			c94.463-63.033,99.843-65.016,106.532-63.623c2.586,0.548,5.092,2.267,6.505,4.499c5.669,8.966-0.631,14.183-30.901,39.255
			c-13.816,11.441-31.603,25.79-49.96,40.528c72.101-47.613,73.46-47.345,79.091-46.143c2.576,0.548,4.965,2.2,6.374,4.426
			c5.787,9.145,5.787,9.145-69.512,75.408c-15.5,13.638-34.22,30.113-48.359,42.967c1.518,4.215-0.026,9.068-3.967,11.575
			c-0.701,0.446-1.441,0.791-2.197,1.039c-1.652,1.024-5.162,3.46-7.599,5.15C749.929,1147.873,746.864,1150,743.385,1150z
			 M485.23,889.383c-72.503,47.769-150.711,99.396-213.986,142.296C336.04,989.417,414.538,936.792,485.23,889.383z
			 M401.573,903.927c-36.201,23.704-72.503,47.568-106.076,69.885C328.91,952.014,365.031,928.17,401.573,903.927z M710.093,634.263
			c-69.26,44.832-159.161,105.314-238.577,158.746c-14.763,9.933-28.905,19.438-42.453,28.538c4.569-3.016,9.209-6.078,13.912-9.177
			C533.025,752.983,635.421,685.451,710.093,634.263z M376.858,752.071c-32.754,21.562-65.259,43.047-95.41,63.18
			C311.625,795.462,344.034,773.964,376.858,752.071z M428.013,676.012c-61.27,40.41-124.022,81.983-176.673,117.664
			C305.493,758.219,368.686,715.87,428.013,676.012z M658.899,711.652c-18.794,12.378-38.331,25.324-58.158,38.516
			C620.687,737.024,640.214,724.1,658.899,711.652z M417.134,605.849c-51.522,33.959-106.258,70.102-154.709,102.633
			C310.474,677.049,364.617,640.972,417.134,605.849z M631.059,440.359c-42.98,28.235-91.3,60.571-138.38,92.212
			C540.435,501.029,588.733,468.971,631.059,440.359z M77.659,301.408c1.782,0.418,3.45,1.333,4.773,2.691
			c0.003-0.003,0.003-0.003,0.006-0.006C81.042,302.642,79.352,301.794,77.659,301.408z"/>
		<path fill="#B1D6E8" d="M152.729,272.238c-0.851,0-1.588-0.156-2.427-0.332c-2.586-0.548-4.99-2.207-6.403-4.442
			c-4.26-6.738-4.566-7.229,25.911-40.566c-18.36,11.986-19.511,11.763-23.551,10.896c-2.586-0.548-4.926-2.171-6.336-4.404
			c-3.335-5.264-3.514-5.545,10.79-31.695c-6.409,3.932-7.445,3.718-10.503,3.052c-2.58-0.552-4.85-2.14-6.256-4.368
			c-2.886-4.576-1.511-10.625,3.064-13.51c0.622-0.392,1.275-0.708,1.939-0.944c2.573-1.489,10.494-6.734,15.87-10.296
			c19.058-12.614,19.062-12.624,23.577-11.651c2.576,0.552,4.84,2.133,6.247,4.362c3.367,5.306,3.565,5.622-11.234,32.68
			c3.179-2.117,6.32-4.215,9.234-6.167c37.521-25.079,37.632-25.044,42.811-23.947c2.583,0.548,4.901,2.156,6.313,4.391
			c4.327,6.84,4.789,7.567-27.024,42.434c3.227-2.162,6.387-4.279,9.41-6.304c68.163-45.706,69.056-45.511,74.872-44.274
			c2.586,0.545,4.99,2.203,6.403,4.435c2.892,4.573,1.531,10.625-3.039,13.517c-1.218,0.768-2.538,1.237-3.877,1.425
			c-7.662,3.766-39.746,25.276-63.451,41.168C166.822,266.751,157.773,272.238,152.729,272.238z M147.024,186.607
			c1.374,0.765,2.58,1.872,3.482,3.291C149.556,188.406,148.341,187.331,147.024,186.607z"/>
	</g>
	<g>
		<path fill="#FFC854" d="M1060.849,838.387c-0.622,0-1.279-0.061-1.974-0.198c-2.631-0.513-4.949-2.092-6.393-4.349
			c-2.739-4.327-2.739-4.327,5.226-33.235c0.102-0.367,0.204-0.74,0.309-1.116c-14.786,9.958-16.039,10.529-20.481,9.601
			c-2.589-0.542-4.895-2.136-6.313-4.375c-3.909-6.18-4.12-6.511,19.323-40.464c-1.658,1.1-3.281,2.178-4.847,3.221
			c-42.393,28.162-42.393,28.168-47.74,27.024c-2.576-0.548-4.885-2.149-6.294-4.378c-4.531-7.168-4.773-7.544,32.129-45.301
			c-65.437,43.688-66.805,43.353-72.494,42.179c-2.583-0.548-5.019-2.226-6.428-4.458c-5.338-8.44-5.991-9.461,52.169-58.923
			c-80.657,53.961-81.658,53.77-87.652,52.501c-2.583-0.545-4.987-2.203-6.4-4.435c-5.909-9.336-6.157-9.748,82.149-82.672
			c-55.884,37.31-57.561,36.944-63.011,35.812c-2.592-0.545-5.054-2.238-6.47-4.477c-5.194-8.198-5.826-9.196,55.833-58.687
			c-45.406,29.718-47.125,29.351-51.946,28.325c-2.58-0.552-4.981-2.21-6.39-4.435c-5.555-8.778-6.007-9.499,70.223-70.51
			c-49.048,32.476-50.757,32.116-55.938,31.022c-2.586-0.545-5.025-2.229-6.438-4.461c-5.386-8.517-5.918-9.355,66.084-68.1
			c-46.525,30.856-48.49,30.448-53.572,29.374c-2.592-0.545-5.08-2.254-6.495-4.49c-5.657-8.931,0.8-14.282,27.977-36.791
			c12.276-10.172,27.594-22.509,44.214-35.818c-60.648,39.842-61.952,39.561-67.178,38.445c-2.573-0.555-4.933-2.187-6.339-4.413
			c-5.622-8.88-0.032-13.896,30.598-39.054c7.439-6.113,16.007-13.022,25.168-20.356c-36.749,24.001-38.799,23.561-43.483,22.592
			c-2.586-0.548-5.067-2.251-6.479-4.486c-5.727-9.053,1.132-14.661,29.999-38.276c8.845-7.238,19.358-15.669,30.598-24.61
			c-43.554,28.688-45.26,28.302-50.125,27.288c-2.583-0.548-5.006-2.216-6.419-4.448c-5.596-8.842,0.159-13.603,27.814-36.472
			c8.37-6.919,18.124-14.83,28.72-23.357c-41.72,27.416-43.621,27.03-48.483,26.007c-2.586-0.545-5.038-2.229-6.451-4.461
			c-5.411-8.555,0.303-13.497,24.348-34.294c6.211-5.373,13.424-11.505,21.141-18.009c-40.145,26.584-41.822,26.249-46.678,25.222
			c-2.589-0.545-5.025-2.222-6.441-4.458c-4.885-7.726-5.178-8.188,41.57-51.324c-19.502,12.723-20.905,12.432-24.897,11.594
			c-2.592-0.542-4.971-2.184-6.387-4.419c-2.969-4.69-3.048-4.812,8.702-36.201c-2.666,1.314-3.9,1.177-6.227,0.686
			c-2.576-0.555-4.84-2.133-6.247-4.365c-2.886-4.579-1.511-10.628,3.064-13.51c0.481-0.303,0.979-0.558,1.486-0.768
			c1.626-0.982,5.956-3.855,9.199-6.007c14.496-9.623,15.066-10.003,19.505-9.049c2.576,0.545,4.84,2.12,6.253,4.343
			c2.898,4.592,2.898,4.592-7.723,32.97c-0.536,1.429-1.113,2.965-1.706,4.553c8.224-5.437,17.557-11.725,25.551-17.113
			c53.237-35.869,53.942-35.732,59.58-34.536c2.589,0.545,4.99,2.197,6.406,4.432c4.936,7.796,5.593,8.839-39.45,50.578
			c69.136-46.385,70.552-46.082,76.4-44.858c2.589,0.545,5.044,2.235,6.457,4.47c5.382,8.504-0.249,13.373-23.947,33.86
			c-6.986,6.039-15.28,13.073-24.141,20.528c63.486-42.336,64.991-42.052,70.638-40.837c2.586,0.548,5.025,2.226,6.438,4.458
			c5.746,9.075-1.135,14.776-30.085,38.767c-6.814,5.65-14.572,11.973-22.856,18.669c44.985-29.527,46.975-29.099,51.898-28.057
			c2.583,0.545,5.048,2.242,6.457,4.474c5.784,9.135-1.244,14.891-30.828,39.109c-7.908,6.476-17.078,13.851-26.893,21.673
			c36.969-24.243,38.866-23.835,43.515-22.859c2.589,0.545,5.041,2.232,6.454,4.464c5.727,9.056-1.049,14.617-29.571,38.021
			c-9.314,7.64-20.513,16.632-32.454,26.147c50.32-32.923,51.755-32.629,56.652-31.552c2.573,0.552,4.933,2.187,6.339,4.41
			c5.733,9.062-0.686,14.885-31.963,40.897c-8.577,7.133-18.52,15.232-29.119,23.79c38.359-25.225,40.384-24.785,45.161-23.797
			c2.592,0.542,5.079,2.251,6.495,4.49c5.398,8.533,5.95,9.397-66.11,68.199c53.61-35.48,55.533-35.088,60.775-33.981
			c2.583,0.545,5.051,2.242,6.463,4.474c5.736,9.068-0.147,13.925-32.798,40.875c-9.796,8.09-21.342,17.439-33.621,27.314
			c43.247-28.36,44.765-28.022,49.583-27.008c2.576,0.552,4.958,2.197,6.368,4.423c5.676,8.973-0.67,14.215-31.156,39.402
			c-5.169,4.27-10.848,8.906-16.865,13.791c30.327-19.664,32.409-19.234,36.813-18.312c2.589,0.545,5.076,2.251,6.492,4.49
			c5.854,9.253,6.173,9.741-79.662,80.641c63.578-42.151,65.632-41.707,71.164-40.54c2.586,0.548,5.07,2.258,6.482,4.49
			c5.37,8.488-0.516,13.66-22.41,32.9c-7.806,6.862-17.391,15.082-27.566,23.739c27.483-18.137,28.609-17.888,33.025-16.964
			c2.586,0.545,4.93,2.168,6.339,4.4c4.461,7.047,5.067,8.01-29.211,43.263c17.321-11.186,18.513-10.927,22.34-10.108
			c2.576,0.548,4.898,2.159,6.307,4.384c3.951,6.256,3.992,6.323-20.328,41.506c1.32-0.258,2.42-0.121,3.842,0.175
			c2.592,0.545,4.904,2.146,6.317,4.388c2.71,4.276,2.71,4.276-5.233,33.104c-1.193,4.33-2.602,9.435-3.772,13.81
			c0.214,0.265,0.415,0.542,0.599,0.829c2.927,4.55,1.617,10.612-2.934,13.539c-0.348,0.223-0.705,0.424-1.068,0.596
			c-0.249,0.175-0.532,0.376-0.813,0.577C1066.363,836.751,1064.051,838.387,1060.849,838.387z"/>
	</g>
	<g>
		<path fill="#B1D6E8" d="M1114.658,324.516c-0.737,0-1.502-0.115-2.417-0.312c-2.567-0.552-4.808-2.114-6.218-4.333
			c-2.803-4.426-2.86-4.515,5.606-28.506c-1.83,1.208-3.6,2.382-5.226,3.46c-25.19,16.689-25.193,16.67-29.833,15.688
			c-2.573-0.548-4.844-2.124-6.253-4.346c-4.034-6.39-4.085-6.479,22.065-43.034c-4.799,3.189-9.569,6.374-13.966,9.308
			c-46.822,31.261-46.918,31.255-52.386,30.082c-2.58-0.548-4.904-2.159-6.317-4.391c-4.588-7.261-4.911-7.758,34.106-48.308
			c-7.152,4.742-14.333,9.521-21.173,14.071c-84.285,56.088-85.226,55.897-91.262,54.615c-2.58-0.552-4.968-2.203-6.377-4.432
			c-5.322-8.402-5.373-8.491,52.951-65.115c-38.337,25.429-38.889,25.292-43.86,24.246c-2.58-0.552-4.898-2.162-6.307-4.391
			c-3.495-5.507-3.495-5.507,14.231-40.276c0.906-1.773,1.865-3.661,2.841-5.58c-2.009-0.743-3.747-2.133-4.904-3.96
			c-2.895-4.573-1.537-10.625,3.032-13.517c0.539-0.341,1.097-0.622,1.668-0.848c1.527-0.925,5.207-3.386,7.509-4.923
			c9.25-6.186,10.663-7.13,14.964-6.227c2.58,0.545,4.844,2.117,6.259,4.346c3.469,5.504,3.469,5.504-13.915,39.606
			c-0.067,0.128-0.131,0.255-0.198,0.383c6.894-4.541,14.279-9.451,21.08-13.973c59.162-39.329,59.64-39.268,65.316-38.028
			c2.58,0.548,4.93,2.175,6.342,4.404c5.405,8.542,5.545,8.756-53.853,66.426c4.62-3.067,9.199-6.116,13.631-9.065
			c83.893-55.823,84.815-55.651,90.841-54.357c2.58,0.548,4.968,2.2,6.377,4.429c4.458,7.037,4.834,7.627-30.907,44.804
			c34.103-22.566,35.231-22.333,39.982-21.338c2.583,0.548,4.946,2.184,6.358,4.413c3.938,6.227,4.174,6.594-20.165,40.652
			c12.432-8.007,13.399-7.79,17.085-7.002c2.576,0.552,4.869,2.146,6.275,4.372c2.94,4.646,2.94,4.646-6.999,32.802
			c-1.221,3.463-2.653,7.519-3.887,11.077l4.423,8.064c-0.708,0.418-2.844,1.808-5.064,3.246
			C1119.383,323.107,1117.208,324.516,1114.658,324.516z"/>
	</g>
	<g>
		<path fill="#E75345" d="M969.122,214.648c-0.864,0-1.61-0.159-2.458-0.338c-2.589-0.542-5.013-2.213-6.425-4.448
			c-4.926-7.79-5.513-8.73,48.113-55.224c-49.692,33.06-51.347,32.696-56.512,31.599c-2.589-0.545-5.035-2.229-6.451-4.464
			c-5.15-8.128-5.357-8.463,48.783-58.923c-26.332,17.257-27.872,16.932-32.208,16.023c-2.586-0.548-4.993-2.207-6.409-4.442
			c-3.81-6.03-4.014-6.349,19.776-40.725c-7.493,4.659-8.59,4.419-11.766,3.74c-2.576-0.548-4.866-2.14-6.275-4.368
			c-2.892-4.573-1.531-10.621,3.042-13.513c0.73-0.462,1.499-0.816,2.283-1.065c3.189-1.808,13.478-8.651,20.449-13.287
			c23.813-15.841,23.819-15.87,28.554-14.84c2.576,0.548,4.859,2.13,6.269,4.356c3.925,6.211,3.948,6.25-21.75,43.346
			c6.805-4.531,13.759-9.199,20.015-13.405c50.425-33.857,50.773-33.79,56.305-32.623c2.589,0.545,4.942,2.175,6.355,4.41
			c5.188,8.204,5.657,8.938-50.071,60.957c74.605-50.113,75.717-49.861,81.699-48.598c2.589,0.545,5.022,2.219,6.438,4.455
			c4.914,7.758,5.456,8.619-48.002,54.937c48.729-32.397,50.467-32.039,55.763-30.927c2.586,0.542,5.054,2.238,6.47,4.477
			c4.55,7.19,4.684,7.401-32.138,51.327c23.701-15.816,24.256-15.717,28.841-14.738c2.586,0.545,4.901,2.149,6.313,4.384
			c3.106,4.907,3.106,4.907-9.818,37.706c-0.051,0.124-0.099,0.252-0.15,0.376c2.889-1.448,4.279-1.365,6.635-0.861
			c2.583,0.548,4.863,2.13,6.275,4.359c2.895,4.573,1.537,10.625-3.032,13.517c-0.628,0.399-1.279,0.714-1.948,0.953
			c-2.095,1.234-7.72,4.993-11.211,7.324c-12.847,8.574-13.615,9.078-17.997,8.153c-2.586-0.552-4.856-2.133-6.262-4.372
			c-3.064-4.84-3.064-4.84,9.464-36.634c0.236-0.599,0.478-1.212,0.724-1.837c-2.787,1.859-5.545,3.708-8.096,5.417
			c-40.476,27.116-40.923,27.021-46.156,25.927c-2.583-0.545-4.933-2.168-6.345-4.4c-4.627-7.321-4.627-7.321,34.329-53.783
			c0.383-0.453,0.768-0.915,1.157-1.381c-11.463,7.611-23.605,15.774-34.323,22.981C984,208.791,974.393,214.648,969.122,214.648z
			 M1120.528,194.812c1.055,1.661,2.436,2.803,3.919,3.52C1122.894,197.567,1121.526,196.377,1120.528,194.812z M970.984,79.68
			c1.106,0.733,2.079,1.703,2.838,2.892C973.031,81.328,972.052,80.378,970.984,79.68z"/>
	</g>
	<g>
		<path fill="#370F1F" d="M777.427,1078.588c-14.184,17.148-3.56,41.098-13.972,63.212c-8.969,0.555-19.655,2.899-29.868,1.581
			c-80.433-10.379-161.199-12.515-242.179-12.199c-54.761,0.214-109.527-1.853-164.295-2.171
			c-43.165-0.249-86.345,0.269-129.502,1.18c-14.335,0.303-28.588,3.532-42.937,4.27c-19.756,1.016-23.782-2.764-25.101-22.278
			c-2.179-32.254-3.593-64.562-6.027-96.795c-3.047-40.344-6.981-80.621-10.172-120.955c-1.632-20.629-2.611-41.313-3.658-61.984
			c-3.275-64.661-5.437-129.4-10.041-193.964c-2.619-36.727-10.119-73.079-13.714-109.768
			c-5.352-54.629-9.148-109.411-13.719-164.119c-0.898-10.748-3.002-21.431-3.349-32.182c-0.802-24.822,7.124-33.617,32.023-37.379
			c14.206-2.145,28.376-4.53,42.605-6.814c7.548-14.68,3.743-28.816,1.522-42.821c-1.408-8.875-3.95-17.61-4.838-26.522
			c-2.813-28.233,14.585-46.645,42.949-45.29c14.337,0.685,28.588,3.234,42.924,3.841c48.376,2.047,96.766,3.839,145.166,5.21
			c16.133,0.457,32.312-0.613,48.468-1.044c56.659-1.516,113.314-3.216,169.979-4.441c9.843-0.212,19.745,1.383,29.59,2.428
			c16.724,1.775,31.37,6.752,39.495,23.561c2.667,5.517,7.341,10.288,11.809,14.676c39.99,39.281,69.877,86.819,105.974,129.267
			c9.715,11.425,13.919,24.14,15.732,39.136c3.773,31.206,10.013,62.109,14.943,93.183c7.185,45.28,13.885,90.637,21.217,135.893
			c5.319,32.826,11.907,65.453,16.873,98.328c5.504,36.439,9.987,73.038,14.576,109.609c3.692,29.427,6.987,58.905,10.241,88.384
			c1.382,12.521,2.448,25.089,3.244,37.661c1.988,31.411,3.765,62.836,5.56,94.259c0.308,5.385,0.375,10.788,0.408,16.184
			c0.148,24.325-2.267,26.791-25.539,25.04C828.849,1082.885,803.904,1080.741,777.427,1078.588z M633.992,371.537
			c-1.649-6.24-3.65-11.197-4.16-16.304c-0.98-9.796-1.317-19.671-1.561-29.522c-0.803-32.357-0.716-64.756-2.386-97.066
			c-1.262-24.419-4.324-28.322-28.907-29.88c-36.735-2.327-73.663-3.347-110.459-2.554c-52.007,1.121-103.852,10.035-156.038,2.751
			c-4.407-0.615-8.992,0.135-13.492,0.084c-33.271-0.375-66.543-0.718-99.812-1.236c-12.583-0.196-25.181-1.488-37.736-1.1
			c-17.198,0.53-22.47,6.536-20.806,23.544c1.926,19.682,5.354,39.223,7.09,58.917c7.27,82.434,13.86,164.929,21.256,247.351
			c7.395,82.416,17.281,164.512,17.49,247.59c0.161,63.8,6.284,127.591,9.977,191.374c0.989,17.077,2.95,34.095,4.168,51.162
			c1.133,15.877,5.884,27.414,24.628,29.571c24.935,2.87,49.589,10.484,74.471,11.02c43.098,0.927,86.279-2.072,129.428-3.289
			c7.184-0.202,14.406,0.688,21.578,0.36c19.728-0.901,39.584-1.046,59.128-3.539c44.772-5.71,89.557-9.882,134.591-4.733
			c51.827,5.925,103.568,12.598,155.319,19.169c15.05,1.911,30.03,4.885,43.995-2.642c1.021-4.011,2.455-6.643,2.205-9.105
			c-6.716-66.221-13.156-132.476-20.612-198.615c-5.436-48.221-11.483-96.402-18.645-144.394
			c-8.892-59.581-19.222-118.947-28.918-178.408c-7.962-48.834-15.903-97.671-23.86-146.507
			c-2.351-14.429-4.348-17.075-18.866-16.897c-33.291,0.409-66.57,1.759-99.856,2.685
			C647.127,371.492,641.046,371.464,633.992,371.537z M206.736,1058.818c-3.303-34.98-7.512-68.785-9.512-102.721
			c-6.511-110.482-11.832-221.035-18.399-331.513c-3.038-51.11-7.569-102.14-12.03-153.153
			c-4.075-46.604-8.871-93.147-13.619-139.688c-0.609-5.967-2.834-11.769-5.071-20.67c-16.087,2.384-31.05,4.152-45.818,6.953
			c-9.187,1.743-13.362,8.542-13.038,17.826c0.188,5.392,0.636,10.782,1.138,16.157c7.685,82.261,15.758,164.488,22.987,246.789
			c5.587,63.597,9.54,127.338,15.334,190.914c3.833,42.063-0.178,84.206,5.683,126.457c6.035,43.502,4.911,87.973,7.497,131.986
			c1.199,20.411,2.855,40.91,9.826,60.666c4.369,1.146,7.776,2.784,11.2,2.82c31.462,0.339,62.938,0.929,94.391,0.394
			c31.419-0.534,62.811-2.662,94.229-3.304c13.438-0.275,26.913,2.083,40.378,2.149c60.244,0.3,120.508-0.713,180.728,0.531
			c52.016,1.074,104.336,0.103,155.562,12.133c3.498,0.822,7.29,2.249,10.599,1.609c5.464-1.059,10.646-3.576,13.873-4.734
			c-2.525-15.934-4.56-28.775-7.039-44.413c-8.903-1.798-19.125-4.57-29.528-5.798c-16.081-1.898-32.539-1.38-48.381-4.333
			c-27.719-5.169-55.32-5.207-83.166-2.645c-34.029,3.131-68.042,6.609-102.136,8.771c-16.929,1.074-34.141-1.914-51.021-0.549
			c-60.016,4.855-119.837,7.913-179.305-5.337c-8.723-1.943-17.917-1.678-26.814-2.98
			C219.297,1062.257,213.45,1060.418,206.736,1058.818z M742.027,343.533c-23.204-44.881-54.601-77.316-90.186-111.981
			c-8.731,33.289,2.325,63.656-2.911,93.226c-1.118,6.316,2.276,13.431,3.763,21.054
			C682.775,346.307,710.993,351.424,742.027,343.533z"/>
	</g>
	<g>
		<path fill="#370F1F" d="M1129.954,148.593c-1.706,32.315-3.688,64.619-5.019,96.95c-0.813,19.759-1.32,39.58-0.769,59.339
			c2.569,92.26-10.612,183.061-23.879,273.95c-10.653,72.99-19.74,146.21-29.387,219.345c-0.817,6.193-1.889,12.792-0.621,18.728
			c2.504,11.72-1.48,20.996-7.494,30.44c-4.304,6.762-7.156,14.429-11.028,21.489c-3.432,6.259-6.253,13.452-11.297,18.124
			c-19.101,17.692-38.66,34.931-58.714,51.535c-12.649,10.473-21.286,8.54-27.049-6.09c-7.562-19.197-13.544-39.014-20.324-58.523
			c-4.115-11.844-8.813-23.495-12.622-35.434c-10.934-34.274-11.574-69.379-4.909-104.262
			c11.524-60.317,15.98-121.187,18.551-182.398c3.436-81.807,7.588-163.594,12.439-245.329
			c3.837-64.65,8.446-129.275,14.167-193.782c3.056-34.449,10.031-40.438,43-49.725c27.058-7.622,54.257-5.628,79.75,3.503
			c25.579,9.162,39.063,30.803,42.671,57.758c1.068,7.981,0.42,16.191,0.558,24.295
			C1128.637,148.534,1129.296,148.563,1129.954,148.593z M1045.79,578.289c-0.584-42.615,9.423-84.635,11.087-127.114
			c1.677-42.855,6.118-85.602,9.351-128.449c-7.314-2.617-12.286-4.612-17.407-6.091c-1.448-0.418-3.332,0.674-7.547,1.674
			c-2.267,9.08-5.948,19.199-7.143,29.603c-2.25,19.597-3.38,39.343-4.326,59.058c-0.381,7.95-0.833,14.533-13.321,13.635
			c-7.627-35.407,2.013-70.276,6.398-108.604c-13.144,1.435-24.645,1.629-35.607,4.159c-13.494,3.116-21.48,11.147-20.974,26.907
			c0.546,17.016-1.061,34.118-2.055,51.164c-2.09,35.864-4.302,71.721-6.649,107.568c-1.101,16.813-2.63,33.598-4,50.839
			c4.221,0.697,6.763,0.997,9.248,1.56c2.389,0.542,4.718,1.355,4.971,1.43c10.172,25-5.117,41.599-17.126,58.443
			c18.606,14.53,18.58,16.057,6.264,31.468c-4.231,5.293-8.148,11.755-9.495,18.246c-2.916,14.052-4.229,28.451-5.852,42.746
			c-0.393,3.463-0.504,9.576,1.056,10.24c16.893,7.194,10.189,23,13.75,35.012c1.128,3.803,4.354,6.983,7.009,11.044
			c20.894-12.073,2.056-40.854,25.162-51.697c10.623,17.537-3.013,37.845,8.958,56.498c5.669,0.653,13.221,1.523,19.656,2.264
			c5.098-8.618,8.924-15.087,14.622-24.719c7.328,14.514-1.902,31.674,17.143,39.745c2.031-12.086,4.064-23.066,5.702-34.104
			c14.112-95.104,28.774-190.132,41.88-285.375c4.649-33.783,6.007-68.065,7.792-102.175c0.893-17.053-0.201-17.109-22.619-23.992
			c-1.389,8.977-4.07,17.708-3.87,26.373c1.563,67.79-12.372,134.299-16.132,201.629
			C1061.299,574.691,1058.044,579.035,1045.79,578.289z M1109.71,205.242c-1.152-27.073-2.249-51.111-3.176-75.156
			c-0.942-24.422-16.038-37.841-37.25-43.926c-22.74-6.524-46.143-5.935-69.237,0.714c-9.737,2.803-15.798,8.568-17.576,18.26
			c-5.314,28.972-8.361,58.123-7.273,87.837C1062.533,183.054,1057.07,187.498,1109.71,205.242z M956.791,792.508
			c-17.13,1.294-20.464,5.714-18.218,18.934c4.829,28.421,15.05,51.46,49.389,51.742c2.534,0.021,4.994,2.139,7.59,2.457
			c13.603,1.665,30.487-12.069,37.033-29.868c4.332-11.778,1.134-18.354-12.356-29.078
			C1000.175,790.755,975.54,798.032,956.791,792.508z M1093.403,231.835c-26.928-26.061-87.902-31.759-112.844-13.132
			c-6.042,4.512-8.577,10.389-6.99,16.738c21.043-3.303,40.203-8.18,59.502-8.809
			C1052.013,226.015,1071.096,229.717,1093.403,231.835z M974.561,293.099c19.174-1.717,37.274-5,55.266-4.49
			c18.669,0.529,37.233,4.731,55.844,7.326c-27.521-22.609-58.989-14.984-89.582-13.797
			C987.414,282.475,978.403,282.648,974.561,293.099z M989.385,259.212c25.784-1.595,51.569-3.191,77.353-4.786
			C1040.379,248.815,1014.063,243.052,989.385,259.212z"/>
	</g>
	<path fill="#370F1F" d="M262.074,505.162c0.509-16.163,8.822-21.447,20.911-22.244c20.645-1.361,41.306-2.549,61.978-3.394
		c35.018-1.431,70.069-3.965,105.069-3.454c55.698,0.812,111.371,3.624,167.044,5.839c21.465,0.853,42.893,2.612,64.357,3.523
		c13.227,0.561,26.578,0.076,36.687,14.801c-5.219,2.455-8.934,5.674-12.703,5.739c-25.154,0.434-50.5,2.121-75.449-0.193
		c-69.912-6.484-139.535-10.961-209.882-4.126c-48.23,4.687-96.996,3.88-145.527,5.384
		C271.144,507.144,267.689,506.043,262.074,505.162z"/>
	<path fill="#370F1F" d="M273.723,599.822c2.709-16.999,11.45-21.365,23.473-21.772c17.079-0.579,34.15-1.45,51.233-1.86
		c30.516-0.733,61.038-1.632,91.557-1.64c16.986-0.004,33.984,2.589,50.957,2.384c56.571-0.68,113.13-2.48,169.701-3.026
		c20.492-0.197,40.97,2.143,60.481,8.657c2.325,12.715-4.597,15.056-13.698,14.827c-43.095-1.087-86.187-2.269-129.28-3.453
		c-4.493-0.123-9.097-1.267-13.452-0.616c-62.514,9.338-125.67,0.993-188.307,6.94c-8.895,0.844-17.952-0.191-26.921,0.078
		c-19.681,0.592-39.35,1.661-59.034,2.082C285.469,602.529,280.469,600.928,273.723,599.822z"/>
	<path fill="#370F1F" d="M727.464,699.963c-6.837,0.881-13.691,2.633-20.509,2.502c-43.062-0.825-86.115-2.869-129.173-2.924
		c-34.98-0.044-69.972,3.27-104.941,2.977c-30.407-0.255-60.767-4.115-91.19-5.13c-16.88-0.563-33.932,0.658-50.743,2.537
		c-13.306,1.487-26.326,4.462-40.898-1.617c2.472-14.633,11.462-20.495,23.964-20.845c29.524-0.826,59.088-1.58,88.606-0.949
		c45.748,0.98,91.464,3.318,137.204,4.75c59.126,1.851,118.268,3.232,177.383,5.358c4.158,0.15,8.154,4.776,12.226,7.32
		C728.75,695.949,728.107,697.956,727.464,699.963z"/>
	<path fill="#370F1F" d="M714.39,782.509c-5.064,2.308-10.031,6.337-15.208,6.627c-23.33,1.307-46.716,1.785-70.088,2.138
		c-57.442,0.868-114.899,1.023-172.328,2.385c-44.854,1.064-89.671,3.67-134.518,5.169c-6.885,0.23-13.846-1.815-19.992-2.696
		c-4.466-10.189-0.794-15.358,7.18-18.091c4.205-1.441,8.693-2.663,13.095-2.825c41.286-1.522,82.575-3.037,123.876-4.06
		c34.986-0.867,69.996-1.761,104.983-1.415c46.693,0.462,93.378,1.968,140.056,3.401c7.469,0.229,14.879,2.426,22.315,3.714
		C713.971,778.741,714.181,780.625,714.39,782.509z"/>
	<path fill="#370F1F" d="M525.155,868c-3.837,16.979-13.213,14.49-20.713,14.103c-30.472-1.573-61.126-2.101-91.302-6.109
		c-25.403-3.374-50.038-1.058-74.978,1.844c-7.787,0.906-15.666,1.035-26.744,1.721c2.795-7.625,3.176-13.789,6.401-16.303
		c5.28-4.117,12.259-7.724,18.788-8.255c19.662-1.597,39.49-2.681,59.185-1.996c34.024,1.184,68.039,3.346,101.961,6.232
		C506.925,860.016,515.749,864.874,525.155,868z"/>
	<path fill="#370F1F" d="M245.948,318.86c-1.33-11.313-11.107-15.184-18.295-21.575c-2.593-2.305-4.725-9.701-3.455-10.88
		c3.214-2.98,9.571-6.319,12.73-4.97c14.732,6.287,27.915,14.836,29.031,35.257c-7.68,0.475-14.316,0.886-20.953,1.296
		L245.948,318.86z"/>
	<path fill="#370F1F" d="M245.007,317.989c2.935,8.416,12.845,16.432-0.649,28.047c-7.983-5.315-16.371-10.899-24.771-16.492
		c11.561-17.394,11.561-17.394,26.362-10.684L245.007,317.989z"/>
	<path fill="#370F1F" d="M297.531,973.165c11.672,8.246,22.956,14.896,28.296,28.171c-15.64,5.766-20.076,4.806-30.017-6.282
		C290.052,988.632,285.785,981.952,297.531,973.165z"/>
	<path fill="#370F1F" d="M272.533,993.34c13.272,9.98,20.84,15.671,30.456,22.903c-4.223,3.854-9.141,10.003-10.498,9.298
		c-6.781-3.524-13.27-8.246-18.493-13.827C271.867,1009.436,273.188,1003.925,272.533,993.34z"/>
	<path fill="#370F1F" d="M808.633,1002.694c-13.095-15.285-3.795-25.753,1.004-37.977
		C821.673,980.084,821.615,983.116,808.633,1002.694z"/>
	<path fill="#370F1F" d="M117.774,354.201c7.845,27.615,12.751,49.984,9.912,73.267c-0.497,4.077-5.605,7.592-9.14,12.071
		C107.006,417.297,105.625,376.506,117.774,354.201z"/>
	<path fill="#370F1F" d="M169.619,1049.338c-10.6-14.6-9.813-25.174-0.407-38.874
		C176.769,1023.773,179.967,1034.147,169.619,1049.338z"/>
	<path fill="#370F1F" d="M999.253,322.436c-0.409,13.208-0.104,20.851-0.969,28.36c-4.411,38.315-9.353,76.571-13.572,114.907
		c-1.07,9.724,0.456,19.717-0.347,29.494c-0.997,12.137,0.519,25.777-15.423,33.369c-10.376-16.816-1.956-34.431-2.326-51.11
		c-0.375-16.938,1.967-33.962,3.527-50.91c1.644-17.868,2.421-35.975,6.086-53.451C979.528,357.365,975.992,338.423,999.253,322.436
		z"/>
	<path fill="#370F1F" d="M993.985,684.407c-14.847-5.53-11.896-15.795-11.682-24.002c2.987-114.725,4.077-121.947,21.544-141.842
		c6.859,20.079-2.273,37.964-1.396,55.698c0.923,18.662-0.217,37.487-1.439,56.176C999.844,648.3,1001.529,666.886,993.985,684.407z
		"/>
	<path fill="#370F1F" d="M1045.439,664.409c-8.373-17.477-4.981-29.362,5.252-40.813
		C1060.734,636.577,1060.003,643.54,1045.439,664.409z"/>
	<path fill="#370F1F" d="M1007.19,491.665c-9.063-14.819-5.127-23.46,6.473-32.524
		C1020.151,471.947,1020.677,481.451,1007.19,491.665z"/>
</g>
</svg>
