<?xml version="1.0" encoding="utf-8"?>
<!-- Designed by Vexels.com - 2020 All Rights Reserved - https://vexels.com/terms-and-conditions/  -->
<svg version="1.1" id="Layer_1" xmlns="http://www.w3.org/2000/svg" xmlns:xlink="http://www.w3.org/1999/xlink" x="0px" y="0px"
	 viewBox="0 0 1200 1200" enable-background="new 0 0 1200 1200" xml:space="preserve">
<g>
	<path fill="#004F84" d="M1101.987,146.688H98.019C71.541,146.688,50,168.229,50,194.702v810.59
		c0,26.478,21.541,48.019,48.019,48.019h1003.967c26.473,0,48.013-21.541,48.013-48.019v-810.59
		C1150,168.229,1128.459,146.688,1101.987,146.688z M1101.987,1011.524H98.019c-3.434,0-6.232-2.798-6.232-6.232V357.199h1016.425
		v648.093C1108.213,1008.726,1105.42,1011.524,1101.987,1011.524z M98.019,188.476h1003.967c3.434,0,6.226,2.792,6.226,6.226v120.71
		H91.787v-120.71C91.787,191.268,94.586,188.476,98.019,188.476z"/>
	<path fill="#004F84" d="M358.129,279.551c13.112,0,23.741-10.629,23.741-23.741c0-13.111-10.629-23.74-23.741-23.74
		c-13.111,0-23.74,10.629-23.74,23.74C334.389,268.922,345.018,279.551,358.129,279.551z"/>
	<path fill="#004F84" d="M172.756,279.551c13.111,0,23.74-10.629,23.74-23.741c0-13.111-10.629-23.74-23.74-23.74
		c-13.112,0-23.741,10.629-23.741,23.74C149.015,268.922,159.644,279.551,172.756,279.551z"/>
	<path fill="#004F84" d="M265.442,279.551c13.111,0,23.74-10.629,23.74-23.741c0-13.111-10.629-23.74-23.74-23.74
		c-13.111,0-23.741,10.629-23.741,23.74C241.701,268.922,252.331,279.551,265.442,279.551z"/>
	<path fill="#004F84" d="M998.626,490.099h-218.06c-11.537,0-20.894,9.357-20.894,20.894s9.357,20.894,20.894,20.894h218.06
		c11.537,0,20.894-9.357,20.894-20.894S1010.163,490.099,998.626,490.099z"/>
	<path fill="#004F84" d="M998.626,587.408h-218.06c-11.537,0-20.894,9.357-20.894,20.894c0,11.537,9.357,20.894,20.894,20.894
		h218.06c11.537,0,20.894-9.357,20.894-20.894C1019.52,596.765,1010.163,587.408,998.626,587.408z"/>
	<path fill="#004F84" d="M998.626,744.25h-218.06c-11.537,0-20.894,9.357-20.894,20.894c0,11.537,9.357,20.894,20.894,20.894h218.06
		c11.537,0,20.894-9.357,20.894-20.894C1019.52,753.607,1010.163,744.25,998.626,744.25z"/>
	<path fill="#004F84" d="M998.626,841.559h-218.06c-11.537,0-20.894,9.357-20.894,20.894c0,11.537,9.357,20.894,20.894,20.894
		h218.06c11.537,0,20.894-9.357,20.894-20.894C1019.52,850.916,1010.163,841.559,998.626,841.559z"/>
	<path fill="#004F84" d="M646.722,601.393c-2.25-8.074-7.514-14.79-14.813-18.906c-7.299-4.116-15.758-5.148-23.844-2.886
		l-23.237,6.488c-6.628-10.937-13.146-19.699-22.549-28.84l10.517-18.655c4.116-7.299,5.142-15.769,2.892-23.843
		c-2.25-8.08-7.514-14.79-14.813-18.9l-41.612-23.459c-7.305-4.116-15.775-5.153-23.849-2.897c-8.08,2.25-14.79,7.514-18.9,14.813
		l-10.989,19.489c-12.65-3.096-23.243-4.326-33.661-4.028l-6.354-23.086c-2.256-8.068-7.514-14.778-14.807-18.894
		c-7.299-4.116-15.775-5.148-23.838-2.886l-46.037,12.843c-16.655,4.652-26.426,21.99-21.657,39.082l6.844,22.637
		c-9.438,5.888-17.699,12.067-25.26,18.888l-21.331-12.027c-7.305-4.116-15.781-5.148-23.843-2.891
		c-8.08,2.25-14.79,7.514-18.9,14.813l-23.459,41.612c-4.122,7.305-5.153,15.769-2.897,23.849c2.25,8.08,7.514,14.79,14.813,18.9
		l19.413,10.942c-3.544,14.242-4.127,26.409-3.696,38.96l-24.724,6.442c-8.068,2.256-14.778,7.514-18.894,14.819
		c-4.116,7.299-5.142,15.769-2.886,23.832l12.837,46.025c2.25,8.074,7.514,14.79,14.813,18.906c7.305,4.11,15.758,5.13,23.5,2.979
		l25.382-6.622c5.363,9.788,10.925,18.014,18.947,26.578l-13.14,23.313c-8.488,15.07-3.136,34.238,11.928,42.726l41.624,23.465
		c15.058,8.494,34.238,3.154,42.743-11.922l12.499-22.176c12.429,3.201,23.5,4.501,36.465,4.343l6.453,23.109
		c2.25,8.074,7.509,14.784,14.807,18.9c4.769,2.693,10.033,4.063,15.361,4.063c2.833,0,5.684-0.391,8.482-1.172l46.031-12.843
		c16.655-4.652,26.426-21.99,21.867-38.342l-6.179-23.534c11.741-6.902,20.468-13.939,30.379-24.496l20.462,11.531
		c15.064,8.488,34.244,3.131,42.726-11.933l23.465-41.618c8.5-15.064,3.154-34.238-11.922-42.743l-22.724-12.808
		c2.274-10.692,3.084-20.043,3.241-30l23.75-7.369c16.422-4.798,26.024-22.001,21.418-38.546L646.722,601.393z M535.2,785
		c-12.516,14.592-19.769,20.48-35.206,28.571c-11.741,6.378-17.571,19.85-14.184,32.775l6.156,23.441l-26.117,7.287l-6.459-23.15
		c-3.48-12.516-14.79-20.952-27.522-20.952c-0.968,0-1.947,0.047-2.927,0.146l-1.154,0.117c-15.577,0.775-25.604-0.565-40.814-5.422
		c-12.312-3.929-25.954,1.405-32.361,12.726l-12.919,22.922l-23.488-13.239l12.231-21.687c5.801-10.289,5.153-23.179-1.656-32.833
		l-1.271-1.801l-1.621-1.492c-10.598-9.806-15.373-17.384-22.054-30.647c-6.349-12.621-20.847-19.197-34.518-15.647l-24.63,6.43
		l-7.246-25.965l25.767-6.71c12.458-3.259,20.87-14.941,20.008-27.79c-1.283-18.877-1.306-29.545,4.011-45.786l1.218-5.492
		c2.081-11.071-3.107-22.217-12.913-27.749l-20.8-11.729l13.233-23.482l19.588,11.041c11.834,6.681,26.811,4.652,36.418-4.961
		c8.587-8.61,18.428-15.933,30.979-23.051l2.338-1.329l1.924-1.871c9.042-8.791,12.394-21.756,8.75-33.853l-5.655-18.678
		l25.715-7.176l5.69,20.66c3.888,14.178,16.854,23.628,31.661,23.08c11.659-0.484,21.127,0.023,34.797,3.9
		c14.638,4.775,30.559-1.411,38.132-14.866l9.491-16.836l23.488,13.239l-9.963,17.67c-6.943,12.33-4.261,28.058,6.459,37.485
		c12.003,10.423,17.524,18.445,26,33.521c6.075,11.263,19.296,16.929,31.69,13.478l23.803-6.646l7.322,26.251l-21.611,6.71
		c-13.298,4.133-22.491,16.72-22.357,30.623c0.128,12.72-0.455,22.054-3.923,34.926l-0.391,1.766
		c-2.349,13.175,3.906,26.432,15.554,32.99l20.421,11.514l-13.239,23.488l-22.042-12.429C557.644,772.087,543.297,774.908,535.2,785
		z"/>
	<path fill="#004F84" d="M479.311,594.625c-23.797-13.414-51.395-16.755-77.727-9.415c-26.321,7.34-48.206,24.491-61.626,48.299
		c-13.42,23.803-16.766,51.406-9.421,77.727c12.604,45.174,53.808,74.824,98.58,74.818c9.071,0,18.299-1.218,27.452-3.772
		c54.333-15.163,86.204-71.699,71.041-126.032C520.27,629.93,503.119,608.045,479.311,594.625z M445.341,742.035
		c-32.122,8.96-65.59-9.887-74.556-42.026c-4.343-15.571-2.361-31.9,5.573-45.979c7.94-14.085,20.882-24.228,36.453-28.571
		c5.404-1.51,10.902-2.256,16.358-2.256c10.278,0,20.427,2.647,29.621,7.829c14.085,7.934,24.228,20.882,28.571,36.447
		C496.328,699.618,477.48,733.063,445.341,742.035z"/>
</g>
</svg>
